/* XPM */
static char *e0ae16f70ef04066b4716e508006a2eaS92XHgUJ80ij69zd[] = {
/* columns rows colors chars-per-pixel */
"48 13 100 2 ",
"   c None",
".  c #191A1A",
"X  c gray10",
"o  c #1B1A1A",
"O  c #1C1A1A",
"+  c #3B1F1F",
"@  c #252525",
"#  c #252626",
"$  c gray15",
"%  c #2A2424",
"&  c #2E2626",
"*  c #272A2A",
"=  c #282828",
"-  c #282929",
";  c gray16",
":  c #2A2828",
">  c #282A2A",
",  c #292A2A",
"<  c #2C2929",
"1  c #362222",
"2  c #302525",
"3  c #312525",
"4  c #322424",
"5  c #302626",
"6  c #392121",
"7  c #3A2020",
"8  c #3A2121",
"9  c #3B2727",
"0  c #3F2424",
"q  c #3A2A2A",
"w  c #460E0E",
"e  c #490D0D",
"r  c #4A0D0D",
"t  c #4B0D0D",
"y  c #4D0D0D",
"u  c #5F0E0E",
"i  c #4F1616",
"p  c #461A1A",
"a  c #411C1C",
"s  c #401D1D",
"d  c #411D1D",
"f  c #411F1F",
"g  c #4C1F1F",
"h  c #5B1616",
"j  c #630B0B",
"k  c #600D0D",
"l  c #610D0D",
"z  c #620C0C",
"x  c #770101",
"c  c #750303",
"v  c #720404",
"b  c #790000",
"n  c #780101",
"m  c #790101",
"M  c #7A0000",
"N  c #7B0000",
"B  c #7C0000",
"V  c #641C1C",
"C  c #7B1717",
"Z  c #4A2222",
"A  c #4D2727",
"S  c #442828",
"D  c #482B2B",
"F  c #4E2828",
"G  c #532B2B",
"H  c #542C2C",
"J  c #6C2727",
"K  c #6B2828",
"L  c #6D2B2B",
"P  c #782727",
"I  c #880808",
"U  c #890808",
"Y  c #8A0808",
"T  c #8A0909",
"R  c #8B0909",
"E  c #991010",
"W  c #981111",
"Q  c #991111",
"!  c #A21A1A",
"~  c #A21B1B",
"^  c #A31B1B",
"/  c #842E2E",
"(  c #8F2A2A",
")  c #922727",
"_  c #AB2626",
"`  c #AE2525",
"'  c #AC2626",
"]  c #AD2626",
"[  c #AE2626",
"{  c #AF2626",
"}  c #B42B2B",
"|  c #B32E2E",
" . c #B42E2E",
".. c #B33131",
"X. c #B63232",
"o. c #C13131",
"O. c #C75F5F",
"+. c #D86C6C",
"@. c #DA7373",
"#. c #E69696",
/* pixels */
"  0 F F F     D H H G                                                                           ",
"0 C ~ _ _ P S ( o.o.o./                                                                         ",
"Z E E ~ ' _ ) ` X.#.+. .q                                                                       ",
"d I E E ~ ` ` ` ` O.@.| 9 + & @ $ $ $ $ $ $ $ $ $ $ $ $ $ $ $ $ $ $ $ $ $ $ $ $ $ $ $ $ $ $ $   ",
"d m I Q E ~ ' ' _ '  ...g m y O X X X X X X X X X X X X X X X X X X X X X X X X X X X X X X X @ ",
"5 l B I E Q ^ ' ` ` _ L d m m y X X X X X X X X X X X X X X X X X X X X X X X X X X X X X X X $ ",
", & l B I Q Q ^ ` ` K , p m B m t X X X X X X X X X X X X X X X X X X X X X X X X X X X X X X $ ",
"  , < l B R Q Q ~ J , d x m m m m t X X X X X X X X X X X X X X X X X X X X X X X X X X X X X $ ",
"    , 5 j m Y E V , d v m m m m m x w X X X X X X X X X X X X X X X X X X X X X X X X X X X X $ ",
"      , 5 j B h < , 5 + 6 6 6 6 6 6 1 $ $ $ $ $ $ $ $ $ $ $ $ $ $ $ $ $ $ $ $ $ $ $ $ $ $ $ $ , ",
"        , 5 i & , , , * * * * * * * , , , & , , , , , , , , , , , , , , , , , , , & , , & * ,   ",
"          , * ,                                                                                 ",
"            ,                                                                                   "
};
