/* XPM */
static char *_d19481beee44a07a6bb7d795088cac3nEBN3TKaReQkrjDD[] = {
/* columns rows colors chars-per-pixel */
"48 13 111 2 ",
"   c None",
".  c #191A1A",
"X  c gray10",
"o  c #1F1A1A",
"O  c #221919",
"+  c #251A1A",
"@  c #3B1F1F",
"#  c #252525",
"$  c #242626",
"%  c gray15",
"&  c #292626",
"*  c #2E2626",
"=  c #272929",
"-  c #272A2A",
";  c #282828",
":  c #282929",
">  c gray16",
",  c #2A2828",
"<  c #282A2A",
"1  c #292A2A",
"2  c #2C2929",
"3  c #302525",
"4  c #312525",
"5  c #322424",
"6  c #322525",
"7  c #302626",
"8  c #392121",
"9  c #3A2020",
"0  c #3A2121",
"q  c #3B2727",
"w  c #3F2424",
"e  c #3A2A2A",
"r  c #5F0E0E",
"t  c #4F1616",
"y  c #461A1A",
"u  c #411C1C",
"i  c #401D1D",
"p  c #411D1D",
"a  c #411F1F",
"s  c #4C1F1F",
"d  c #5B1616",
"f  c #630B0B",
"g  c #600D0D",
"h  c #610D0D",
"j  c #620C0C",
"k  c #750303",
"l  c #720404",
"z  c #780101",
"x  c #790101",
"c  c #7A0000",
"v  c #7B0000",
"b  c #7C0000",
"n  c #6B1515",
"m  c #6E1414",
"M  c #641C1C",
"N  c #701414",
"B  c #721414",
"V  c #731414",
"C  c #7B1717",
"Z  c #422323",
"A  c #432323",
"S  c #442323",
"D  c #402424",
"F  c #432424",
"G  c #4A2222",
"H  c #4D2727",
"J  c #442828",
"K  c #482B2B",
"L  c #4E2828",
"P  c #532B2B",
"I  c #542C2C",
"U  c #6C2727",
"Y  c #6B2828",
"T  c #6D2B2B",
"R  c #782727",
"E  c #860909",
"W  c #880808",
"Q  c #890808",
"!  c #8A0808",
"~  c #8A0909",
"^  c #8B0909",
"/  c #890A0A",
"(  c #961111",
")  c #971111",
"_  c #971212",
"`  c #991010",
"'  c #981111",
"]  c #991111",
"[  c #9B1111",
"{  c #A21A1A",
"}  c #A21B1B",
"|  c #A31B1B",
" . c #842E2E",
".. c #8F2A2A",
"X. c #922727",
"o. c #AB2626",
"O. c #AE2525",
"+. c #AC2626",
"@. c #AD2626",
"#. c #AE2626",
"$. c #AF2626",
"%. c #B42B2B",
"&. c #B32E2E",
"*. c #B42E2E",
"=. c #B33131",
"-. c #B63232",
";. c #C13131",
":. c #C75F5F",
">. c #D86C6C",
",. c #DA7373",
"<. c #E69696",
/* pixels */
"  w L L L     K I I P                                                                           ",
"w C } o.o.R J ..;.;.;. .                                                                        ",
"G ` ` } +.o.X.O.-.<.>.*.e                                                                       ",
"p W ` ` } O.O.O.O.:.,.&.q @ Z F S Z S Z F F F F S 6 % & % % % % % % % % % % % % % % % % % % %   ",
"p x W ` ` } +.+.+.+.*.=.s x E ) ) ) _ _ _ _ _ _ ` V + . X X X X X X X X X X X X X X X X X X X # ",
"7 h b W ` _ | +.O.O.o.T p x x ! ` ` _ ` ` [ _ ` _ ` B O X X X X X X X X X X X X X X X X X X X % ",
"1 * h b ^ ` [ | O.O.U 1 y x b x W ` _ [ _ _ [ [ ` _ ` B O X X X X X X X X X X X X X X X X X X % ",
"  1 2 h b ^ _ ` } U 1 u k x x x x ^ ` _ [ ` ` _ ` [ ` ` m O X X X X X X X X X X X X X X X X X % ",
"    1 * f b W ` M 1 p l x x x x x x / ) ) ) ) ) _ ` _ ) ` n o . X X X X X X X X X X X X X X X % ",
"      1 7 f b d 2 1 7 @ 8 8 8 8 8 8 8 w w w w w w F w w w w & = % % % % % % % % % % % % % % % 1 ",
"        1 7 t & 1 1 1 = = - = = < - - - - - = = - - - - = = 1 1 1 1 1 1 1 1 1 1 1 & 1 1 1 1 1   ",
"          1 1 1                                                                                 ",
"            1                                                                                   "
};
