/* XPM */
static char *d10f309528f44777e8afe07170fb5a74srs0jzSfW2cVd3M0[] = {
/* columns rows colors chars-per-pixel */
"48 13 124 2 ",
"   c None",
".  c #181A1A",
"X  c #191A1A",
"o  c gray10",
"O  c #3B1F1F",
"+  c #252525",
"@  c #252626",
"#  c gray15",
"$  c #2E2626",
"%  c #262929",
"&  c #272929",
"*  c #272A2A",
"=  c #282828",
"-  c #282929",
";  c gray16",
":  c #2A2828",
">  c #282A2A",
",  c #292A2A",
"<  c #2C2929",
"1  c #302525",
"2  c #312525",
"3  c #322424",
"4  c #302626",
"5  c #372727",
"6  c #392121",
"7  c #3A2020",
"8  c #3A2121",
"9  c #3B2727",
"0  c #3F2424",
"q  c #3A2A2A",
"w  c #5F0E0E",
"e  c #4F1616",
"r  c #461A1A",
"t  c #411C1C",
"y  c #401D1D",
"u  c #411D1D",
"i  c #411F1F",
"p  c #441E1E",
"a  c #471E1E",
"s  c #491E1E",
"d  c #4B1E1E",
"f  c #4D1E1E",
"g  c #4C1F1F",
"h  c #5B1616",
"j  c #630B0B",
"k  c #600D0D",
"l  c #610D0D",
"z  c #620C0C",
"x  c #750303",
"c  c #720404",
"v  c #780101",
"b  c #790101",
"n  c #7A0000",
"m  c #7B0000",
"M  c #7C0000",
"N  c #641C1C",
"B  c #7B1717",
"V  c #422323",
"C  c #432323",
"Z  c #432424",
"A  c #462626",
"S  c #4A2222",
"D  c #4D2727",
"F  c #432828",
"G  c #442828",
"H  c #452929",
"J  c #482828",
"K  c #482929",
"L  c #482B2B",
"P  c #4E2828",
"I  c #532B2B",
"U  c #542C2C",
"Y  c #6C2727",
"T  c #6B2828",
"R  c #6D2B2B",
"E  c #782727",
"W  c #860909",
"Q  c #880808",
"!  c #890808",
"~  c #8A0808",
"^  c #8A0909",
"/  c #8B0909",
"(  c #890A0A",
")  c #961111",
"_  c #971111",
"`  c #971212",
"'  c #991010",
"]  c #981111",
"[  c #991111",
"{  c #9C1717",
"}  c #9F1717",
"|  c #9F1818",
" . c #9E1919",
".. c #A01818",
"X. c #A21A1A",
"o. c #A21B1B",
"O. c #A31B1B",
"+. c #842E2E",
"@. c #8F2A2A",
"#. c #922727",
"$. c #9E2525",
"%. c #A32525",
"&. c #A42525",
"*. c #A42626",
"=. c #A82424",
"-. c #AA2525",
";. c #AA2626",
":. c #AB2626",
">. c #AC2525",
",. c #AE2525",
"<. c #AC2626",
"1. c #AD2626",
"2. c #AE2626",
"3. c #AF2626",
"4. c #B42B2B",
"5. c #B32E2E",
"6. c #B42E2E",
"7. c #B33131",
"8. c #B63232",
"9. c #C13131",
"0. c #C75F5F",
"q. c #D86C6C",
"w. c #DA7373",
"e. c #E69696",
/* pixels */
"  0 P P P     L U U U                                                                           ",
"0 B o.:.:.E G @.9.9.8.+.                                                                        ",
"S ' ' o.1.;.#.,.8.e.q.5.q                                                                       ",
"u Q ' ' o.,.,.,.,.0.w.5.0 8 Z Z C C C C Z Z Z Z C A L A L A L P A L L G L A G : # # # # # # #   ",
"u M Q ' ' o.1.1.1.1.6.8.f x W ` ' ' ` ` ` ` ` ` ` { *.:.,.:.:.*.;.;.;.;.;.;.*.f o o o o o o o + ",
"3 h M Q ' ` O.1.1.,.:.T u n n W ` ' [ [ [ [ [ [ ' ' ..:.,.,.,.,.1.1.1.1.1.1.,.*.s o o o o o o + ",
"> $ l M / [ ' O.,.,.T > r n n n Q ' ` [ [ [ [ [ ' ' ' o.:.1.,.,.1.1.1.1.1.1.1.1.*.s . o o o o # ",
"  > 4 l M ( ' ` O.T > u x n n n M ( [ [ [ [ [ [ ' ' ' '  .,.1.;.1.1.1.1.1.1.1.,.,.*.p o o o o # ",
"    > 3 l M / ' N > u c n n n n n n Q ` ` ' ` ` ` ` ` ` `  .:.:.:.:.:.:.:.:.:.:.;.1.$.p o o o # ",
"      * 3 j M h < > 3 O 6 6 6 6 6 6 6 0 0 Z 8 0 0 0 0 0 8 Z F F F Z F F F F F Z G Z G 5 # # # > ",
"        > 3 e : > > * * * * * > * * * * * * * * * * * * * * * * * * * * * * * * * * * * * > >   ",
"          > > >                                                                                 ",
"            >                                                                                   "
};
