/* XPM */
static char *fab79763a6ad44eec77f8b8b31c25c15DbKv7lJ6TU8PBAYM[] = {
/* columns rows colors chars-per-pixel */
"48 13 123 2 ",
"   c None",
".  c #3B1F1F",
"X  c #2E2626",
"o  c #262929",
"O  c #272929",
"+  c #272A2A",
"@  c #282929",
"#  c gray16",
"$  c #2A2828",
"%  c #282A2A",
"&  c #292A2A",
"*  c #2C2929",
"=  c #302525",
"-  c #312525",
";  c #322424",
":  c #302626",
">  c #392121",
",  c #3A2020",
"<  c #3A2121",
"1  c #3B2727",
"2  c #3F2424",
"3  c #332A2A",
"4  c #3A2A2A",
"5  c #5F0E0E",
"6  c #4F1616",
"7  c #461A1A",
"8  c #411C1C",
"9  c #401D1D",
"0  c #411D1D",
"q  c #411F1F",
"w  c #4C1F1F",
"e  c #5B1616",
"r  c #630B0B",
"t  c #600D0D",
"y  c #610D0D",
"u  c #620C0C",
"i  c #750303",
"p  c #720404",
"a  c #780101",
"s  c #790101",
"d  c #7A0000",
"f  c #7B0000",
"g  c #7C0000",
"h  c #641C1C",
"j  c #7B1717",
"k  c #422323",
"l  c #432323",
"z  c #432424",
"x  c #462626",
"c  c #4A2222",
"v  c #4D2727",
"b  c #432828",
"n  c #442828",
"m  c #452929",
"M  c #482828",
"N  c #482929",
"B  c #482B2B",
"V  c #4E2828",
"C  c #4D2B2B",
"Z  c #532B2B",
"A  c #542C2C",
"S  c #552C2C",
"D  c #562C2C",
"F  c #6C2727",
"G  c #6B2828",
"H  c #6D2B2B",
"J  c #782727",
"K  c #860909",
"L  c #880808",
"P  c #890808",
"I  c #8A0808",
"U  c #8A0909",
"Y  c #8B0909",
"T  c #890A0A",
"R  c #961111",
"E  c #971111",
"W  c #971212",
"Q  c #991010",
"!  c #981111",
"~  c #991111",
"^  c #9C1717",
"/  c #9F1717",
"(  c #9F1818",
")  c #9E1919",
"_  c #A01818",
"`  c #A21A1A",
"'  c #A21B1B",
"]  c #A31B1B",
"[  c #842E2E",
"{  c #8F2A2A",
"}  c #922727",
"|  c #A82424",
" . c #AA2525",
".. c #AA2626",
"X. c #AB2626",
"o. c #AB2727",
"O. c #AC2525",
"+. c #AE2525",
"@. c #AC2626",
"#. c #AD2626",
"$. c #AD2727",
"%. c #AE2626",
"&. c #AF2626",
"*. c #AE2727",
"=. c #B42B2B",
"-. c #B32E2E",
";. c #B42E2E",
":. c #B72E2E",
">. c #BA2E2E",
",. c #BB2E2E",
"<. c #BC2E2E",
"1. c #B33131",
"2. c #B63232",
"3. c #BE3232",
"4. c #BF3232",
"5. c #C13131",
"6. c #C03232",
"7. c #C13232",
"8. c #C23232",
"9. c #C75F5F",
"0. c #D86C6C",
"q. c #DA7373",
"w. c #E69696",
/* pixels */
"  2 v V V     B D Z Z                                                                           ",
"2 j ' o.@.J n { 5.5.5.[                                                                         ",
"c Q Q ' @.@.} @.2.w.0.;.4                                                                       ",
"0 L Q Q ] @.&.@.@.9.q.;.1 . k z l l l k z z z z z x B B B x x B x x B x B x V V C C C C C C C   ",
"0 s L Q Q ] @.@.&.@.=.1.w s K E Q E ~ ~ W W W W W ~ | o.@.@.o.o.@.o.o.o.o.o.o.>.6.4.5.6.4.4.6.D ",
": t g L Q Q ] @.@.@.@.H 0 s s I Q Q ~ ~ ~ ~ ~ ~ Q Q / @.@.@.@.@.&.@.@.@.@.@.@.&.3.6.8.8.6.6.6.D ",
"& X y g Y Q ~ ] @.@.G & 7 s s s T Q ~ ~ ~ ~ ~ ~ ~ ~ Q / +.@.@.@.&.@.@.@.@.@.@.@.@.<.8.8.8.8.6.D ",
"  & X y g Y ~ ~ ' F & 0 i g s s s L ~ ~ ~ ~ ~ ~ ~ ~ Q Q _ +.&.@.@.@.&.&.@.@.@.@.@.@.<.8.8.8.8.D ",
"    & X r s L Q h & 0 p s s s s s s T E E E E E ~ W E E E ) o.o.o.o.o.o.o.o.o.o.o.@.&.2.6.6.4.S ",
"      & ; r g e * & : . < < < < < < < 2 2 2 2 2 2 2 2 2 2 2 b b b b z b b z b b b n n n B B B 3 ",
"        & : 6 $ & & & o o o & o + + + + + + & o + + + + o o o o o o o o o o o o o o o o o o o   ",
"          & & &                                                                                 ",
"            &                                                                                   "
};
