/* XPM */
static char *f76a0c880de24a07c0630257bdb578cfbH4qxAYIID2VROuL[] = {
/* columns rows colors chars-per-pixel */
"32 32 7 1 ",
"  c None",
". c #222034",
"X c #44657B",
"o c #FD9B25",
"O c #FEE762",
"+ c #9DB2C8",
"@ c white",
/* pixels */
"                                ",
"                                ",
"         .....                  ",
"       ..X+@++. .....           ",
"      .+@@@@@@+.X+@@+..         ",
"     .+@@@@@@@@@+@@@@@+.        ",
"    .+@+@@@@@@@@@@@@@@@+.       ",
"    .@+X++@@@@@@+@@@@@@@.       ",
"    .@X@oX@@@@@@++@@+@+@....    ",
"    .@X+oo+@@@@+oo@@+@+XX+++..  ",
"    .+X+oo+@@@@o@o@@o@+X@@@@@+. ",
"    .+X+oo+@@@@o@o+@o@+XXX++@@. ",
"    .+X+ooX@@@@oOO+@o++X...++@. ",
"    .+X+oOo@@@+OOOo+Oo+X.  .+@. ",
"    .@X+oOO+@@+OOOOXOo+X.  .+@. ",
"     .X+oOOX@@oOO@@ooo+X.  .+@. ",
"     .X+oOOo@+OOO@@OOo+X.  .+@. ",
"     .X+oOOO+oOOOOOOOo+X.  .@@. ",
"     .X+oOOOoOOOOOOOOO+X. .+@+. ",
"     .X+oOOOOOOOOOOOOO+X..+@@+. ",
"     .X+oOOOOOOOOOOOOO+X++@@+.  ",
"     .X+oOOOOOOOOOOOOO+X@@+X.   ",
"     .X+oOOOOOOOOOOOOo+X++..    ",
"     .X+oOOOOOOOOOOOOo+X..      ",
"     .X+ooOOOOOOOOOOoo+X.       ",
"     .X++oooooooooooo++X.       ",
"     .XX++oooooooooo++XX.       ",
"      .XXX++++++++++XXX.        ",
"       ................         ",
"                                ",
"                                ",
"                                "
};
