/* XPM */
static char *_5026d7cdf764a7ad0cd957950a085c0Wg8slv1TUHjK3HhG[] = {
/* columns rows colors chars-per-pixel */
"48 48 186 2 ",
"   c None",
".  c #F7741E",
"X  c #F7771F",
"o  c #F8741F",
"O  c #F77520",
"+  c #F77521",
"@  c #F77621",
"#  c #F77622",
"$  c #F87721",
"%  c #F77923",
"&  c #F77D27",
"*  c #F87B24",
"=  c #F67A29",
"-  c #F77E28",
";  c #F98325",
":  c #FA8626",
">  c #FA8827",
",  c #F6802E",
"<  c #FA8C28",
"1  c #F98D2E",
"2  c #FD962B",
"3  c #FC972D",
"4  c #FC9A2E",
"5  c #FD9E2E",
"6  c #F68130",
"7  c #F1843D",
"8  c #FB9632",
"9  c #FC9B32",
"0  c #FA9A34",
"q  c #FC9C34",
"w  c #FDA12F",
"e  c #FDA231",
"r  c #FEA631",
"t  c #FEA632",
"y  c #FEA732",
"u  c #FCA637",
"i  c #FFAF31",
"p  c #FFAF32",
"a  c #FFAE33",
"s  c #FFAF33",
"d  c #FFAE34",
"f  c #FFAF35",
"g  c #FDAF3A",
"h  c #FFB033",
"j  c #FFB035",
"k  c #FFB135",
"l  c #FFB437",
"z  c #FDB139",
"x  c #FDB03A",
"c  c #FDB03B",
"v  c #FDB13B",
"b  c #FFB538",
"n  c #FFB639",
"m  c #FDB23C",
"M  c #FEB33D",
"N  c #FDB53F",
"B  c #FDB63F",
"V  c #FFBC3E",
"C  c #FFBC3F",
"Z  c #EF8C49",
"A  c #F08A45",
"S  c #F08A46",
"D  c #F08B46",
"F  c #EE904C",
"G  c #EC9B57",
"H  c #FFBD40",
"J  c #FFBE40",
"K  c #FFBF41",
"L  c #EFAD5E",
"P  c #F6B652",
"I  c #F6B653",
"U  c #F6B753",
"Y  c #FAB254",
"T  c #F5B857",
"R  c #DF9E70",
"E  c #E29464",
"W  c #EA9D65",
"Q  c #EA9F65",
"!  c #E99E66",
"~  c #F19D65",
"^  c #EBA265",
"/  c #ECA867",
"(  c #E8A26C",
")  c #ECAA68",
"_  c #F3A067",
"`  c #F1BA62",
"'  c #F1BB62",
"]  c #F1BB63",
"[  c #F1BC63",
"{  c #E7A673",
"}  c #E6A877",
"|  c #E7A877",
" . c #E6A878",
".. c #E6A978",
"X. c #E6A979",
"o. c #E6AA79",
"O. c #E6AA7A",
"+. c #E6AB7A",
"@. c #E4AA7C",
"#. c #E4AA7D",
"$. c #ECBF74",
"%. c #FFC042",
"&. c #FFC244",
"*. c #FFC544",
"=. c #FFC545",
"-. c #FFDF59",
";. c #FFDF5A",
":. c #FFE05A",
">. c #FFE15A",
",. c #FFE860",
"<. c #FFE960",
"1. c #FFE861",
"2. c #FFE961",
"3. c #FFEA61",
"4. c #FFEA62",
"5. c #FFEB62",
"6. c #D3AB93",
"7. c #D4AD93",
"8. c #D4AE93",
"9. c #D3AF95",
"0. c #E4B183",
"q. c #E3B886",
"w. c #E3BA89",
"e. c #E2B98B",
"r. c #E4BF88",
"t. c #E2BD8E",
"y. c #E2BF90",
"u. c #CDB8AC",
"i. c #D2B8AD",
"p. c #CBBDB5",
"a. c #DFC79C",
"s. c #E5C489",
"d. c #E5C48A",
"f. c #E5C58A",
"g. c #F6CA83",
"h. c #E3C690",
"j. c #E0C094",
"k. c #E1C294",
"l. c #E0C196",
"z. c #E0C296",
"x. c #E0C397",
"c. c #E0C398",
"v. c #E1C698",
"b. c #E1C699",
"n. c #E0C99C",
"m. c #E0C99E",
"M. c #F5D196",
"N. c #DECBA1",
"B. c #DFCCA4",
"V. c #DECCA5",
"C. c #DECDA6",
"Z. c #DECEA8",
"A. c #EED2BD",
"S. c #F0DCBF",
"D. c #BDC9D9",
"F. c #BCC9DA",
"G. c #BDC9DA",
"H. c #BCC9DB",
"J. c #BCCADC",
"K. c #BCCADD",
"L. c #C6C2C4",
"P. c #C1C3CD",
"I. c #C0C6D1",
"U. c #C3CEDC",
"Y. c #C2CFDE",
"T. c #F0DFC0",
"R. c #EFE2CA",
"E. c #F0E0C2",
"W. c #E9E0D4",
"Q. c #E8E6DD",
"!. c #E8E7DF",
"~. c #E9E8E0",
"^. c #E6EAEC",
"/. c #E6EBED",
"(. c #ECEDEA",
"). c #EAEDEC",
"_. c #EBEEF0",
"`. c #EBEFF0",
"'. c #EBEFF1",
"]. c #EBF0F1",
"[. c #EBF0F2",
"{. c #EBF0F3",
"}. c #EBF1F3",
"|. c #ECF0F1",
" X c #ECF1F2",
".X c #EBF0F4",
/* pixels */
"    D.D.D.D.U./.'.'.).'.). X'.'.).'.). X X'.'.'.'.). X'.'.'.'.).'.). X                          ",
"D.D.D.D.D.D.U./. X). X'.'.'. X). X'.'.'.).'.). X'. X).'.). X'. X'. X X'.                        ",
"D.D.D.D.D.D.U./.'.'.'. X).'.'.'.'.'.). X).}.}.).'.). X'.'.'.'.).'.).'.'. X                      ",
"D.H.H.H.D.D.U./. X).'.). X'.'.'.'.'.'.'.'.'.'.'.'.'.'.'.'.'.'. X'.'.'.'. X                      ",
"L.L.L.L.D.D.U.^.'.). X).!.!.!.!.Q.~.!.!.!.!.!.!.!.!.!.!.Q.Q.~.~.Q.Q.~.Q.~.                      ",
"#.#.#.#.p.D.U.^.}.).}.Q.Z.C.C.V.V.V.V.V.V.V.C.C.V.V.V.C.C.C.V.V.C.C.C.V.B.                      ",
"{ W W W u.J.U.^.}.'.'.W.w.q.r.d.d.d.d.d.d.d.d.d.s.s.d.d.d.d.d.d.d.d.d.h.n.l.c.x.l.c.c.c.c.c.    ",
"^ , - & 6.D.U.^.).'.}.A.6 = 0 M c c M N N N c c c c c g M N N N b c c T j. .#. . .+.o.o.o.o.l.N.",
"/ u y 5 8.J.Y./.`.`. XS.8 + 4 j f f H ;.:.;.H f j f f f V -.:.:.K f s P c.              | o.j.N.",
") g j y 6.J.U./.`.`.}.S.q + 3 j f f K 1.5.,.K f f f f s C ,.5.,.&.s s P n.              | } j.N.",
") g j y 9.J.U./.`.`..XE.q + 3 j f d K 1.5.,.K f f f f f K ,.,.,.&.f f I n.              | } j.N.",
") g s y R P.Y./.`.}.(.M.q + 3 j f d K 1.5.5.K f f f f f K ,.5.5.&.s s I n.              | o.j.N.",
") g f y & E i./.).R.g.M 4 + 3 j f d K 1.5.1.K f f f f d K ,.5.5.&.f s I n.              | o.j.N.",
") g f y * . 7 ~ _ Y s j 4 + 3 j f d K 1.5.5.K f f f f a K >.5.,.%.f s P n.              | } j.N.",
") g f y * + + + $ w j j 4 % 3 j f d K 1.5.,.K d f f f f K 1.5.5.&.f h U n.              | o.j.N.",
") g j y * + + + * e j j 4 + 3 j f d K 1.,.1.K d f f f f K 1.5.,.%.f h U n.              | } j.N.",
") g f y * # # # * e j j 4 + 3 j f d K 1.5.1.K f f f f a H ,.5.5.&.f s I n.              | } l.N.",
") g f y * # # # % e j j 4 + 3 j f d K 1.5.,.K g f f f f K >.5.,.&.f s I n.              | o.j.N.",
") g j y * # # # % e j j 4 + 3 j f d K 1.5.1.K f f f f s K 1.5.5.&.f f I n.              | } j.N.",
") g j u * # # # % e j j 4 % 3 j f d K 1.5.,.K f f f f f H 1.5.1.K s s I n.              | } j.N.",
") g f y * # # # % e f f 4 + 4 j f d K 1.1.1.K f f f f d K >.5.5.&.f s P n.              }  .j.N.",
") g f y * # # # % e j j 9 # 3 f f d K 1.5.,.K f f f f d H 1.5.,.&.s s P n.              |  .j.N.",
") g f y * + + + % e j j 4 + 3 j f d K 1.5.1.K f f f f d K 1.5.5.&.f f I n.              |  .l.N.",
") g f y * + * + % e j j 4 + 3 j f d K 1.5.1.K f f f f d K 1.5.1.&.s s I n.              |  .j.N.",
") g f y % % + + % e j j 4 + 3 j f f K 1.5.,.K f f f f d H ,.5.5.&.f s P n.              | o.j.N.",
") g f y % + * + % e j j 4 + 3 j f f K 1.5.1.K f f f f d K >.5.,.&.s s P n.              | } j.N.",
") g f y * # + + % e j j 4 * 3 f f d K 1.5.1.K f f f f d K 1.5.5.&.f f I n.              | } j.N.",
") g j y * # # # % e j j 4 + 3 f f d K 1.5.1.K f f f f d H 1.5.1.&.s s I n.              | o.j.N.",
") g j t * # # # % e f j 9 # 3 f f d K 1.5.1.K f f f f d K >.5.5.&.f s I n.              | o.j.N.",
") g j t * # # # % e f j 4 # 3 f f d K 1.5.5.K f f f f d H 1.5.,.%.f s P n.              |  .j.N.",
") g j t * # # # % e j j 4 + 3 f f d K 1.5.,.K d f f f d K 1.5.5.&.f h U n.              | } l.N.",
") g j t * # # # * e j j 4 + 3 f f d K 1.,.1.K d f f f d K 1.5.1.%.f h U n.              } } l.N.",
") g j t * # # # * e j j 4 + 4 f f d K 1.1.1.K f f f f f K >.5.,.&.f f I n.              |  .l.N.",
") g j t * # # # * e j j 4 + 3 j f d K 1.5.,.K f f f f f H 1.5.5.&.f f I n.              |  .j.N.",
") g j t * # # # # e f j 9 # 3 j f d K 1.5.1.K f f f f f K 1.5.,.K f s P n.              | } j.N.",
") g j t * # # # * e f f 4 + 3 j f d K 1.5.1.K f f f f d K 1.5.1.&.s f P n.              | } j.N.",
") g j t * # # # * e j j 4 + 4 f f d K 1.5.,.K d f f f d H 1.5.5.&.f s P n.              |  .l.N.",
") g j t * # # # * e j j 4 + 3 j f d K 1.5.1.K f f f f d K >.5.,.&.f f I l.}             |  .j.N.",
") g j t * # # # % e j j 4 + 3 j f f K 1.5.1.K f f f f d K ,.,.5.&.a s I t.} } } } } } } } o.j.N.",
") g j t * # # # % e j j 4 + 3 j f f K 1.5.1.K f f f f d K ,.5.,.&.f s P t.} } } } } } } } } j.N.",
") g j t * + + + % e j j 4 # 3 j f f K 1.,.,.K f f f f d K ,.5.,.%.f j I t. . . .} } } } } } w.  ",
") g j t * + * + % e j j 4 # 3 j f s K 1.5.,.K f f f f a K ,.5.5.&.s s I b.                      ",
") g j t * # + % % e f j 4 # 3 j f f K ,.5.,.K f f f f f K 1.,.,.&.f h P n.                      ",
") g j t * # + + % e f j 4 # 3 j f f K ,.5.1.&.f f f f s K 1.,.,.%.f h U n.                      ",
"^ 1 < > + + + X + : < < ; # 2 p g g c *.*.*.c d s s s a b *.*.*.b f s P n.                      ",
"( Z A Z Z A Z A Z A A A F G L [ ] ] ] ] ] ] ] ` ] ] ] ] ] ] ] ] [ ] ] $.n.                      ",
"}  . . . . . . .}  .} } #.a.a.y.y.y.a.y.y.a.y.a.y.c.y.y.c.l.l.l.l.x.l.l.                        ",
"  } }  .} } } } } } } } } @. . .X.X. . . . .X.X.#. .#.#. . . . . . . . .                        "
};
