/* XPM */
static char *_63c20a16595478584853a78646c24a4XkAtxpP0b89jfrgO[] = {
/* columns rows colors chars-per-pixel */
"64 64 233 2 ",
"   c None",
".  c #F77521",
"X  c #F77621",
"o  c #F77721",
"O  c #F77522",
"+  c #F77622",
"@  c #F77623",
"#  c #F87520",
"$  c #F87621",
"%  c #F77823",
"&  c #F67825",
"*  c #F77825",
"=  c #F77A26",
"-  c #F87922",
";  c #F87923",
":  c #F97F24",
">  c #F27C30",
",  c #F37F33",
"<  c #F47F31",
"1  c #FA8423",
"2  c #F98124",
"3  c #F98225",
"4  c #F98327",
"5  c #F98525",
"6  c #F98526",
"7  c #F98527",
"8  c #FA8526",
"9  c #F98627",
"0  c #FD9E2F",
"q  c #F38034",
"w  c #F28237",
"e  c #F28338",
"r  c #F2853A",
"t  c #F2873D",
"y  c #F58B38",
"u  c #F58E39",
"i  c #F2893D",
"p  c #F2883F",
"a  c #F2913E",
"s  c #FDA02E",
"d  c #FDA02F",
"f  c #FDA030",
"g  c #FDA130",
"h  c #FDA230",
"j  c #FDA132",
"k  c #FDA431",
"l  c #FDA533",
"z  c #FDA434",
"x  c #FDA534",
"c  c #FFAB32",
"v  c #FFAF31",
"b  c #FFAC32",
"n  c #FFAC33",
"m  c #FFAD33",
"M  c #FFAF32",
"N  c #FFAE33",
"B  c #FFAF33",
"V  c #FFAB34",
"C  c #FFAC34",
"Z  c #FFAD34",
"A  c #FFAE34",
"S  c #FFAF34",
"D  c #FFAE35",
"F  c #FFAF35",
"G  c #FFAF36",
"H  c #FFB033",
"J  c #FFB034",
"K  c #FFB035",
"L  c #FFB135",
"P  c #FFB136",
"I  c #FEB139",
"U  c #FFB639",
"Y  c #FFB53A",
"T  c #FFB73A",
"R  c #FFB83B",
"E  c #FFB83C",
"W  c #FFBA3C",
"Q  c #FFBA3D",
"!  c #FFBC3D",
"~  c #FFBC3E",
"^  c #FFBD3E",
"/  c #FFBE3F",
"(  c #EF8C47",
")  c #EB894A",
"_  c #EA8D4B",
"`  c #F08943",
"'  c #F08C41",
"]  c #F08E42",
"[  c #EC994F",
"{  c #EC9950",
"}  c #E69158",
"|  c #F9AB43",
" . c #F9AC44",
".. c #F9AD44",
"X. c #F7AA48",
"o. c #F5AC4D",
"O. c #FFBF40",
"+. c #F8B54A",
"@. c #F8B44B",
"#. c #F8B54B",
"$. c #F8B54C",
"%. c #F8B64C",
"&. c #F6B550",
"*. c #F6B650",
"=. c #F6B651",
"-. c #F6B751",
";. c #F4B858",
":. c #F4B859",
">. c #EFBC68",
",. c #EEBD6C",
"<. c #E7A572",
"1. c #E7A673",
"2. c #E7A674",
"3. c #E6A774",
"4. c #E6A775",
"5. c #E7A775",
"6. c #E6A776",
"7. c #E8A571",
"8. c #E7A874",
"9. c #E7A876",
"0. c #E6A877",
"q. c #E7A877",
"w. c #E8A875",
"e. c #E6A978",
"r. c #E5AB7A",
"t. c #E6AA7A",
"y. c #E6AB7B",
"u. c #E7AB7B",
"i. c #E5AD7C",
"p. c #E4AE7F",
"a. c #E4AF7F",
"s. c #FFD04F",
"d. c #FFD14F",
"f. c #FFD250",
"g. c #FFD452",
"h. c #FFD552",
"j. c #FFD653",
"k. c #FFE05A",
"l. c #FFE15B",
"z. c #FFE25C",
"x. c #FFE45D",
"c. c #FFE55E",
"v. c #F8C677",
"b. c #F7C97D",
"n. c #FFE760",
"m. c #FFE860",
"M. c #FFE861",
"N. c #FFE961",
"B. c #FFEA61",
"V. c #FFEA62",
"C. c #FFEB62",
"Z. c #FFEB63",
"A. c #D6A68C",
"S. c #DDAE89",
"D. c #DCB08C",
"F. c #D3A992",
"G. c #E4B182",
"H. c #E4B283",
"J. c #E3B485",
"K. c #E3B587",
"L. c #E3B687",
"P. c #E3B688",
"I. c #E2B789",
"U. c #E3B98B",
"Y. c #CBB6AF",
"T. c #D3B7A4",
"R. c #D4B7A4",
"E. c #CEBCB0",
"W. c #DFC599",
"Q. c #DFC699",
"!. c #DFC59A",
"~. c #DFC89C",
"^. c #DFC99C",
"/. c #DFC99D",
"(. c #DEC89E",
"). c #DFC89E",
"_. c #DFC99E",
"`. c #DEC99F",
"'. c #DFCA9E",
"]. c #DECA9F",
"[. c #DFCA9F",
"{. c #E0C397",
"}. c #E0C498",
"|. c #E0C499",
" X c #E0C599",
".X c #E0C69A",
"XX c #E0C89A",
"oX c #E0C99A",
"OX c #F4CD94",
"+X c #DECAA0",
"@X c #DFCAA0",
"#X c #DFCBA0",
"$X c #E4C1AB",
"%X c #EFCCB3",
"&X c #EECDB5",
"*X c #EDCDB7",
"=X c #F0CDB0",
"-X c #F1DBB5",
";X c #F2DAB4",
":X c #F1DCB7",
">X c #BFC5D0",
",X c #BFC5D1",
"<X c #BFC6D2",
"1X c #BEC6D3",
"2X c #BFC7D4",
"3X c #BFC8D5",
"4X c #BEC8D7",
"5X c #BDC9D9",
"6X c #BDC9DA",
"7X c #BCCADC",
"8X c #E4DBC5",
"9X c #E4DBC6",
"0X c #E5DCC6",
"qX c #EFE4CF",
"wX c #E7E2D4",
"eX c #E7E3D6",
"rX c #DCE2E8",
"tX c #DCE3EB",
"yX c #E9E9E2",
"uX c #EDEBE2",
"iX c #EBEFF0",
"pX c #EBEFF1",
"aX c #EBF0F1",
"sX c #EBF0F3",
"dX c #EBF1F3",
"fX c #ECF0F0",
"gX c #ECF0F1",
"hX c #ECF0F2",
"jX c #EDF1F2",
"kX c #EBF0F4",
"lX c #EBF1F4",
"zX c #EBF1F5",
"xX c #ECF2F4",
/* pixels */
"    5X5X5X5X5X5X5XrXfXiXiXiXiXiXiXiXiXiXiXiXiXiXiXiXiXiXiXiXiXiXiXiXiXiXiXiXiXiXiXiXiXiXiXiXgX                                  ",
"  5X5X5X5X5X5X5X5XrXgXiXiXiXiXiXiXiXiXiXiXiXiXiXiXiXiXiXiXiXiXiXiXiXiXiXiXiXiXiXiXiXiXiXiXiXiXgX                                ",
"5X5X5X5X5X5X5X5X5XrXgXiXiXiXiXiXiXiXiXiXiXiXiXiXiXiXiXiXiXiXiXiXiXiXiXiXiXiXiXiXiXiXiXiXiXiXiXiXgX                              ",
"5X5X5X5X5X5X5X5X5XrXgXiXiXiXiXiXiXiXiXiXiXiXiXiXiXiXiXiXiXiXiXiXiXiXiXiXiXiXiXiXiXiXiXiXiXiXiXiXgX                              ",
"5X5X5X5X5X5X5X5X5XrXfXiXiXiXiXiXpXiXiXiXiXiXiXpXiXiXiXiXiXiXiXiXiXiXiXiXiXiXiXiXiXiXiXiXiXiXiXiXgX                              ",
"5X5X5X5X7X5X5X5X5XrXfXiXiXiXiXiXaXaXpXpXpXpXpXpXpXpXpXpXpXpXpXpXpXpXpXpXpXpXpXpXpXpXpXpXpXpXpXpXgX                              ",
"T.T.T.T.R.E.5X5X5XrXfXiXiXiXgXyX0X8X8X8X8X8X8X8X8X8X8X8X8X8X8X8X8X8X8X8X8X8X8X8X8X8X8X8X8X8X8X8X0X                              ",
"6.w.q.q.w.S.3X5X5XrXfXiXiXiXaXeX`.`.`.`.`.`.`.+X`.`.`.`.`.`.`.`.`.`.`.`.`.`.`.`.`.`.`.`.`.`.`.`.+X+X                            ",
"q.8.<.<.<.S.3X5X5XrXfXiXiXiXaXwX!.!.!.oXoXoXoXoXoXoXoXoXXXXXXXXX^.oXoXoXXXXXXXoXoXoXoXoXoXoXoX^.`.`.`.`.`.`.`.`.`.).`.`.).).    ",
"<.` q q q } >X5X5XrXfXiXiXiXaX*Xp t p X.#.#.$.$.#.@.#.#.$.$.$.$.#.#.$.#.$.$.$.$.$.@.@.#.$.$.#.>.}.G.p.p.p.p.p.p.p.p.a.a.p.I.+X+X",
"6.u 5 5 1 _ >X5X5XrXfXiXpXpXzX=X4 $ % g H n L S S / / / s.L S S S S S S S S Y O.Y s./ L n S n :. Xu.q.q.q.q.q.q.q.q.q.q.6.J.+X+X",
"8...n n c [ >X5X5XrXfXiXiXaXaX-Xl - % g L L S S Y l.N.N.N.d.G S S S S S S S g.N.c.N.c.Y S L n :.`.                    q.6.J.+X+X",
"8...n L n [ >X5X5XrXfXiXiXiXaX-Xz ; ; g G S G S Y l.N.N.Z.j.I G S G S G S G g.N.N.N.c.W S S S :.XX                    q.6.J.`.+X",
"8...n L n [ >X5X5XrXfXiXiXiXzX-Xz ; * s L G S S Y x.Z.N.Z.j.S S G S G S G S g.V.N.N.c.Y G S S :.#X                    q.6.J.+X+X",
"q...L S n [ 2X5X5XrXfXiXiXpXzX-Xz - % g S G S S Y l.Z.N.V.j.G S S G S G S G g.V.N.Z.c.W S G S :.+X                    q.6.J.+X+X",
"8...S S n a F.3X5XrXiXiXpXzXqXb.z ; % g I S S L Y x.Z.Z.V.j.S G G S G S G S g.N.Z.N.c.W G S S :.$X                    q.6.J.+X+X",
"8...S S S 7 > A.Y.tXgXgXuX-Xv.S l ; % g L S S S Y x.N.N.Z.j.G S S G S G S S g.V.V.V.n.W S S S :.'.                    u.q.J.`.`.",
"8...S S S 7 @ $ ) $X*X&XOXI G S g ; % g S S S G I x.N.N.Z.j.S G G S G S G S g.V.V.N.n.Y S S n :.'.                    w.q.J.'.`.",
"8...n S S 7 @ O % * * * g L S L l - % g I S G S Y x.V.V.Z.j.L S S G S G S G g.V.V.V.n.Y S G S :.#X                    w.q.J.#X+X",
"8...H L S 7 O O O O % % g L S S l - % g S G S G Y x.Z.V.Z.j.L S G S G S G S g.V.V.V.n.Y G S S :.#X                    r.6.J.+X+X",
"6...S S S 7 @ @ % O O % g S G S l ; % g L S G S Y x.N.V.V.j.G S S G S G G S g.V.V.V.n.Y G S S :.'.                    q.6.J.+X+X",
"w...S G G 7 O O O O % % 0 I S L g - % g S S S G I x.V.V.V.j.S G G S G S S G s.V.V.V.n.Y S S S :.'.                    q.6.J.+X+X",
"q...S S L 7 O O O % O * g L S S l - % g I S G S Y x.Z.V.Z.j.G S S G S G S S g.V.V.N.n.Y S S n :.'.                    q.6.J.+X+X",
"8...S S S 7 O O O % O @ g S S I l - * g S G S G Y x.Z.V.Z.j.S G G S G S S S g.V.V.N.n.W S L n :.#X                    q.6.J.+X+X",
"8...n L S 7 @ O O O % * 0 L S S l - * s S S S S Y x.V.V.Z.j.I S S G S G S G s.V.V.V.n.Y G G S :.`.                    q.q.J.`.+X",
"8...S L S 7 @ @ O O O % g S G L s - * g I S S G Y x.V.V.Z.j.S S G S G S G S g.V.V.V.x.Y G S S :.XX                    q.6.J.+X+X",
"6...S S S 7 O O % O O % g L G S l - % s S G G S I x.V.V.V.j.S G S G S G G S g.V.V.V.n.Y S G S :.#X                    q.q.J.+X+X",
"w...S S L 9 O O O O % % 0 I S L l - % l L G S G Y x.V.V.V.j.G S G S G S S S g.V.V.n.n.O.G S S :.+X                    q.6.J.+X+X",
"8...S S S 7 O O O % O % s L S S s - % s L L G S Y x.Z.N.Z.j.S G S G S G G S s.V.V.V.n.Y S L H ;.$X                    q.6.J.`.+X",
"8...S S S 7 O O O O o % 0 L S I l - % s S L S G I x.Z.V.Z.j.G S G S G S S G g.V.V.V.x.Y S L H ;.'.                    q.6.J.+X+X",
"8...n S S 7 @ O % O O % s S S S l - * l L S G S Y x.N.N.Z.j.L S S G S G S G g.V.V.V.n.W S S H ;.#X                    q.q.J.+X+X",
"8...L L G 7 @ O o O % % g L S L d - % d S S S G Y x.N.N.Z.j.L S G S G S G S g.V.V.n.n.Y G S L ;.#X                    q.6.J.+X+X",
"6...S S L 9 O O % O O % 0 L S I g ; % g G S G S I x.Z.V.V.j.S G S G S G S G s.V.V.V.n.Y G G S :.+X                    u.q.J.`.`.",
"w...S G S 9 O O O O % % g S S S l ; % g L G S G Y x.Z.V.V.j.G S G S G S G S g.V.V.V.x.Y S G S :.XX                    w.q.J.#X'.",
"q...S S S 7 O O O % O * g G S L l - % g S G G S Y x.Z.V.Z.j.S G S G S G G S g.V.V.V.n.O.G S S :.+X                    w.q.J.+X+X",
"8...S G S 7 O O O O @ * 0 L S S l - % g I S S G I x.Z.V.Z.j.G S G S G S S S g.V.V.n.x.Y S G S :.$X                    r.6.J.+X+X",
"8...n L S 7 @ O % % o % g L S I g - - g L S G S Y l.N.N.Z.j.I S S G S G G S s.V.V.V.n.Y S S n :.'.                    q.6.J.+X+X",
"8...S L S 7 @ O O O O % 0 L S S l - % g G S S G Y x.Z.Z.Z.j.S S G S G S S G g.V.V.V.n.Y S L n :.'.                    q.6.J.+X+X",
"6...S S S 5 o % O o O % 0 I S I l ; % g L S S S Y x.Z.N.Z.j.S G S G S G S G g.V.V.V.n.O.S S S :.'.                    q.6.J.+X+X",
"w...S S S 5 O O O % O % g S S S g - % g S S S L Y l.Z.Z.V.j.G S G S G S G S g.V.M.n.x.Y S G S :.'.                    q.6.J.+X+X",
"8...S S S 7 @ @ O O % % s L S L l - % s L L S S Y x.N.N.Z.j.S G S G S G S G g.V.V.V.n.Y S G S :.`.                    q.q.J.`.+X",
"8...S S S 7 O O O o o % s S S S l - * g L L S S Y l.N.N.Z.j.G S G S G S G S s.V.V.V.n.Y G S S :.XX                    q.6.J.+X+X",
"8...n S L 7 O O O % O % g L S I l - * g G S G S Y x.Z.V.Z.j.L G S G S G S G g.V.V.V.n.Y S S n :.#X                    q.q.J.+X+X",
"8...L L S 7 O O O % O % 0 L S S s - % s L G S G Y x.Z.V.Z.j.S S G S G S G S g.V.V.V.n.W S S n :.+X                    q.6.J.+X+X",
"q...S G S 7 @ @ % O O % g S S S l ; * g S S S S Y x.N.V.V.j.S G S G S G S G s.V.V.V.n.Y S G S :.$X                    q.6.J.`.+X",
"q...S S S 7 O @ O O % % 0 L S L l - % g I S S G I x.N.V.V.j.G S G S G S G S g.V.V.V.n.W G S S :.'.                    q.6.J.+X+X",
"8...S G S 7 O O O % O * g I S S s - * g G S G S Y x.Z.V.Z.j.S G S G S G S G s.V.V.V.n.Y S G S :.#X                    q.q.J.+X+X",
"8...S S S 7 O O O % O @ g S L L l ; @ g L G S G Y x.Z.V.Z.j.G S G S G S G S g.V.V.V.x.Y G S S :.'.                    q.6.J.+X+X",
"8...n L S 7 @ O O O O % s L S S d - % s L L S G Y x.N.V.Z.j.I G S G S G S S g.V.V.V.n.Y G S S :.'.                    q.6.J.+X+X",
"8...n L S 7 @ @ O O % % g L S L l - % l S S G S Y x.V.V.Z.j.S S G S G S G S g.V.V.V.n.W S S S ;.'.                    u.6.J.+X+X",
"q...L S S 7 O O % % O % 0 L S G l - % g L S S G I x.V.V.V.j.G S S G S G S G g.V.V.V.n.Y G S S ;.}.r.r.q.6.e.6.e.q.q.q.6.6.J.+X+X",
"8...S S L 9 O O O O O % g G S L l - % g S S G S Y x.V.V.V.j.S G G S G S G S g.V.V.V.n.Y V G S :.}.r.q.q.e.6.e.6.q.q.6.e.6.J.+X+X",
"8...S S S 7 O O % O O % g L S S l - % g G S G S Y x.Z.N.Z.j.G S S G S G G S g.V.V.V.n.Y V G S ;.}.u.q.q.6.6.q.q.6.e.q.q.6.J.+X+X",
"8...S S S 7 O O O O % % 0 I S L l - % s L G S G I x.Z.Z.Z.j.S S G S G S S G s.V.V.V.n.Y S G S ;.W.q.q.q.6.e.q.q.e.6.6.q.6.H.+X+X",
"8...n S G 7 @ O O % O * 0 L G S d - @ g S G G S Y x.N.N.Z.j.L S S G S G S S g.V.V.N.n.Y S S S ;.W.r.q.q.e.q.q.q.6.e.q.q.6.u.    ",
"8...H L S 7 @ @ O O O * g S S I l % * g I S S S Y x.N.N.Z.j.L S G S G S S S g.V.V.N.n.W S S S ;.^.                              ",
"q. .S S H 9 O O % O O % s L S L d : O g L L S S I x.Z.N.V.j.S S S G S G S G s.V.Z.N.c.W S S S ;.`.                              ",
"8. .S L S 9 O O % O O O g L S S l % % s L S S L Y x.Z.N.Z.j.S S G S G S G S g.V.N.Z.c.W S S S ;.XX                              ",
"8.| n n V 7 O O o O O O 0 c S V s % % s S L S L Y l.n.n.V.g.S S S S S S S S s.M.c.c.l.W G S S ;.#X                              ",
"<.y 2 3 3 % o o o o o o - 4 4 4 : o % s L n S n H W / W O.Y H H S S S S S S I O./ W / H S S n ;.#X                              ",
"<.( w e e e e e e e e e r q r r r ( a o.-.-.&.-.&.*.*.*.*.-.&.-.&.*.=.=.=.&.&.&.*.*.*.*.-.-.+.v.+X                              ",
"e.6.6.6.6.6.8.6.6.6.6.6.q.8.q.<.r.^.^.`.`.^.`.`.`.`.`.^.^.`.`.^.`.^.`.^.`.`.`.`.'.'.^.^.(.Q.Q.'.$X                              ",
"  q.6.6.q.6.6.q.6.6.e.6.e.6.q.6.r.J.L.J.J.L.J.L.J.J.J.J.L.L.L.J.J.L.J.U.L.J.J.J.L.L.L.L.D.L.L.U.                                ",
"  u.6.6.r.6.6.r.6.6.6.e.6.e.6.6.6.6.6.q.q.q.q.q.q.q.q.q.6.6.6.6.q.q.6.6.q.q.q.q.6.6.6.6.8.8.q.r.                                "
};
