/* XPM */
static char *e3a285c83a074b7fc8ab417a3bc28ff1nHWW1SH66OYmzrwU[] = {
/* columns rows colors chars-per-pixel */
"64 64 224 2 ",
"   c None",
".  c #5D0F0D",
"X  c #5C100D",
"o  c #69120E",
"O  c #75140F",
"+  c #7B1611",
"@  c #771410",
"#  c #671710",
"$  c #443D1B",
"%  c #742716",
"&  c #73321D",
"*  c #4A421E",
"=  c #46401D",
"-  c #564C22",
";  c #504720",
":  c #5C5123",
">  c #685C27",
",  c #645826",
"<  c #7D5D29",
"1  c #765727",
"2  c #7F4827",
"3  c #6F632A",
"4  c #7A6C2C",
"5  c #77652A",
"6  c #776C30",
"7  c #7C7131",
"8  c #831611",
"9  c #8B1913",
"0  c #911914",
"q  c #9C1B15",
"w  c #961713",
"e  c #A41514",
"r  c #AC1615",
"t  c #A41915",
"y  c #AD1A17",
"u  c #B41616",
"i  c #BA1616",
"p  c #B31A17",
"a  c #BB1817",
"s  c #B51E18",
"d  c #BA1C18",
"f  c #9C2317",
"g  c #992719",
"h  c #813A1D",
"j  c #96361E",
"k  c #8F2016",
"l  c #A82A1C",
"z  c #B8271C",
"x  c #AA341E",
"c  c #BB331F",
"v  c #9A3D22",
"b  c #8E3E20",
"n  c #AB3C22",
"m  c #B93A22",
"M  c #D40D15",
"N  c #DC0D15",
"B  c #C21416",
"V  c #CC1316",
"C  c #C51C1A",
"Z  c #CE1A18",
"A  c #CC1718",
"S  c #D41215",
"D  c #DD1416",
"F  c #D61819",
"G  c #CE0D15",
"H  c #E10E16",
"J  c #E11719",
"K  c #C9241B",
"L  c #D2291C",
"P  c #E3221D",
"I  c #D02D22",
"U  c #E33523",
"Y  c #8B4922",
"T  c #924B26",
"R  c #9B4123",
"E  c #815F29",
"W  c #8C5D2B",
"Q  c #9C5D2D",
"!  c #975529",
"~  c #A54725",
"^  c #BC4526",
"/  c #AD5B2D",
"(  c #A0502A",
")  c #BB562B",
"_  c #84622A",
"`  c #8B6629",
"'  c #8E692C",
"]  c #85692F",
"[  c #936C2C",
"{  c #95652E",
"}  c #99712F",
"|  c #96702D",
" . c #9B6A33",
".. c #837633",
"X. c #8A7D36",
"o. c #8A7935",
"O. c #9B7632",
"+. c #957B36",
"@. c #9D7C35",
"#. c #9C7D39",
"$. c #977536",
"%. c #89702F",
"&. c #BA612F",
"*. c #A36331",
"=. c #A77837",
"-. c #B67A37",
";. c #B16530",
":. c #C64B29",
">. c #D5522E",
",. c #E4552F",
"<. c #CF7136",
"1. c #E46E37",
"2. c #DB7046",
"3. c #8F8138",
"4. c #93853A",
"5. c #9C8339",
"6. c #978A3E",
"7. c #9B8D3F",
"8. c #9D8037",
"9. c #A18237",
"0. c #A3853B",
"q. c #A48B3D",
"w. c #AA8C3D",
"e. c #AB8239",
"r. c #B5883C",
"t. c #A8913F",
"y. c #B1953F",
"u. c #C9883D",
"i. c #D7893E",
"p. c #9C8E40",
"a. c #9E9042",
"s. c #A48E41",
"d. c #A88B42",
"f. c #A29543",
"g. c #AC9542",
"h. c #A69945",
"j. c #AB9C46",
"k. c #AD9E49",
"l. c #AC9649",
"z. c #B39541",
"x. c #B49C43",
"c. c #BB9A42",
"v. c #B49C4B",
"b. c #B19749",
"n. c #AFA14C",
"m. c #BCA145",
"M. c #B3A44B",
"N. c #B7A84D",
"B. c #BCAC4C",
"V. c #B7A449",
"C. c #BFB04E",
"Z. c #BBAD52",
"A. c #B2A652",
"S. c #BBB35C",
"D. c #C39A47",
"F. c #D09042",
"G. c #E69B44",
"H. c #C0A546",
"J. c #C4AC4A",
"K. c #CCAC49",
"L. c #C1B14E",
"P. c #CCB44C",
"I. c #CFB84E",
"U. c #D2BA4E",
"Y. c #D6B44D",
"T. c #C0AB53",
"R. c #C5B451",
"E. c #C9B751",
"W. c #CCBA52",
"Q. c #CBBB5B",
"!. c #C6B45B",
"~. c #D2BE52",
"^. c #DBBE50",
"/. c #D7AF4C",
"(. c #EBA94B",
"). c #E7BB53",
"_. c #E1AE50",
"`. c #CEBD62",
"'. c #D4C254",
"]. c #DAC656",
"[. c #DECA59",
"{. c #D8C659",
"}. c #E4CB56",
"|. c #E2CD5A",
" X c #E7C855",
".X c #F1CD58",
"XX c #E5D15B",
"oX c #EAD55C",
"OX c #EDD95E",
"+X c #F2D45B",
"@X c #F3DB5E",
"#X c #D4C665",
"$X c #D9CB68",
"%X c #DED16D",
"&X c #DDD167",
"*X c #D4CB6B",
"=X c #EEDB61",
"-X c #EBD96B",
";X c #F2DE60",
":X c #E6DC73",
">X c #EFE167",
",X c #F5E363",
"<X c #F9E563",
"1X c #FBEA65",
"2X c #FAED6B",
"3X c #F7E966",
"4X c #F9F06E",
"5X c #EDE373",
"6X c #EBE37A",
"7X c #FAEF73",
"8X c #F5EE7C",
"9X c #F8EF79",
"0X c #F3E874",
"qX c #FAF075",
"wX c #F7F07D",
"eX c #F9F17A",
"rX c #F5EF81",
"tX c #F5EF8B",
"yX c #F6F082",
"uX c #F5F08D",
"iX c #F5EF91",
"pX c #F5F093",
"aX c #F6F099",
"sX c #ECE685",
/* pixels */
"                                                                                                                                ",
"                                                                                                                                ",
"                                                                                                                                ",
"                                                                                pX#Xn.6.      #XZ.                              ",
"                                                                          aXpXpXsX'.3.3.A.sX8XS.f.M.                            ",
"                                                                      aXuXtXrXyX8XS.3 7 4.S.%X6.6 o.h.                          ",
"                                                                  pXuXrXrX9XeX9XqX'.5 5 7 6.n.3.4 ..3.j.                        ",
"                                                                uXyXeXqXqXqX7XeXeXXX..3 4 7 7 4 7 X.3.f.                        ",
"                                                              yX7X2X2X2X4X4X4X4XqX5X4.- : , 3 4 ..X.4.h.M.                      ",
"                                                            9X2X3X1X3X2X1X4X4X4X4X4Xh.= * : , 3 ..X.4.h.M.                      ",
"                                                          9X1X;X;X<X3X1X4X4X4X2X4X4XS.: * - , 3 7 X.4.f.V.                      ",
"                                                          ,X@X@X,X3X1X1X1X2X1X1X3X4X{.7 = * : 3 6 ..X.6.M.Z.                    ",
"                                                        ,XoXoX;X1X1X1X1X1X<X,X@X;XOXXXj.- = - : 3 7 o.4.k.Z.                    ",
"                                                        @XoX;X<X<X<X<X@X@X@XoX.X}.}.}.P.3.= * : > 4 ..4.k.Z.                    ",
"                                                        +X@X,X,X@XoXoX X}.}.].].'.'.U.I.M.3 * : > 4 X.6.Z.'.                    ",
"                                                      -X@X@X@XoX}.}.].].'.U.P.P.P.P.K.J.B.j.6.7 X.4.f.B.{.{.                    ",
"                                                      -X;X@X}.}.'.U.I.Y.P.P.K.J.H.m.c.x.y.g.V.B.V.f.4.j.E.W.                    ",
"                                                      -X|.}.U.P.P.K.J.J.H.m.y.y.t.w.0.9.9.9.5.q.q.f.6.t.J.R.                    ",
"                                                        ^./.K.B.H.m.y.y.w.9.@.O.O.} O.O.O.@.@.#.5.7.7.t.J.Z.                    ",
"                                                      P >.<.<.-.e.@.O.| [ [ { { [ | [ } O.O.@.#.8.5.y.C.~.Z.                    ",
"                                                      D M N D F z g % % % % & 2 W { { { [ O.O.O.@.@.0.N.R.A.                    ",
"                                                      2.V G M S B r 8 O 9 8 o . .            .$.@.O.#.s.k.                      ",
"                                                iXtXyX0X_.<.:.I m x b b y y f % # # X                                           ",
"                                            iXuXtXrXrX9X7X;X+X XY./.K.i.K r a l & 9 8 + +                                       ",
"                                        iXpXtXtXrXrX8XqX7X1X<X@X.X X^.i.S t f B j b f q 0 8                                     ",
"                                      iXuXuXrXrXrXwX9XqX7X1X1X<X@X.X Xi.F y h z i ~ ( p u e 8 O                                 ",
"                                  iXiXtXrXrXyX8XrX9XeXqXqX7X1X1X<X@X.Xi.D a Y ;.Z s Q / z i r 0 +                               ",
"                                iXuXtXrXrXrXrXrXrX8XeXqXeX7X7X1X1X@X+XG.D B ! e.:.V l @./ s i u 0 +                             ",
"                              pXuXrXrXrXrXrXrXrXrXrX8X9XqXqXqX2X1X<X@XG.P V ! r.-.L B ~ s.&.s p i 0 + 9                         ",
"                            tXtXrXyX8XyXyXrXrXrXrXrXrXrX8XqXqX7X1X1X<X(.P S ~ y.c.) S s *.z.) s i d v 0 r                       ",
"                          tXrXrXrXrXrXrXrX8XrXrXrXrXrX`.b.5XqXqX1X1X<X XU N m m.K.r.L G l =.z.I r i z v p                       ",
"                        tXrXrXrXrXrXrXrXrXrXrXyXrXyX$X$.[ $XeXqXqX1X<X.XU H z r.Y.D.) D B ~ d.z.m r i z a C                     ",
"                      tXrXrXrX9X8X8X8X8X8XrXyXrXtX:Xd.' [ !.eXeXqX4X1X@X,.H Z -./.K.r.L F l *.y.-.z r i B C                     ",
"                      rXrXeX8X9XwXwXrXrXrXrXrXwX6Xv.' ' ' v.rX9XqXqX1X,X1.J M / K.^.u.:.N B j w.m.&.p e u z D.                  ",
"                    rX8X9X9X9X9X9X8XrXrXrXyXyXyX`.[ ' [ ' =.:X9XqXqX1X<X(.J N A :.<.u.&.H S r { m.y.m r g  .T.                  ",
"                    8X9XqXqXqXqXwX8XrXrXyXyXyX%X@.[ [ ' ' $.:XeXqXqXqX1X+X1.H M V C K K S S i g w.y.-.s g =.N.!.                ",
"                    eX7X2X7XqXqXwX8XrX6X5X-X#Xw.[ [ | [ [ ' !.yXeXqX7X1X;X).>.K V V V V V Z u 9 *.y.x.^ r ! k.!.                ",
"                  7X2X2X2X2X4X7X$XB.v.d.9.} | [ [ [ | [ [ ` @.!.&X0XqX2X1X;X].D./ ~ l l l g k w R t.x.-.p f d.N.                ",
"                  2X1X1X1X2X7X0Xd.' [ ' [ [ | [ | [ [ | [ [ ` ` ' 5.v.~.XX,X@X|.'.B.y.5.O.%.v r l @.t.t.m e *.v.Z.              ",
"                  2X1X1X1X2X2XqXZ.[ ' [ [ | [ | [ | [ [ [ [ [ [ ` _ E 4 ' 0.].oXXX[.'.W.L.B.=.C t Q 7.t./ r v l.A.              ",
"                  3X1X1X1X1X2XqX5Xb.' ' [ [ [ | | [ | [ [ [ ` ` ` ` E E 5 E J.OXXX[.].'.E.R.x.c r R p.p.=.p w 0.A.              ",
"                  <X<X<X1X1X2XqX9X:Xd.' [ [ | [ [ [ [ | [ [ [ ` ` _ _ < %.N.OXoXXX}.].'.'.E.N.) i g +.p.#.n w  .A.              ",
"                  <X,X<X1X1X1X7X7X9X:X0.` [ [ | [ [ [ [ [ [ ` ` _ _ _ 0.'.,XOXOXXX[.[.'.W.E.C.;.i q  .p.p.R e R k.              ",
"                  ,X,X,X1X1X1X7X7X9XeX#X[ [ [ [ [ [ [ [ ` ` ` ` ` +.P.>X3X,XOXoXXX}.[.'.'.W.L.-.d q W p.p.T e b l.              ",
"                  ,X;X<X<X<X1X2XqXqXeXQ.` ` [ [ [ [ { [ ` ` ` ` t.=X3X3X>X;XOXXXXX[.].'.W.R.L.w.z e T p.p.W w j d.              ",
"                  ;X;X;X,X<X1X1X2XqXqXl.` ` ` ` ` ` ` ` ` ` _ E J.3X,X3X,X=XOXXX[.[.'.'.W.L.L.g.m e Y 6.p.' 0 v g.              ",
"                  =X;X;X@X;X<X1X3X2X-X+.E ` ` ` ` ` ` ` ` _ _ E j.3X,X,X;XOXoXXX[.].'.'.W.R.C.j.m e T p.p.o.b Q                 ",
"                    OX@X;X;X@X<X1X2X=X' E _ _ _ E _ _ _ _ _ E < #.>X,X;XOXoXXX[.[.{.'.W.R.L.B.n.~ q W 6.6.6.4.p.                ",
"                    OXOXOX=X=X@X,X3XE._ < < 5 ` q.x.$.< E < < < ] |.,XOXXXXX}.[.{.'.'.W.R.C.N.j. .v +.6.p.p.4.                  ",
"                      XXoX=X=XOX@X,Xm.< E 5 5.W.;X,X[.5.< < < 1 5 I.OXXXXXXX[.].'.'.E.R.C.B.A.k.p.#.p.p.p.p.p.                  ",
"                      XXXXXX|.oXoX@Xx.1 [ J.=X,X,X,X,XOXV.4 1 1 1 x.OXXX|.[.].{.'.W.R.L.B.N.n.j.f.f.a.f.f.f.                    ",
"                        |.XXXX|.XXXXW.x.{.;X=X>X=X=X;X>XOX'.+.1 1 8.XX[.[.].'.'.W.R.L.B.V.n.j.f.f.f.f.f.f.f.                    ",
"                          }.|.|.|.|.XXXXXXXXXXoXoXOXXXoXXXOX[.j._ +.].[.'.'.'.W.R.C.B.N.n.j.h.h.f.f.f.h.f.                      ",
"                          [.{.[.[.[.].[.[.|.|.|.|.|.|.|.|.|.|.[.E.W.{.'.'.W.L.R.C.B.N.n.k.j.f.f.f.h.f.f.                        ",
"                              ].{.].].].[.].].].].].].].'.'.'.'.{.'.W.W.E.R.C.B.N.V.n.j.j.j.j.h.j.j.h.                          ",
"                                '.W.'.'.'.'.'.'.'.'.'.'.'.'.'.W.E.R.P.L.L.B.N.V.M.j.j.j.j.j.j.j.j.h.                            ",
"                                    E.E.W.W.W.W.E.E.E.R.R.E.R.R.C.C.B.B.N.V.M.j.j.j.j.j.j.j.j.j.                                ",
"                                        L.R.L.L.R.L.R.R.C.B.B.B.N.N.M.M.n.k.j.j.j.k.j.j.j.j.                                    ",
"                                            N.N.M.B.N.M.N.M.M.M.M.V.M.n.j.k.j.n.k.k.k.                                          ",
"                                                      k.M.M.M.M.M.A.M.k.A.A.                                                    ",
"                                                                                                                                ",
"                                                                                                                                ",
"                                                                                                                                ",
"                                                                                                                                "
};
