/* XPM */
static char *_7408db8c3934b82fbc6e40db43eae77egXDBGg1S1XgzMk2[] = {
/* columns rows colors chars-per-pixel */
"64 64 146 2 ",
"   c #553F27",
".  c #573D28",
"X  c #5A3D29",
"o  c #185E13",
"O  c #34591E",
"+  c #07670E",
"@  c #0B650F",
"#  c #016B0C",
"$  c #096F0F",
"%  c #02730E",
"&  c #037D0F",
"*  c #0D6310",
"=  c #0C6D11",
"-  c #126112",
";  c #176F15",
":  c #1C6B17",
">  c #067210",
",  c #0E7712",
"<  c #057D10",
"1  c #0A7A11",
"2  c #137414",
"3  c #1A7717",
"4  c #137815",
"5  c #1F7419",
"6  c #1B7B19",
"7  c #236919",
"8  c #21741A",
"9  c #3F4C21",
"0  c #3C5320",
"q  c #376320",
"w  c #3B6223",
"e  c #4C4425",
"r  c #454C23",
"t  c #4B4C25",
"y  c #4F462A",
"u  c #4D482B",
"i  c #524227",
"p  c #564128",
"a  c #5E412C",
"s  c #544F2A",
"d  c #445323",
"f  c #495225",
"g  c #415924",
"h  c #5C4332",
"j  c #5F4837",
"k  c #62442E",
"l  c #664630",
"z  c #654832",
"x  c #6A4B33",
"c  c #714F36",
"v  c #655632",
"b  c #735137",
"n  c #765339",
"m  c #79553A",
"M  c #7E593C",
"N  c #456026",
"B  c #666334",
"V  c #706338",
"C  c #755741",
"Z  c #755843",
"A  c #7A5B44",
"S  c #7C5E48",
"D  c #7D604A",
"F  c #656059",
"G  c #6A635E",
"H  c #6A6662",
"J  c #6D6864",
"K  c #6C6C6C",
"L  c #746B64",
"P  c #706C6A",
"I  c #815B3E",
"U  c #80643F",
"Y  c #855E41",
"T  c #876041",
"R  c #8D6545",
"E  c #836148",
"W  c #8E6A4D",
"Q  c #906747",
"!  c #916847",
"~  c #956B4A",
"^  c #9A6E4C",
"/  c #9D714D",
"(  c #946F50",
")  c #947154",
"_  c #9B7455",
"`  c #A1734F",
"'  c #A57651",
"]  c #A77853",
"[  c #AC7C55",
"{  c #B07E57",
"}  c #B17F58",
"|  c #83766C",
" . c #85786E",
".. c #847B73",
"X. c #857F7B",
"o. c #897F78",
"O. c #03800F",
"+. c #038410",
"@. c #0B8614",
"#. c #048911",
"$. c #048C11",
"%. c #078C13",
"&. c #048E12",
"*. c #048F12",
"=. c #058F12",
"-. c #098B13",
";. c #098E14",
":. c #19871A",
">. c #1B8D1B",
",. c #1D8B1C",
"<. c #039012",
"1. c #049012",
"2. c #049112",
"3. c #059613",
"4. c #059713",
"5. c #059614",
"6. c #069614",
"7. c #099315",
"8. c #0C9716",
"9. c #069B15",
"0. c #069E15",
"q. c #0A9E17",
"w. c #0E9F19",
"e. c #149619",
"r. c #19901B",
"t. c #25871F",
"y. c #06A216",
"u. c #07A316",
"i. c #07A416",
"p. c #07A717",
"a. c #07A817",
"s. c #06A917",
"d. c #05AB17",
"f. c #0BA118",
"g. c #0AA318",
"h. c #0CA118",
"j. c #0CA218",
"k. c #11A11A",
"l. c #B4825A",
"z. c #B9855C",
"x. c #86817E",
"c. c #89837F",
"v. c #868583",
"b. c #888684",
"n. c #878788",
"m. c #878888",
/* pixels */
"p.p.p.p.#.& & O.% # # # +.1.&.&.0.i.a.i.% # # # 4.a.a.f.% # # # #.1.&.$.# # # # 9.a.p.p.p.p.p.y.% # # # &.&.&.1.f.a.p.0.# # # # ",
"p.p.p.p.#.& & & # # # # +.&.&.1.f.p.p.i.% # # # 4.a.a.i.% # # # #.1.1.$.% # # # 9.a.p.p.p.p.p.p.% # # # #.1.1.1.p.a.p.0.% # # # ",
"p.p.p.p.#.& & & % # # # +.1.1.&.0.p.p.p.% # # # 4.a.p.u.% # # # O.<.&.&.% # # # 9.p.p.p.p.p.p.f.% # # % #.&.1.1.p.p.p.0.# # # # ",
"p.y.p.y.#.& O.& % # # # +.1.&.&.q.p.p.a.& # + # 4.a.p.u.% # # # $.<.1.&.% # # % 4.p.p.f.p.p.p.9.% # # % &.1.1.1.y.p.p.0.% # # # ",
"< & & & &.9.9.9.& # # # % % % % 1.4.4.7.O r r 9 >.a.p.y.% # # # 4.p.0.4.O.O.$.O.& & & & &.4.5.5.4.5.4.4.& +.+.+.4.4.4.4.4.4.4.4.",
"# # # # 5.a.a.p.& # # # # # # # O.&.1.%.r X X p >.a.p.y.% # # % 9.a.a.p.4.<.<.<.% # # # #.1.1.1.p.p.p.y.+.& & O.&.&.&.1.p.p.p.p.",
"# # # # 5.a.p.p.< # # # # # # # #.1.&.-.r X X . >.a.p.y.% # # # 4.p.p.p.4.&.<.&.% # # # &.&.&.1.y.p.p.y.+.& & O.&.&.&.4.p.p.p.p.",
"# # # # 7.j.j.w.& # # # # # # # O.&.#.-.r X X p >.a.p.y.% + + + 5.p.y.p.<.1.1.&.% # # % #.&.&.&.q.f.f.q.O.& & & #.&.&.&.q.j.j.q.",
"#.#.#.O.O f f f 3 +.+.#.< & & % 4.f.p.q.f   X p 6 4.7.%.O e e r 2 +.#.#.0.y.y.0.&.#.&.O.+.+.< < O t f g = # # # & +.+., g f r f ",
"&.1.&.1.f X X . 5 &.&.&.+.< & & 9.a.p.q.f   . X 6 1.&.@.e X X   ; < < +.y.a.p.p.1.&.<.&.O.< & < i X X i @ # # # & & & 2 i X X X ",
"&.&.&.&.d X . . 5 1.&.&.+.& & +.9.a.p.j.f X X   6 1.&.-.t X X p ; & < +.y.a.a.a.4.&.&.1.+.< < 1 t X X e @ # # # & & & , i X X X ",
";.;.%.%.g p p p 8 &.&.-.+.< < & 8.p.p.f.f . X . 3 1.-.@.t X . p 2 +.& +.q.g.f.f.1.&.&.#.< < < , e X X e @ # @ # > < < 2 p X X X ",
"d r d d t.,.,.>.q r d d r r r r 4 #.#.O.r X X   t d d t p X . p :.9.9.8.w g d g = % % $ 0 r r r c b c x t r r e r r r t c c c c ",
"X X X X >.a.a.a.g X X X X X X X : & & 1 e X X X X X X X X X X p >.p.p.w.y X X . - # # @ e X X . b m m n X X X X X X X a m m m m ",
". X X   ,.a.a.p.g p X X X p X X : O.& 1 r X   X X X X X . . . p r.a.a.j.t X X p - # # * e X X a b m m b X X X X X X X a b m m m ",
"k a a k t.k.k.k.g k a a k a k a 7 1 1 2 t a k a a a X X a . a p ,.f.f.e.t X X p o + + - i h a a b m m n l a a k p X p a b m m m ",
"R R R R V B B B T R R R / [ ] ] v r e y U R R R m n b n c n c b s t f r p X X X e e e u F H H G Z m m m R R R I k X X a n m m m ",
"~ ~ ~ ~ I m m m R ^ ~ ^ l.z.z.z.n X X X T ^ ~ ~ I m m m m m m m k X X X X X X X X X . a H K K K Z m m M ~ ~ ~ Q k X X a n m m m ",
"~ ~ ~ ~ I m m m R ~ ~ ^ l.z.z.z.n . X X U ~ ~ ~ I m m m m m m m k X X X X X X X X . X h H K K J m m m M ~ ~ ~ Q k X X k n m m m ",
"~ ~ ~ ~ I b m m R ~ ~ ^ [ l.l.l.n . X k Q ~ ~ ~ M n n n n n n n k X X X X X X X X X X h H K K J Z m m M ! ~ ! R k X X k m M m M ",
"I m I I k k k a Y ~ ~ ~ ^ ^ ' ^ M c c n Q ~ ^ ~ x a k k k a k a X X X X x b b c b b c c z h j j b m m m M V I I b b b M ' [ [ [ ",
"m m m b k X X X Y ~ ~ ~ ^ ~ ~ ~ I m m m Q ~ ~ ~ x X X X X X X X X X X X b m m m m m m n k . . X b m m m m I m m m m n I l.z.z.z.",
"m m m m k X X X I ^ ~ ~ ~ ~ ~ ~ I m m M Q ~ ~ ~ x X . X . . X X X X X X b m m m m m m n a . . a b m m m m m m m m m m I l.z.z.z.",
"I M I I z X a X I ~ ~ ! ~ ~ ! ! S M A M Q ~ ! Q x X X a k k k k k k k l n m m m M M I m l k k k n m m n M M m m m m m I { z.l.l.",
"{ { { { I m m b m I m I m M M M | x.x...D M M M n b b m ` [ [ [ [ [ [ ' I m m m ' l.{ [ [ [ [ ' I m m m Q ! ! Q M n m M / / / / ",
"l.z.z.l.I m m m m m m m m m m m  .m.m.v.D m m m m m m M { z.z.z.z.z.z.l.Y m m M [ z.z.z.z.z.z.l.I m m M ! ~ ^ ! M m m M ! ~ ~ ~ ",
"z.z.z.l.! m m m m m m m m m m m ..m.m.v.D m m m m m m m [ z.z.z.z.z.z.l.Y m m m [ z.z.z.z.z.z.l.I m m M ~ ~ ~ ~ M m m M ~ ~ ~ ~ ",
"l.l.l.l.I b m m m m I m M M M M  .b.v.c.D m m M m m m M [ l.l.l.z.l.z.{ M n m m [ l.z.l.z.l.z.{ I m m M Q ~ ~ Q M m m I ~ ~ ~ ~ ",
"I I I I I m m m ^ { { { [ [ } { _ ) ) ) ! ! ! ! M m m m I I I T ~ / / ^ l a a z ! / / / / / ^ ^ I m m m M M M M Q ! ! ~ ~ ~ ~ ~ ",
"m I m m m m m m ' z.z.z.z.z.z.z./ ~ ~ ^ ~ ~ ~ ~ I m m m m m m m ! ~ ~ ! k X X X R ~ ~ ~ ~ ^ ~ ~ M m m m m m m M ! ~ ~ ~ ~ ~ ~ ^ ",
"m m m m m m m m ' z.z.z.z.z.z.z.` ~ ~ ~ ~ ^ ~ ~ M m m m m m m m ! ~ ~ ! k X X a T ^ ~ ~ ~ ~ ~ ~ M m m m m m m M ! ~ ~ ~ ~ ~ ~ ~ ",
"M M m M m m m m ` { { l.{ } l.} / ! ~ ! ~ ~ ~ ~ I m m m n n n n R ! ! R x a k k R ~ ^ ~ ~ ! ! Q M m m m m m m m R ! R Q ~ ~ ! ~ ",
"~ ! ~ ! Y m m m M I I I ~ ^ ^ ^ I M m I ~ ~ ~ ~ M m m m k a a k m m M M R ! ! R ~ ~ ~ ~ M M m M m m m m m m m m k k k k M m M M ",
"~ ~ ~ ~ M m m m m m m m Q ~ ^ ~ I m m M Q ~ ~ ~ I m m n k X . X b m m m ! ~ ~ ~ ~ ^ ~ ~ M m m m m m m m m m m b a X X a m m m m ",
"~ ~ ~ ~ I m m m m m m m Q ~ ~ ~ I m m m Q ~ ~ ~ I m m m a X X X b m m m ! ~ ~ ~ ~ ~ ~ ~ M m m m m m m m b m M c a X X a b m m m ",
"~ ~ ! ! Y m m M m n n n R ~ ! Q I m m m R ! ! Q M c n n k X X X b m m m W ! ~ ~ ! ~ ! R m m m m M M M M I M I M k X X k m m M m ",
"M M M M R ! ! ! x X k k m M M M M m m n l k k k k X k k c n c n n m m m M M M M M M M M m m m m ' { { { { { } [ M b b m Q ! ! ! ",
"m m m m R ^ ~ ~ x X X X c m m m m m m m a X . X X X X . c m m m m m m m m m m m m m m m m m m I { z.z.z.z.l.z.} Y n m M ! ~ ~ ~ ",
"m m m m R ~ ~ ~ x X X X c m m M m m n n k X X X X X X X c m m m m m m m m m m n m m m m m m m A { z.z.z.z.z.z.} Y n m M ~ ~ ~ ~ ",
"m m m m R ^ ~ ~ c k X a M I I I I I I I l a a a k l l l m M M M n b b n I I I I I I I I m c n m ] l.l.} l.l.l.{ E Z A Y ! ~ ! ~ ",
"m m m M R ~ ~ ~ I m c m ` } } } { l.l.{ I n n m ` } { { ^ ~ ~ Q x p X l ' l.} } } z.} ] l X X a R ^ ^ ^ ^ ^ ^ ( o.v.c...A m M M ",
"m m m m R ~ ~ ~ I m m M [ z.z.z.z.z.z.l.Y M m m [ z.z.l.^ ~ ~ Q l . X k ] z.z.z.z.z.z.{ l X X l R ^ ~ ^ ! ^ ~ ( c.n.n.X.A m m m ",
"m m m m Q ~ ~ ^ I m m m [ z.z.z.l.z.z.l.I m m m ] z.z.l.` ~ ^ ~ l . X k [ z.z.z.z.z.z.{ l X X a R ~ ^ ! ^ ~ ~ ^ c.n.n.X.A m m m ",
"M m M m R ! ~ ~ I m m M ] } l.l.l.l.l.l.Y I I I ' l.} { ^ ~ ~ ~ z a h z [ l.} z.} z.} [ x X X a T R Q Q ~ ~ ~ ^ ..v.v...m n n c ",
"! ! ~ Q Y M M M m m m m ~ ^ ^ ^ ^ ^ ^ ^ { } } { Q A I I W ~ ^ ~ L H H J ~ ^ ^ ^ ^ ^ ^ ~ M n n n z a k x Q ~ ~ ~ A A A A a X a a ",
"~ ~ ~ ~ I m n m m m m m Q ^ ~ ^ ~ ~ ^ ~ } z.z.l.Y n m m ! ~ ~ ~ L K K P W ^ ~ ^ ~ ~ ~ ~ M m m n a . . a Q ~ ~ ~ I m m n X X X X ",
"~ ^ ~ ~ I m m m b m m m Q ~ ~ ~ ^ ~ ~ ^ } z.z.z.R n n m ! ^ ~ ~ L K K P W ~ ~ ~ ~ ~ ~ ! M m m n a X X k Q ~ ~ ~ m m m c X X X X ",
"! Q Q Q M n c c m I M I R ! ! ! ~ ~ ~ ^ { l.} } R Y Y Y Q Q ! Q L J J L W W ! ! ~ ! ! ! m m m n k a a l R ! ! ! I I Y I x l x l ",
"M M m m l p X a I ~ ~ ! I m M M Q ~ ~ ~ ^ ^ ^ / [ } } } Y m m M M m m m M m m m m m M m m m m m n n n m m m M I [ } l.l.} } } } ",
"m m m m k X X X I ^ ~ ~ I m m m Q ~ ~ ~ ~ ~ ~ ~ { z.z.z.Y m m m m m m m m m m m m m m m m m m m m m m m m m m M { z.z.z.z.z.z.z.",
"m m m m k X X X I ~ ~ ~ M m m m Q ^ ^ ~ ~ ^ ~ ^ } z.z.} Y m m m m m m m m m m m m m m n m n m m m m m m m m m I { z.l.z.z.z.z.z.",
"m m m n k k k k I ~ ~ ! I m m m Y ! W W ! ! ! ~ [ } z.} Y M M M m m m m b n n n M I I I n n n n n m m m I I I U [ l.l.l.l.l.l.l.",
"m m m m T Q R Q I m M M m m m m Z Z Z A m M m M ! / / ^ ~ ! ~ ! M m m m k X a k ` l.l.] l X X k n m m M [ { l.{ / ^ ^ ^ ^ ^ ^ ^ ",
"m m m m Q ~ ~ ^ I m m m m m m m C Z Z Z m m m M ! ~ ~ ~ ~ ~ ~ ~ M m m b k X . k ' z.z.{ l X X X c m m I } z.z.l.^ ~ ^ ~ ~ ^ ~ ~ ",
"m m m m R ~ ~ ~ I m M m m M n m Z Z Z Z m m m m Q ~ ~ ~ ~ ~ ~ ~ A m m b X X . a ] z.z.{ l X X X n m n I l.z.z.l./ ~ ^ ~ ~ ^ ^ ~ ",
"M M M I R Q Q Q M c c c I Y I I Z Z Z Z b b c n Y ! ! ! Q R Q Y Y Y Y Y c x x c ` [ [ ' c k l l n m m I ' [ [ [ ^ ~ ~ ~ ~ ~ ~ ~ ",
"~ ~ ~ ! Y m m m k X X a ` l.l.l.T m m n k X X k c m M m k X a k ' l.l.l.l.l.l.[ Y I M M Q Q ! ! M m m m M M M M ! ^ ~ ~ ~ ~ ~ ~ ",
"~ ~ ~ ~ I m m m k X X k ` z.z.z.R n m m k . X X c m m n k X X a ' z.z.z.z.z.z.l.I m m M ! ~ ~ ~ M m m m m m m M ! ~ ~ ^ ^ ~ ~ ^ ",
"~ ^ ~ ~ I n m m k X X X ' z.z.z.R m m n k . . X c m n n a X X X ' z.z.z.z.z.z.l.I M m m ! ~ ~ ~ M m m m m m m m ! ~ ^ ~ ~ ^ ~ ~ ",
"~ ~ ~ ~ I m m m c l l x ` l.} } R M M m k k k X m A S A z a a k / l.l.l.l.l.l.} I m m M Q Q ! ! I M M M M M M I Q ! ! Q R R R R ",
"~ ~ ~ ~ I m m m ' } } } ` ~ ^ ^ ~ ~ ~ W A n n m | v.v.X.A n n m Q ^ ^ ^ ^ ^ ^ ~ M m m m M m M M R ~ ! ~ ! ~ ! ! I m m m k a a a ",
"~ ^ ~ ~ I m m n ' z.z.l.` ~ ~ ~ ~ ^ ~ ~ M m m m ..n.v.v.S n m m Q ~ ~ ~ ~ ~ ^ ! I m m m m m m M Q ~ ~ ~ ^ ~ ~ ~ M m m b X X X X ",
"~ ~ ~ ~ I m m m ' z.z.z.' ~ ~ ~ ~ ~ ~ ~ M m m m ..m.n.v.S m m m Q ~ ! ^ ^ ! ~ ! M m m n m m m m ! ~ ~ ^ ~ ~ ~ ! M m m n X X X X ",
"~ ^ ~ ~ I m m m ' z.z.z.^ ~ ~ ^ ~ ~ ~ ~ M m m m ..m.v.v.S m m m W ~ ^ ^ ! ^ ~ ^ M m m m m m m M ! ~ ~ ~ ~ ^ ~ ! M m m n X X X X "
};
