/* XPM */
static char *_4c7e6a7df354186defa32d1a11328baEvxcwQOmdegS3GDt[] = {
/* columns rows colors chars-per-pixel */
"64 64 164 2 ",
"   c #34241A",
".  c #38271C",
"X  c #3D2B1E",
"o  c #3F2C20",
"O  c #412E20",
"+  c #453122",
"@  c #4B3525",
"#  c #4F3827",
"$  c #4F3928",
"%  c #503A27",
"&  c #533B29",
"*  c #593E2C",
"=  c #2E5315",
"-  c #305717",
";  c #315917",
":  c #325719",
">  c #365C1D",
",  c #356119",
"<  c #38641B",
"1  c #3C6C1C",
"2  c #395E21",
"3  c #3B6222",
"4  c #3F6823",
"5  c #41761F",
"6  c #57432B",
"7  c #5D422E",
"8  c #42403F",
"9  c #60432F",
"0  c #634632",
"q  c #664832",
"w  c #6C4C35",
"e  c #6F4E38",
"r  c #714F37",
"t  c #704F38",
"y  c #6A5134",
"u  c #74523A",
"i  c #79563C",
"p  c #765A3A",
"a  c #7C583D",
"s  c #426E25",
"d  c #416629",
"f  c #446B2A",
"g  c #447226",
"h  c #457D21",
"j  c #46712A",
"k  c #49742E",
"l  c #4A7A2B",
"z  c #496E31",
"x  c #4D7433",
"c  c #517D35",
"v  c #5B7A3C",
"b  c #7D603E",
"n  c gray27",
"m  c #56514C",
"M  c #535353",
"N  c #5A5A5A",
"B  c #7F5B40",
"V  c #5E7B41",
"C  c #626262",
"Z  c #6E6D6D",
"A  c #736B64",
"S  c #716F6D",
"D  c #727272",
"F  c #797572",
"G  c #7C7C7C",
"H  c #805B3F",
"J  c #80633F",
"K  c #855F42",
"L  c #866043",
"P  c #896245",
"I  c #8A6A45",
"U  c #906747",
"Y  c #916F47",
"T  c #916748",
"R  c #966C4B",
"E  c #996E4C",
"W  c #947249",
"Q  c #9E734E",
"!  c #9D794F",
"~  c #A0724F",
"^  c #A37451",
"/  c #A67F52",
"(  c #A97954",
")  c #847C75",
"_  c #857D76",
"`  c #478122",
"'  c #488122",
"]  c #4D8B24",
"[  c #4E822C",
"{  c #51862D",
"}  c #52892E",
"|  c #548434",
" . c #568B33",
".. c #598E36",
"X. c #578738",
"o. c #59863B",
"O. c #5D8E3D",
"+. c #579131",
"@. c #5A9434",
"#. c #5E9D35",
"$. c #5D933A",
"%. c #609F37",
"&. c #60953E",
"*. c #629A3D",
"=. c #61A137",
"-. c #64A33B",
";. c #69A93F",
":. c #5F8F40",
">. c #648344",
",. c #6C8D4A",
"<. c #619241",
"1. c #669B43",
"2. c #689C45",
"3. c #6B9A4D",
"4. c #71944D",
"5. c #759E4C",
"6. c #759851",
"7. c #789E52",
"8. c #6AA543",
"9. c #6CAC42",
"0. c #6DA449",
"q. c #6FA949",
"w. c #70AF47",
"e. c #71AA4B",
"r. c #7CA94E",
"t. c #71B047",
"y. c #74B44A",
"u. c #7DA455",
"i. c #75AE51",
"p. c #79A953",
"a. c #77B151",
"s. c #7AB454",
"d. c #7EBD54",
"f. c #7EB25C",
"g. c #7EAE60",
"h. c #A98153",
"j. c #B48259",
"k. c #B8845B",
"l. c #B68A5A",
"z. c #81AF51",
"x. c #81A759",
"c. c #83AC59",
"v. c #82B152",
"b. c #80B35E",
"n. c #8AB45F",
"m. c #83BC5D",
"M. c #8EBD5F",
"N. c #84817E",
"B. c #918378",
"V. c #83B761",
"C. c #88B367",
"Z. c #85B962",
"A. c #89BC65",
"S. c #8BBB6C",
"D. c #90BE62",
"F. c #8FBE72",
"G. c #90BF72",
"H. c #C39460",
"J. c #8DC06C",
"K. c #95C365",
"L. c #94C375",
"P. c #99C574",
"I. c #9AC97C",
"U. c #858585",
/* pixels */
"S.S.S.A.G.G.I.I.L.L.S.S.S.S.S.S.S.S.S.S.I.L.C.C.S.S.S.S.F.F.L.L.L.L.S.S.S.A.S.S.S.S.J.L.L.L.L.L.S.S.S.S.F.S.S.S.S.F.S.S.S.S.S.S.",
"f.f.f.V.V.S.J.S.V.m.f.f.s.f.f.f.f.b.b.b.S.g.3.p.g.p.g.f.f.f.f.A.A.A.A.f.f.f.f.f.f.f.Z.Z.A.A.Z.J.J.f.f.f.f.f.f.b.f.f.f.f.b.b.b.b.",
"i.y.i.i.p.s.C.s.e.i.e.q.a.y.0.q.w.e.r.w.s.3.O.1.$.#.q.0.$.0.q.s.Z.s.s.s.s.q.q.q.q.s.y.s.s.f.P.s.s.a.0.q.q.w.q.q.e.s.s.e.e.e.w.e.",
"-.9.8.8.8.1.&.5.8.-.-.=.;.;.#.#.-.=.=.t.9.$.l } ] %.%.%.` ` %.%.y.y.w.9.9.9.=.#.9.;.9.9.y.d.d.K.9.$.+.#.=.=.-.=.9.9.q.9.=.=.=.=.",
"9.9.-.+.$. .X.O.9.w.-.-.9.9.r.=.=.-.;.;.&.{ l l #.#.=.+.[ 1 ` #.9.9.y.y.8.;.;.;.;.;.;.9.d.d.d.y.#.c ..#.#.%.9.9.9.y.y.;.=.=.=.9.",
"9.8.+. .| c | X.0.q.-.#.8.8.r.v.=.w.t.;.%.g ; l $.#.@.h h [ 1 ] #.9.s.y.;.-.d.;.;.;.9.d.d.d.w.9.[ l | @. .@.9.9.t.t.y.=.=.=.9.9.",
"9.-.<.$.g g f l r.0.1.$.$.q.d.9.v.v.;.-.l ; - ;  .+.1 1 4 g 1 ` #.#.9.y.s.q.a.;.;.M.d.d.d.y.w.*.[ l j l @.O.8.q.t.K.t.=.=.;.9.9.",
";.8.$.| 4 s d k 5.5.$.X.<.2.-.-.z.z.-.%.g ; - - { { 1 g 4 4 g 1 #.;.9.d.q.1.q.%.M.M.d.d.1.8.0.$.l 4 4 j |  .*.9.K.c. .#.;.9.9.;.",
"q.1.[ l 3 = = k u.| | c c  .| +.D.r.#.{ ; - + - <.l g 4 3 3 < l #.9.K.M.2.:.u.c.s.d.9.$.O.1.1.:.f < 4 ; c X.x.D.v.$.[ } ] ] ;.;.",
"*.O.l > = = X = 6.,.x f k g l u.C.D.{ l - @ # + X.O.4 d 2 2 3 g 8.J.K.p.:.o.O.1.d.9.9. .4.4.:.k 3 = = - , c 7.c.O.X.X.5 ' @.-.@.",
"O.X.j - + X O X ,.>.k 3 3 s ,.6.u.0.l 1 - & % + k X.d d X X > s n.D.u. .g 3 o.:.$.9.$.4.,.s j s 2   . = : x O.1.X.< | X.[ { @.X.",
"X.>.= = X @ + >.>.s 3 2 2 3 x ,.&.1.1 < @ & * @ d k d O O # 9 > $.x.O.c 3 3 c o. .@.7.,.4 4 j 3   X O X - > c  ., ; k g l [ l { ",
"o.v - O M O m V d < 2 @ O 2 f x o.<., : @ @ # # d d O + * w 9 > X...X.4 < 2 f v :.<.:.4 3 = 3 2 O @ + + + : k c : 2 < d s l g l ",
"v d + X N N n 3 2 9 7 9 # + d d c X.4 - O # @ + X d O * u p w % X.X.s > > O d f o.:.g 3 = = 2 @ @ $ & & 0 7 f x 3 > 2 3 s s g f ",
"d 3 # 6 N N n 2 & 7 7 y w 9 @ d f x 2 2 @ @ % & X + @ & r i w @ c X.4 > O @ O d >.o.4 2 @ + + o # & * & 7 7 d 2 > $ # > 2 s d < ",
"d O 7 0 K M 8 6 & 0 0 r r y 0 + d d > X O $ 9 7 % @ * * 9 u 9 % x x 2 O O @ @ O x c 2 @ @ @ O . $ * 9 9 * 7 & > # % & O > 2 3 2 ",
"X @ * 0 0 p w 6 7 0 0 u u y q & O 4 . O & r P J * % 9 q w r w # d z > O @ # O   z x 2 @ & O . N + 7 0 * 0 * & # # + @ O X > 2 O ",
"O O 0 q w w * 7 0 y y u a i i q O X O O u P U a 7 % 9 0 p u 0 * X d + @ @ + @ O   z O % # o N C Z w 0 * q 9 * O @ % # O X . X O ",
"@ # * 9 u u 9 * 9 u u a L H H a # X + 7 K P a a 9 * q w r r w 9 + X O @ + @ # @ O O O * 6 M N C Z a 7 0 * 0 $ @ # $ # O X o o + ",
"% * 7 w i i q 0 q t a K L K H H * + * 0 i a a a 0 9 w r i a r q @ O + $ @ & * 0 % O @ * * y N N B w 0 * 0 9 * % & * @ O X o # & ",
"9 9 w r i i w w w i i B P K a w * @ & * i a u i w 0 w u a a i 0 # O @ * & t w q % @ $ * 0 * p a u u e 0 e q * % * 9 7 @ @ * i 0 ",
"P i i u 9 q w w u B B L K P K r 0 * * 9 u u u r u 0 r t u a u w & @ & * q t u r 0 $ & 9 0 q 0 w u u u p p u 0 * q w w 7 0 H H K ",
"R E K i q 0 9 7 K T K P P K B w 0 * * q u r i a u q 0 0 r u u r * # @ * w i r i q * * 0 w r w u u u a a i K u r u u u a a H H E ",
"P ( E i i 0 0 a R P P P K K a r q 9 0 B i u a r e 0 0 0 u K K K 9 @ $ q i i i r t * 9 w H K P i u u a a K K P L H H i u H H H R ",
"U ~ R U P U H K P P P K a a r r w B q e q a u r 0 0 0 u P k.k.k.T * 9 9 0 t t u q 7 w K T ( k.T a a K K K R R R R H a i a i H P ",
"R R R E E P P P K K K i a i r i K q U.U.) 0 a u r r r R k.k.k.( R T w t 0 0 w B w q i j.k.k.k.( P a K P E R ^ ^ R P a i i a H R ",
"R R E P P K K a a a a p a P R T u G G G G A L a a a K P ( ( Q E ~ R ~ t t t t K i P ^ ( k.j.( ^ K r P P E R E r P H H H a i H P ",
"E P P J K a a a a H r i T R k.k.E ) F D S W a a a a P ~ E R R R R ~ ^ ^ t t B u E ~ ^ ^ ( ( ^ R u u K P P E u u H H H i a P P P ",
"K K K i a a a a a r i ( k.k.k.k.k.H.l./ / R K K a a K L a P R E R E E ^ E K T E Q E R ^ ^ ^ T T i a K K P K i a a a a J K P P R ",
"K H H i a a i H i i ( k.k.k.k.k.k.( ( ^ R E R P K a a K a a U R R R R R ^ E ( ( k.~ R R ^ ^ T K a K K K K a i i a K K P P E E R ",
"K a a K K H a i a ~ k.k.k.( ( ( ( ^ ^ P ^ ^ E R P K i a a K P P K E R R ^ ( H.( ^ E E R E P K K K K K H i a K K K P R R R R R P ",
"i a K P P H a a K ~ ( ~ R E ^ ^ ~ K K K P R R P P K a i P L K K K K E E E ( k.( E R R P P P P P P K a a H K K K K P P R E R P P ",
"L L L E R K a a K P R R R R R R U i i B K P P L K a i B u a a a K T ^ ^ E E ~ E E P P P P P R R L K a a K P u B i K K K K K K K ",
"P P R R R R K i a K P R R R P a a B i K P P P K a a a u t u u B K K K ^ ^ E E K P K K K P P R R K a a a K t B t B i a a B i K K ",
"P R E R R ^ K B a a u P P K a a a a K P P R R R u u t t 0 t t u i i K K P P P P P R a a U R L K a a u u t u t u r B i a a a K i ",
"P R R R ^ ^ ~ L a u t u P K a a a K L P E R R u t t e 0 0 0 u u i B K K K K P K R B i i i U K B a u u u u K B u t i a K K a a K ",
"P R R R R ( ~ R u e 0 e t u a a a a K u u u t e t 0 0 0 q e u u i K K B K i t t i B u u a a a u u u u U E k.( t t i a a K K K K ",
"L P R E R R E i e 0 0 0 u a a a a a u u u e e 0 0 0 0 0 t u i a K K i B B e t B B u u u u a a u u u P ~ k.k.( ^ t t r a K K P P ",
"i K P R R R U i 0 0 0 e i a i K K K u u e 0 0 0 0 e t t u a a u a a B t t 0 0 t u e u u u u a a B P E k.k.( ^ P P u r B T R P K ",
"a B L P R R K i u 0 e u a a R R P P P P u e t e u K P K a a u u a i t t 0 0 0 t u i K u 9 u a a i P ( ( ( ^ P P t t 0 r B P T K ",
"a a a K R E L a u t a a a ~ k.k.E R P P P K B u R j.j.E P K a a t t 0 0 0 e e u B E k.P u u B a L E ( E R R P e U.U.) q a a a a ",
"a a a L R R L L a u a a R Q ( j.k.j.E R R P K K ( j.j.k.R K a i t q 0 0 e u u P R j.k.j.P i u i K ^ R R R P e U.U.U.G A b a a a ",
"a a K P R R P K a a B U ^ ^ ^ ( ( j.k.k.k.E P P ( ( k.( ^ ^ T P q q e t e P R E k.k.( k.k.K u u P P R E P P I G U.G D Q a a a L ",
"K K L R R P K K a a a P R ^ ^ ^ ( ( ( k.k.k.R K L E ^ ~ R ^ R e 0 * * P R E k.k.k.( ( ( k.R e t u P R R L U R ! D Z Q i a a L P ",
"P ^ ^ E R K B i i a a a T R R ^ ^ ^ E Q ( ( K B K B i U R R u 7 * U.U.B k.k.k.( ( ^ R E R P e 0 e P P L P ^ k.E ! Q a a a u P P ",
"^ ^ R R P L a a B i a a L E R E ^ E E R E E i B K K a a U R B U.U.U.U.B.h.( ( ^ ^ E R K K u 0 0 e u P P R ( k.k.R K a a u u u P ",
"^ R R L K a a i e u u i L P P R R R P E R U B K P P K L L L W G U.U.G F l.E E E E P K K B u 0 U R ^ P P ^ ^ ( l.Q P a a u u L P ",
"P R P K a a u t 0 t i i B K K P R E K K T K K K R R P L L L K / D G D ( E E R P P K K B B u P R ( ( ^ P R ^ E Q R a i u u u P P ",
"P P K a B t t 0 0 0 T B B i i K L P u B i B K E Q Q ( P a a a L ! Q ! P P P P K K a B u K U R ~ j.k.( ^ R E R P a a u u u u u L ",
"P L a a u t 0 0 0 R ~ E u B a a K u u u i K R ^ k.k.k.^ B i a a L K P P K K K i a a u u L K R E ^ k.k.Q R R U a a a U u u i ~ ~ ",
"R L a u t 0 0 R R ~ R R T K K a u u u B a K ~ k.k.k.k.k.R K a a a a K K K B i B a a u P K a K P E Q Q E R K a H a U R E i Q k.k.",
"U a a a t 0 T ~ ^ R R K E E K K u u i p a K E ^ k.( ( k.Q L K a a a a K i u u B a a K P u a a L L R E R P K H U E E E R ~ k.k.^ ",
"R i a a i T ~ R T K K K K P P u 9 7 9 B a K R E ( ^ Q ~ R R L L a a a i u q 0 u u u u t u u a a B K L L L B R ( k.~ R R ^ ( Q E ",
"K i a a R ~ R R K B u B K P t 7 U.U.U.9 a a K R E ^ R R R P P K p u a t 0 0 e t u i K K i a a a i a L K B T ( l.Q Q R ^ ^ ^ ^ R ",
"L L a a E R R K i u q e t t B P G N.N.A J a K P R R R E P P L B q q t t e e t P P ~ k.k.P i a a a a a a P ( k.E P P R R R ^ ^ ^ ",
"R L a a R R P K u q 0 0 u K R P Q A A Y a a a K P R R P P P K 0 0 t t i K R U P R E ^ k.k.K u a a a a a R Q ^ E P P L Q R R R ^ ",
"R R t B K R P t q 0 B K K k.k.~ K I I u a a a a K P P L L u u t t t B R ( k.( ( ^ ^ E Q ^ ^ E i B p K L R E ^ ^ E R R E P R R R ",
"R R t t K K B t t u K k.( k.k.j.Q a a u i a a u u P P u u u u u i R E k.k.( E E ^ R R R R R ~ R i i B B L R R ^ ^ R R P P P R E ",
"E K B e P P u t u ( j.k.k.( ( ^ ^ R a a a a u t u u u u u u u P E k.k.k.( E E E R P P P P R R U i B B i L P E R E P P P P R R R ",
"T K K e B P u t ^ ( ( k.( ^ R R R Q K a a i r 0 e e u u B u L R j.k.( ( ( ^ R R P L L P P P Q R U i B K P R R R P P P P U R R R ",
"R P K P t t u ^ ^ ^ ^ ( ( ^ ^ R R R P K i i q 0 q 0 q q a a L P ( ( ^ P ^ ^ P K K a K L P P P P R R U R E R P P P P L K B B L W ",
"R R P T B u P ^ ^ ^ ^ ^ ^ ^ R R R P P K a p i q 0 F ) ) B i a L Q ^ P P K P P K a a a K K K L L L R R R E P P P P L u i B B K P ",
"E Q Q T B i K Q ^ ^ ^ R E R R R L P L i B R T B A ) U.S I B B u T R R P P P P P K a i B B B i K P P L P P P P R R u u B B K P P ",
"( ( ( Q P B B K ^ R E R P P P P P K a i R j.j.T R A Z I t u i B B T E E R R E E P K a i i i i B K P P P P P R R u u u i K P P R "
};
