/* XPM */
static char *_8443876b4744f6aa03d530997c9facepmQFVa2GqWyjiYud[] = {
/* columns rows colors chars-per-pixel */
"64 64 240 2 ",
"   c #0A3E0C",
".  c #08330B",
"X  c #0D3711",
"o  c #123B14",
"O  c #0B2A0B",
"+  c #7A0801",
"@  c #5F2108",
"#  c #6B2A0A",
"$  c #752E2E",
"%  c #0A420E",
"&  c #034C0C",
"*  c #0D4614",
"=  c #134315",
"-  c #124915",
";  c #164D1A",
":  c #194C1C",
">  c #17461A",
",  c #15541C",
"<  c #19541D",
"1  c #1A5A1E",
"2  c #155D1D",
"3  c #0A540D",
"4  c #23551F",
"5  c #046605",
"6  c #146D08",
"7  c #007901",
"8  c #1A6E11",
"9  c #126313",
"0  c #1A7514",
"q  c #16710F",
"w  c #1D5D21",
"e  c #1B5520",
"r  c #1B4321",
"t  c #275826",
"y  c #3D5D3F",
"u  c #365738",
"i  c #374D3C",
"p  c #1D6324",
"a  c #1E6C25",
"s  c #1F7223",
"d  c #226324",
"f  c #236C28",
"g  c #266C29",
"h  c #25762B",
"j  c #267A2A",
"k  c #297C2D",
"l  c #29722A",
"z  c #2D7836",
"x  c #337B33",
"c  c #357D3E",
"v  c #357534",
"b  c #31732E",
"n  c #23721B",
"m  c #3F5C40",
"M  c #457645",
"N  c #717272",
"B  c #515151",
"V  c #8A0600",
"C  c #960800",
"Z  c #8A1708",
"A  c #9B1807",
"S  c #991C13",
"D  c #A90A01",
"F  c #A31202",
"G  c #A61805",
"H  c #B31803",
"J  c #AD1C10",
"K  c #992417",
"L  c #872415",
"P  c #B12914",
"I  c #A4362B",
"U  c #B13A30",
"Y  c #8D3739",
"T  c #C91B06",
"R  c #DD1C02",
"E  c #CF110B",
"W  c #E81B03",
"Q  c #F71800",
"!  c #D1290F",
"~  c #E5331A",
"^  c #D53727",
"/  c #93473B",
"(  c #A54338",
")  c #B9493A",
"_  c #C94335",
"`  c #DB4C2C",
"'  c #E64C37",
"]  c #884F52",
"[  c #91554A",
"{  c #AD534B",
"}  c #9F605C",
"|  c #B16658",
" . c #93786F",
".. c #B0776E",
"X. c #C95548",
"o. c #CD7057",
"O. c #F06956",
"+. c #008D00",
"@. c #0A860A",
"#. c #039A01",
"$. c #089602",
"%. c #179C00",
"&. c #189D01",
"*. c #189C06",
"=. c #1D9419",
"-. c #118B11",
";. c #249E17",
":. c #02A901",
">. c #1AA402",
",. c #1CA209",
"<. c #18A303",
"1. c #06B903",
"2. c #16B70A",
"3. c #14AD14",
"4. c #28A418",
"5. c #21A20E",
"6. c #2A842E",
"7. c #2D8531",
"8. c #2C8F32",
"9. c #328E34",
"0. c #368938",
"q. c #349439",
"w. c #349A3A",
"e. c #369938",
"r. c #2A922D",
"t. c #29A725",
"y. c #39A53B",
"u. c #3EAA2F",
"i. c #4BD235",
"p. c #368140",
"a. c #3D9D41",
"s. c #3DA543",
"d. c #3EAA41",
"f. c #479447",
"g. c #5D9E5B",
"h. c #42AB44",
"j. c #47A848",
"k. c #45B346",
"l. c #46B449",
"z. c #4ABA4A",
"x. c #57BD54",
"c. c #56AD51",
"v. c #6A8F6B",
"b. c #73B674",
"n. c #4EC44C",
"m. c #4FC650",
"M. c #52C553",
"N. c #54C854",
"B. c #59CC58",
"V. c #5BD45A",
"C. c #5DDC5C",
"Z. c #61D25C",
"A. c #61E05E",
"S. c #5FDF61",
"D. c #68C868",
"F. c #66DD64",
"G. c #7EC575",
"H. c #6BED6A",
"J. c #68E766",
"K. c #6CF369",
"L. c #73F76E",
"P. c #74F472",
"I. c #76FB71",
"U. c #7AFB74",
"Y. c #7FFF7A",
"T. c #75EB71",
"R. c #B1887D",
"E. c #D8867E",
"W. c #EF876F",
"Q. c #81FE7D",
"!. c #8CE072",
"~. c #858888",
"^. c #9D938F",
"/. c #989A9A",
"(. c #908C86",
"). c #AE9691",
"_. c #89B494",
"`. c #AC9FA3",
"'. c #A6A7A7",
"]. c #AABBB7",
"[. c #B7B6B6",
"{. c #B3AEAF",
"}. c #B3A197",
"|. c #CB8D87",
" X c #CD9691",
".X c #CCB6B3",
"XX c #ECB1A8",
"oX c #DAA390",
"OX c #87C687",
"+X c #94D193",
"@X c #A3D69A",
"#X c #8BF084",
"$X c #9FD2A5",
"%X c #B6D9AE",
"&X c #B9C5BB",
"*X c #B2D7B3",
"=X c #A9CEA9",
"-X c #B5E8A9",
";X c #B8E8B7",
":X c #C9C6BD",
">X c #BABBC1",
",X c #CEBEC2",
"<X c #BFC8C1",
"1X c #BACFD2",
"2X c #C6C7C7",
"3X c #C8D8C5",
"4X c #CDD2D2",
"5X c #DEDFDE",
"6X c #D6D6D6",
"7X c #D0CED1",
"8X c #EAD9D4",
"9X c #E9CDC4",
"0X c #C5E4C5",
"qX c #CAE8C7",
"wX c #D2EACC",
"eX c #D0E4CE",
"rX c #D9E9D8",
"tX c #D5EDD7",
"yX c #F6E3DB",
"uX c #E3DDE7",
"iX c #DDE5E4",
"pX c #E5E4E5",
"aX c #E4ECE2",
"sX c #EAEFE4",
"dX c #ECECEC",
"fX c #E9E8EA",
"gX c #F2EBEC",
"hX c #ECF2ED",
"jX c #E8F4E8",
"kX c #F2F4EE",
"lX c #F1FBEE",
"zX c #EEF7F2",
"xX c #F3F4F3",
"cX c #F5FBF5",
"vX c #FAFDF6",
"bX c #FAF6F9",
"nX c #F6FBFB",
"mX c #NONE",
"MX c #F9F5F6",
"NX c #F2ECF3",
/* pixels */
"mXmXmXmXmXmXmXmXmXmXmXmXmXmXmXmXmXmXmXmXmXmXmXmXnXmXmXmXmXmXmXmXmXmXmXmXmXmXmXmXmXmXmXmXmXmXnXmXmXmXmXmXmXmXmXmXmXmXmXmXmXmXmXmX",
"mXmXmXmXmXmXmXmXmXmXmXmXmXmXmXmXmXmXmXmXmXxXNXmXmXmXmXmXmXmXmXmXmXmXmXmXmXmXmXmXmXmXmXmXdXfXmXmXmXmXmXmXmXmXmXmXmXmXmXmXmXmXmXmX",
"mXmXmXmXmXmXmXmXmXmXmXmXmXmXmXmXmXmXmXnXpXpX6X4XnXmXmXmXmXmXmXmXmXmXmXmXmXmXmXmXmXmXbXrX2X(.'.mXmXmXmXmXmXmXmXmXmXmXmXmXmXmXmXmX",
"mXmXmXmXmXmXmXmXmXmXmXmXmXmXmXmXmXmXmXpXpXnXvX8X2XMXmXmXmXmXmXmXmXmXmXmXmXmXnXxXmXMXfXpX2X'.B 2XmXmXmXmXmXmXmXmXmXmXmXmXmXmXmXmX",
"mXmXmXmXmXmXmXmXmXmXmXmXmXmXmXmXmXmXcX7XNXmXmXmX6X2XmXbXNXnXmXmXmXmXmXmXmXMXdXxX6XpXMX6X[.~.B `.mXbXmXmXmXmXmXmXmXmXmXmXmXmXmXmX",
"mXmXmXmXmXmXmXmXmXmXmXmXmXmXmXmXmXmXmX7X8XvXbXbXmX6X<X6X<XxXmXmXmXmXmXmXnXnXdXiXiXnXkX7X/.N N 2XmXmXmXmXmXmXmXmXmXmXmXmXmXmXmXmX",
"mXmXmXmXmXmXmXmXmXmXmXmXmXmXmXmXmXmXmXxX<XcXmXbXmXmX2X'.NXmXmXmXmXmXmXmXnXhXpX4XxXnXiX{.N ~.{.bXmXmXmXmXmXmXmXmXmXmXmXmXmXmXmXmX",
"mXmXmXmXmXmXmXmXmXmXmXmXmXmXmXmXmXmXnXmXxX XgXmXnXmXnX2XpXmXmXmXmXmXmXmXmXdXfXxXmXpX[.(.(.`.mXmXmXmXmXmXmXmXmXmXmXmXmXmXmXmXmXmX",
"mXmXmXmXmXmXmXmXmXmXmXmXmXmXmXmXmXmXnXmXxX_ X.yXmXnXmXxX<XfXgXdXmXmXmXmXmXxXdXmXfX[./.^.$ ] mXMXmXmXmXmXmXmXmXmXmXmXmXmXmXmXmXmX",
"mXmXmXmXmXmXmXmXmXmXmXmXmXmXmXmXmXmXvXmXgX` W ~ XXcXmXnXdX<X[.gXmXmXMXnXxXdXmXdX[.'. .$ $  .mXvXmXmXmXmXmXmXmXmXmXmXmXmXmXmXmXmX",
"mXmXmXmXmXmXmXmXmXmXmXmXmXmXmXmXmXmXmXmXvX' ' ' W o.8XmXmXsX:XkXmXmXxXpXhXmXfX].).} + ] ~.^.mXnXmXmXmXmXmXmXmXmXmXmXmXmXmXmXmXmX",
"mXmXmXmXmXmXmXmXmXmXmXmXmXmXmXmXmXmXmXvXmXX.XXmX' Q ^  XsXmXgX7XxXmXfXxXmXpX[...K + + R.~.{.mXmXmXmXmXmXmXmXmXmXmXmXmXmXmXmXmXmX",
"mXmXmXmXmXmXmXmXmXmXmXmXmXmXmXmXmXmXmXvXmX|.E.mXO.Q Q W X..XmXlXfXxXnXdX4X}.( F L L Z  .R..XmXmXmXmXmXmXmXmXmXmXmXmXmXmXmXmXmXmX",
"mXmXmXmXmXmXmXmXmXmXmXmXmXmXmXmXmXmXmXvXmX9XP o.~ ~ W.O.W ! ..7XiXuX4X[...S A ).`.} V K Y aXmXmXmXmXmXmXmXmXmXmXmXmXmXmXmXmXmXmX",
"mXmXmXmXmXmXmXmXmXmXmXmXmXmXmXmXmXmXmXcXmXmX{ E ! 9XmXmXoXW R _ ).}...( D H I ].].R.A C | mXmXmXmXmXmXmXmXmXmXmXmXmXmXmXmXmXmXmX",
"mXmXmXmXmXmXmXmXmXmXmXmXmXmXmXmXmXmXmXmXnXmX8XI ^ NXdXhXlX` W R E H U X.) A D ( | K C L 6XmXmXmXmXmXmXmXmXmXmXmXmXmXmXmXmXmXmXmX",
"mXmXmXmXmXmXmXmXmXmXmXmXmXmXmXmXmXmXmXmXmXbXmX.XD |.MXbX8X~ R ! T _ 6X4X.XR.A F C A S |.mXnXmXmXmXmXmXmXmXmXmXmXmXmXmXmXmXmXmXmX",
"mXmXmXmXmXmXmXmXmXmXmXmXmXmXmXmXmXmXmXmXnXmXbXvX| C o.|.^ E H T G |.1X[.'.{.( G G { 2XmXMXmXmXmXmXmXmXmXmXmXmXmXmXmXmXmXmXmXmXmX",
"mXmXmXmXmXmXmXmXmXmXmXmXmXmXmXmXmXmXmXmXmXmXmXmXkX[ V D G G H J A ..&X'.]..X( D S :XnXmXmXmXmXmXmXmXmXmXmXmXmXmXmXmXmXmXmXmXmXmX",
"mXmXmXmXmXmXmXmXmXmXmXmXmXmXmXmXmXmXmXmXmXmXmXmXmXNXR.[ / Z G A F I }.[..X| D G |.mXmXmXmXmXmXmXmXmXmXmXmXmXmXmXmXmXmXmXmXmXmXmX",
"mXmXmXmXmXmXmXmXmXmXmXmXmXmXmXmXmXmXmXmXmXmXmXnXmXmXmXiX{.} + A A G K ( S K ..8XmXvXmXmXmXmXmXmXmXmXmXmXmXmXmXmXmXmXmXmXmXmXmXmX",
"mXmXmXmXmXmXmXmXmXmXmXmXmXmXmXmXmXmXmXmXmXmXmXmXmXmXmXmXmX8XR.@ # # # # oXyXmXmXmXmXmXmXmXmXmXmXmXmXmXmXmXmXmXmXmXmXmXmXmXmXmXmX",
"mXmXmXmXmXmXmXmXmXmXmXmXmXmXmXmXmXmXmXmXmXmXmXmXmXmXmXnXnXmXmXv.& 3 % _.mXnXxXmXmXmXmXmXmXmXmXmXmXmXmXmXmXmXmXmXmXmXmXmXmXmXmXmX",
"mXmXmXmXmXmXmXmXmXmXmXmXmXmXmXmXmXmXmXmXmXmXmXmXmXmXmXmXmXmXmXkXk 5 v mXnXmXmXmXmXmXmXmXmXmXmXmXmXmXmXmXmXmXmXmXmXmXmXmXmXmXmXmX",
"mXmXmXmXmXmXmXmXmXmXmXmXmXmXmXmXmXmXmXmXmXmXmXmXmXmXmXmXmXmXmXjXy.@.v nXmXmXmXmXmXmXmXmXmXmXmXmXmXmXmXmXmXmXmXmXmXmXmXmXmXmXmXmX",
"mXmXmXmXmXmXmXmXmXmXmXmXmXmXmXmXmXmXmXmXmXmXmXmXmXmXmXmXmXmXmXjX4.+.b bXmXmXmXmXmXmXmXmXmXmXmXmXmXmXmXmXmXmXmXmXmXmXmXmXmXmXmXmX",
"mXmXmXmXmXmXmXmXmXmXmXmXmXmXmXmXmXmXmXmXmXmXmXmXmXmXmXmXmXmXmXjX4.$.b MXmXmXmXmXmXmXmXmXmXmXmXmXmXmXmXmXmXmXmXmXmXmXmXmXmXmXmXmX",
"mXmXmXmXmXmXmXmXmXmXmXmXmXmXmXmXmXmXmXmXmXmXmXmXmXmXmXmXmXmXmXjX4.%.l kXmXmXmXmXmXmXmXmXmXmXmXmXmXmXmXmXmXmXmXmXmXmXmXmXmXmXmXmX",
"mXmXmXmXmXmXmXmXmXmXmXmXmXmXmXmXmXmXmXmXmXmXmXmXmXmXmXmXmXmXmXrX5.%.n hXmXmXmXmXmXmXmXmXmXmXmXmXmXmXmXmXmXmXmXmXmXmXmXmXmXmXmXmX",
"mXmXmXmXmXmXmXmXmXmXmXmXmXmXmXmXmXmXmXmXmXmXmXmXmXmXmXmXmXmXmXrX5.%.n sXmXmXmXmXmXmXmXmXmXmXmXmXmXmXmXmXmXmXmXmXmXmXmXmXmXmXmXmX",
"mXmXmXmXmXmXmXmXmXmXmXmXmXmXmXmXmXmXmXmXmXmXmXmXmXmXmXmXmXmXmXrX5.%.8 jXmXmXmXmXmXmXmXmXmXmXmXmXmXmXmXmXmXmXmXmXmXmXmXmXmXmXmXmX",
"mXmXmXmXmXmXmXmXmXmXmXmXmXmXmXmXmXmXmXmXmXmXmXmXmXmXmXmXmXnXmXrX*.%.8 aXmXmXmXmXmXmXmXmXmXmXmXmXmXmXmXmXmXmXmXmXmXmXmXmXmXmXmXmX",
"mXmXmXmXmXmXmXmXmXmXmXmXmXmXmXmXmXmXmXmXmXmXmXmXmXmXmXmXmXvXmXwX*.*.8 aXmXmXmXmXmXmXmXmXmXmXmXmXmXmXmXmXmXmXmXmXmXmXmXmXmXmXmXmX",
"mXmXmXmXmXmXmXmXmXmXmXmXmXmXmXmXmXmXmXmXmXmXmXmXmXmXmXmXmXmXmXwX,.&.8 aXmXmXmXmXmXmXmXmXmXmXmXmXmXmXmXmXmXmXmXmXmXmXmXmXmXmXmXmX",
"mXmXmXmXmXmXmXmXmXmXmXmXmXmXmXmXmXnXmXnXnXmXmXmXmXmXmXmXmXnXmXwX,.&.8 aXmXmXmXmXmXmXmXvXmXmXnXmXnXmXmXmXmXmXmXmXmXmXmXmXmXmXmXmX",
"mXmXmXmXmXmXmXmXmXmXmXmXmXmXmXmXmXmXmXmXmXmXmXmXmXmXmXmXmXmXmXwX*.&.8 sXmXmXmXmXmXnXmXmXmXmXmXmXmXmXmXmXmXmXmXmXmXmXmXmXmXmXmXmX",
"mXmXmXmXmXmXmXmXmXmXmXmXmXmXmXcXqX+X_.OX@X;XwXlXmXmXvXvXmXnXmXqX,.%.q aXmXmXmXmXmXmXmXlXqX-X@XOXOX_.3XnXmXbXmXmXmXmXmXmXmXmXmXmX",
"mXmXmXmXmXmXmXmXmXmXmXmXmXlX=Xv.0.=.+.$.+.$.,.u.G.0XcXmXmXcXmXeX,.<.q rXmXvXmXvXvX;X!.i.2.:.:.+.7 f M v.2XcXcXmXmXmXmXmXmXmXmXmX",
"mXmXmXmXmXmXmXmXmXmXmXmXmXpX&XaXnXhX$X+Xb.t.#.#.+.=.c.%XmXmXmX0X<.<.6 rXmXmXcX-Xi.2.1.1.#.e.b.+X*XcXvXrX&XhXmXmXmXmXmXmXmXmXmXmX",
"mXmXmXmXmXmXmXmXmXmXmXmXmXmXmXmXmXmXmXmXmXjXOX;.-.7 7 @.g.pXmX%X<.<.6 eXmXqXn.1.:.:.2.t.OXcXmXmXmXmXmXmXmXmXmXmXmXmXmXmXmXmXmXmX",
"mXmXmXmXmXmXmXmXmXmXmXmXmXmXmXnXmXnXnXmXMXmXvXaXrX=Xc.-.5 9 *XqX%.>.6 eX-X#.:.3.D.;XtXjXmXmXnXvXvXmXnXmXnXmXmXmXmXmXmXmXmXmXmXmX",
"mXmXmXmXmXmXmXmXmXmXmXmXmXmXmXmXmXmXmXmXmXmXmXmXmXmXmX3Xb.f.- g.,.<.0 c.0 x.G.wXnXmXmXmXbXmXmXmXmXmXmXmXmXmXmXmXmXmXmXmXmXmXmXmX",
"mXmXmXmXmXmXmXmXmXmXmXmXmXmXmXmXmXmXmXmXnXvXvXnXmXnXmXmXmXmX&Xd ,.>.6 v 3XmXmXmXbXnXnXnXnXmXmXmXmXmXmXmXmXmXmXmXmXmXmXmXmXmXmXmX",
"mXmXmXmXmXmXmXmXmXmXmXmXmXmXmXmXmXmXmXvXmXmXmXmXmXmXmXmXmXbXmX=X$.%.6 4XmXnXmXmXmXmXmXmXmXmXmXmXmXmXmXmXmXmXmXmXmXmXmXmXmXmXmXmX",
"mXmXmXmXmXmXmXmXmXmXmXmXmXmXmXmXmXmXvXcXeX0XqXqXwXtXtXtXaXtXaX@X4.4.0 =XwXqXqX0X0X3X<X0X3X&XeXmXmXmXmXmXmXmXmXmXmXmXmXmXmXmXmXmX",
"mXmXmXmXmXmXmXmXmXmXmXmXmXmXmXmXmXmXmXiXc 8.d.n.B.F.T.#X#X!.T.A.S.M.z.d.q.r.6.j s a 2 , , * y cXmXmXmXmXmXmXmXmXmXmXmXmXmXmXmXmX",
"mXmXmXmXmXmXmXmXmXmXmXmXmXmXmXmXmXmXmXaXz 8.s.z.N.C.K.I.U.I.J.V.z.k.s.w.9.7.k h a p w < < * u cXmXmXmXmXmXmXmXmXmXmXmXmXmXmXmXmX",
"mXmXmXmXmXmXmXmXmXmXmXmXmXmXmXmXmXmXmXpXz 9.s.z.N.C.H.I.U.U.J.V.x.l.s.w.9.7.k h s p w 2 < * u cXmXmXmXmXmXmXmXmXmXmXmXmXmXmXmXmX",
"mXmXmXmXmXmXmXmXmXmXmXmXmXmXmXmXmXmXmXaXz 9.s.z.N.S.H.I.U.L.J.C.M.k.h.w.q.7.k h f p 2 < e * u vXmXmXmXmXmXmXmXmXmXmXmXmXmXmXmXmX",
"mXmXmXmXmXmXmXmXmXmXmXmXmXmXmXmXmXmXmXaXz 9.s.l.m.C.J.L.U.L.J.V.z.k.h.e.8.6.j h a p 2 2 e * u nXmXmXmXmXmXmXmXmXmXmXmXmXmXmXmXmX",
"mXmXmXmXmXmXmXmXmXmXmXmXmXmXmXmXmXmXmX5Xg 8.j.M.V.J.I.Y.Q.Q.T.Z.B.x.h.s.q.7.k j s p w e ,   t NXmXmXmXmXmXmXmXmXmXmXmXmXmXmXmXmX",
"mXmXmXmXmXmXmXmXmXmXmXmXmXmXmXmXmXmXmXxXv.M t t g l v z v v b b g w t 1 < : > - = * o X r m v.mXmXmXmXmXmXmXmXmXmXmXmXmXmXmXmXmX",
"mXmXmXmXmXmXmXmXmXmXmXmXmXmXmXmXmXmXmXmXmXgXo O o = 4 4 t t 4 4 > > o o o   o X X X X O i mXmXmXmXmXmXmXmXmXmXmXmXmXmXmXmXmXmXmX",
"mXmXmXmXmXmXmXmXmXmXmXmXmXmXmXmXmXmXmXnXbXfXt d v a.c.x.Z.D.x.j.0.b d e ; - - = * o o O u mXmXmXmXmXmXmXmXmXmXmXmXmXmXmXmXmXmXmX",
"mXmXmXmXmXmXmXmXmXmXmXmXmXmXmXmXmXmXmXnXmXsXb x f.h.N.F.H.H.F.B.z.s.q.z f w < , - - -   y vXmXmXmXmXmXmXmXmXmXmXmXmXmXmXmXmXmXmX",
"mXmXmXmXmXmXmXmXmXmXmXmXmXmXmXmXmXmXmXmXmXsXz 9.h.z.B.J.L.L.J.Z.M.d.a.0.k h a e , ; :   y nXmXmXmXmXmXmXmXmXmXmXmXmXmXmXmXmXmXmX",
"mXmXmXmXmXmXmXmXmXmXmXmXmXmXmXmXmXmXmXmXmXsXc q.k.n.C.K.U.U.P.C.N.k.s.q.7.k g d 1 : < % m mXmXmXmXmXmXmXmXmXmXmXmXmXmXmXmXmXmXmX",
"mXmXmXmXmXmXmXmXmXmXmXmXmXmXmXmXmXmXmXmXmXsXc w.k.n.C.K.P.U.P.S.N.z.s.q.7.j g d 1 : : % y mXmXmXmXmXmXmXmXmXmXmXmXmXmXmXmXmXmXmX",
"mXmXmXmXmXmXmXmXmXmXmXmXmXmXmXmXmXmXmXmXmXsXc w.k.m.C.K.U.U.P.S.N.z.s.q.7.k f d 1 : : % y mXmXmXmXmXmXmXmXmXmXmXmXmXmXmXmXmXmXmX",
"mXmXmXmXmXmXmXmXmXmXmXmXmXmXmXmXmXmXmXmXmXsXc w.l.m.C.K.U.U.P.S.N.k.y.q.6.j s p < : : % y vXmXmXmXmXmXmXmXmXmXmXmXmXmXmXmXmXmXmX",
"mXmXmXmXmXmXmXmXmXmXmXmXmXmXmXmXmXmXmXbXmXsX0.w.l.m.C.H.U.U.P.S.M.l.s.q.7.j a p < : : % y nXmXmXmXmXmXmXmXmXmXmXmXmXmXmXmXmXmXmX",
"mXmXmXmXmXmXmXmXmXmXmXmXmXmXmXmXmXmXmXmXmXsXc w.l.m.A.H.U.U.P.S.M.k.s.q.6.j a p < > :   y mXmXmXmXmXmXmXmXmXmXmXmXmXmXmXmXmXmXmX",
"mXmXmXmXmXmXmXmXmXmXmXmXmXmXmXmXmXmXmXmXmXjXp.w.l.m.C.K.U.U.P.S.N.l.s.9.7.j a w < > > % y mXmXmXmXmXmXmXmXmXmXmXmXmXmXmXmXmXmXmX",
"mXmXmXmXmXmXmXmXmXmXmXmXmXmXmXmXmXmXmXmXmXsXp.w.l.m.C.K.U.U.P.S.N.l.s.q.6.h a w < : > % m nXmXmXmXmXmXmXmXmXmXmXmXmXmXmXmXmXmXmX"
};
