/* XPM */
static char *_0b0c955970e497dcda974d0fe269e3dx33fYkc5FhB9fUCU[] = {
/* columns rows colors chars-per-pixel */
"64 64 227 2 ",
"   c None",
".  c #083807",
"X  c #123C0E",
"o  c #062F06",
"O  c #742204",
"+  c #6A2E0F",
"@  c #7B3E22",
"#  c #0C450A",
"$  c #0E4C0B",
"%  c #0A4706",
"&  c #104D0D",
"*  c #10520D",
"=  c #135B0D",
"-  c #115900",
";  c #125413",
":  c #145A14",
">  c #165E1A",
",  c #16571E",
"<  c #0D4D0D",
"1  c #156901",
"2  c #16620F",
"3  c #176700",
"4  c #1E7A00",
"5  c #1B7600",
"6  c #176312",
"7  c #196B12",
"8  c #196719",
"9  c #1C7314",
"0  c #1E7B17",
"q  c #1E7A19",
"w  c #1C721B",
"e  c #0F6B02",
"r  c #247E1C",
"t  c #1E6D25",
"y  c #196321",
"u  c #1F7823",
"i  c #22772B",
"p  c #236A32",
"a  c #795A69",
"s  c #8D1D01",
"d  c #821F04",
"f  c #921D00",
"g  c #9B1E01",
"h  c #981906",
"j  c #981B10",
"k  c #A51D03",
"l  c #B51E01",
"z  c #972306",
"x  c #8F280D",
"c  c #AA2100",
"v  c #A62508",
"b  c #BC2400",
"n  c #B62503",
"m  c #B53017",
"M  c #8B3939",
"N  c #AA392D",
"B  c #C42500",
"V  c #C82A03",
"C  c #D92901",
"Z  c #D43917",
"A  c #E42B01",
"S  c #EC3406",
"D  c #FD3501",
"F  c #FC3802",
"G  c #E63610",
"H  c #C23C25",
"J  c #AD4730",
"K  c #944839",
"L  c #FC4816",
"P  c #CD4D34",
"I  c #F75126",
"U  c #D8411C",
"Y  c #934B4B",
"T  c #AC534A",
"R  c #946657",
"E  c #AB6970",
"W  c #936A69",
"Q  c #C45A4B",
"!  c #F3714F",
"~  c #C97369",
"^  c #C66357",
"/  c #168401",
"(  c #198D01",
")  c #178900",
"_  c #1A9301",
"`  c #1D9C00",
"'  c #268D00",
"]  c #228400",
"[  c #289400",
"{  c #22841B",
"}  c #268D1E",
"|  c #2A951F",
" . c #1EA300",
".. c #22A500",
"X. c #2DA200",
"o. c #27AA00",
"O. c #33AF02",
"+. c #23B300",
"@. c #2AB700",
"#. c #33B201",
"$. c #35BC00",
"%. c #278529",
"&. c #2A9521",
"*. c #2D9D24",
"=. c #2E9A2A",
"-. c #318F33",
";. c #2FA025",
":. c #2EA528",
">. c #32A429",
",. c #34AB2D",
"<. c #34A827",
"1. c #38A937",
"2. c #39B332",
"3. c #3FBB39",
"4. c #3EB63C",
"5. c #34B32C",
"6. c #40BD3A",
"7. c #40BF02",
"8. c #28C401",
"9. c #3CC400",
"0. c #3ECA33",
"q. c #3CC730",
"w. c #43C400",
"e. c #44CA01",
"r. c #4BC902",
"t. c #4BD403",
"y. c #48D302",
"u. c #57D908",
"i. c #53D109",
"p. c #5AE104",
"a. c #64E50F",
"s. c #43CF3B",
"d. c #43D23C",
"f. c #46D83F",
"g. c #67E722",
"h. c #349540",
"j. c #399D4C",
"k. c #3EA84D",
"l. c #45BA49",
"z. c #4CBE5D",
"x. c #48B459",
"c. c #47C542",
"v. c #4BCB48",
"b. c #49D642",
"n. c #4BD946",
"m. c #4FD04C",
"M. c #4DDA49",
"N. c #47D440",
"B. c #51DE4E",
"V. c #50D14D",
"C. c #56D955",
"Z. c #58DA58",
"A. c #50CC4C",
"S. c #56E254",
"D. c #5CE35C",
"F. c #5CE85D",
"G. c #58E356",
"H. c #51E04D",
"J. c #50C468",
"K. c #5EE561",
"L. c #62E765",
"P. c #63EA65",
"I. c #66ED69",
"U. c #68EE6C",
"Y. c #69E56B",
"T. c #69F16C",
"R. c #6CF271",
"E. c #72EF76",
"W. c #61DE60",
"Q. c #A4837F",
"!. c #D38372",
"~. c #F28367",
"^. c #766E88",
"/. c #877A98",
"(. c #987793",
"). c #AA7888",
"_. c #7F92B9",
"`. c #7DF482",
"'. c #948A85",
"]. c #919892",
"[. c #AD9299",
"{. c #9999B8",
"}. c #908EAF",
"|. c #A996A5",
" X c #94ACB5",
".X c #96B1B7",
"XX c #93A5AD",
"oX c #B0ACB9",
"OX c #CF8D88",
"+X c #C4AEB5",
"@X c #F6B5A6",
"#X c #919CC6",
"$X c #9CABD4",
"%X c #95A8CA",
"&X c #A7A8C3",
"*X c #B6B5C8",
"=X c #A1ACD6",
"-X c #A7B5D8",
";X c #B4BCD9",
":X c #ABB7CC",
">X c #B8C5DA",
",X c #AFC1D7",
"<X c #BBC9E4",
"1X c #C7C9DA",
"2X c #C8C9D6",
"3X c #FAD4CA",
"4X c #C5CEE7",
"5X c #CED9ED",
"6X c #CAD2E7",
"7X c #D3D8E9",
"8X c #D5DDF3",
"9X c #D0D7F3",
"0X c #DAE4F5",
"qX c #D8E4F5",
"wX c #E4E3EA",
"eX c #FBE9E5",
"rX c #E3EDFA",
"tX c #E6EAF3",
"yX c #ECF4FB",
"uX c #EEFBFE",
"iX c #E4F0FB",
"pX c #F2F6FB",
"aX c #F5FAFD",
"sX c #FFFFFF",
"dX c #FDFEFE",
"fX c #FAFBFD",
"gX c #FFE6DF",
/* pixels */
"                                                                                                                                ",
"                        4XqXrXpXfXfXaX                                                          yXpXaXfXaX                      ",
"                      ;X9XrXyXaXsXsXaXtXyX                                                rXyXaXsXsXsXsXsXfXyX                  ",
"                    =X-X4X8XrXyXfXsXfX6X7XtXyX                                        0XyXaXsXsXsXsXsXsXsXfXyXqX                ",
"                    =X=X-X4X8XrXpXsXsXtX4X5XqX5X7X6X                                rXuXfXsXsXsXsXsXfXfXyX5X-X-X                ",
"                      =X=X;X9X8XrXaXfXsX7X X{.oX1XwX                        1X6X7XtXpXfXsXsXsXfXfXyXiX2X[.}.}.                  ",
"                        |.$X-X<X9X0XpXsXfX2X6XtXpXtX7X6X1X                  4X8XiXuXaXaXfXaXpXtX5XoXE P P W                     ",
"                      OX~ ).$X=X<X5X0XpXsXsXwX;X&XoX&X1XwX                8XrXrXyXuXuXyXiX8X>X[.Q Z ! 3XgX@X                    ",
"                      9XOXV T {.#X=X4X8XpXdXfX*X/.}.2XwXpXpX          8X8X0XrXiXiXrXqX<X&XE P L L L 3XsXsXeX                    ",
"                      9X^ l l m E #X$X-X9XrXfXfX2X}.*X6XtXpXpXrX    5X8XqXqXqXqX5X-X|.T G D F F F L 3XsXsXeX                    ",
"                      ~ V b b l l N (.#X=X<X0XaXdXwXwXwX7X6XwXwX6X9X5X5X5X4X;X&X).H G D D D F F F F ! 3XeX@X                    ",
"                      V V B b l l l k T (.#X-X4XtXdXfX7X{.{.;X5X6X4X<X<X=X}.E H A S D D L I I L D D S L I U                     ",
"                      V V B l m J J N n k Y (.#X=X<X0XrX6X>X4X<X;X-X#X/.Y Z C A A S S ! 3XeXeX3X! A A A C                       ",
"                        B b H +X;X>X*X[.T h j Y /.}.#X$X-X$X%X#X#X^.Y m B C C C C C G 3XuXuXuXeX! C U ~ !.                      ",
"                        V V P 4X4X>X>X;X-XE g h h M W ^.^.^.a a M z l B B B B V V C V P !.OX!.P V Q +XqX                        ",
"                          V b ~ >X<X>X;X;X'.g h f h h d x x x f h h v v m l n l l b B l n n V b J *X<X                          ",
"                            V V T +X*X*XoXT z z g g s s s f s x K W ].].|.|.Q.T v c c c c c v v J                               ",
"                                b b m J n c c k z g s s s s d Y XX.X.X.X.X.X.X.X'.z g g z v z z                                 ",
"                                    n n c c c g z z s s s s s R .X.X.X.X.X.X.X X'.x z f z g                                     ",
"                                          J K N x z z s s s s x a Q.].].].Q.Q.Y x f s                                           ",
"                                                  R M + O O O O O O + @ + + O                                                   ",
"                                                      $ # X X X % # # # <                                                       ",
"                                                          $ $ % % $ $                                                           ",
"                                                            - - 1 4                                                             ",
"                                                            3 5 [ X.                                                            ",
"                                                            3 4 [ X.O.                                                          ",
"                                                            3 4 [ X.#.                                                          ",
"                                                            3 4 ' X.#.                                                          ",
"                                                            3 4 ' X.O.                                                          ",
"                                                            3 4 ' X.O.                                                          ",
"                                                            1 4 ' X.O.                                                          ",
"                                                            1 4 ' X.#.                                                          ",
"                                                            3 4 ' X.#.                                                          ",
"               . .o.o.#.w.i.i.a.a.p.p.a.                    3 4 ' X.#.                      i.u.t.y.t.u.t.9.8.8.8.8.            ",
"      _ _ `  ...o.@.$.w.w.r.t.i.u.t.y.t.p.g.g.u.r.        3 3 4 ' X.#.          r.r.e.e.t.t.t.r.9.9.e.e.$.$.$.@.@.+.+.@.8.8.    ",
"  e         ( `  .` `  ...o.o.#.9.9.9.y.9.y.u.y.t.#._     1 3 4 ' [ #.      [ #.w.w.7.w.r.7.$.#.$.#.@.+.+.+.+.+. .         . .  ",
"              / / / / / ( _ _ `  .` ..[ ..o.O.+.@.@.../   3 3 5 ' [ O.    ) _ X.o.o.X...o. . .o. ._ _ _ _ `                     ",
"                            / _ ` ` _ _ _ ` `  ._ _ _ _ 4 3 3 3 ] [ ' 5 1 e / ) ) ) ( _  . .`                                   ",
"                                                          - - 3 4 ] -                                                           ",
"                                                          %.r } =.>.-.                                                          ",
"                  J.x.h.p y y > 8 : 6 : 6 6 7 w q { %.| &.:.,.3.6.l.A.C.W.Y.E.E.`.`.`.`.E.R.T.P.F.S.H.H.f.0.f.n.                ",
"                  J.j.p y > : < * * * * = = 7 7 9 0 { } | *.>.,.6.6.s.A.C.D.L.I.R.R.R.R.I.P.F.S.H.n.f.0.0.0.f.n.                ",
"                  J.j.i y > ; ; $ * * * = : 6 7 9 0 { } &.*.;.,.6.6.l.A.C.Z.Y.U.R.E.R.U.T.F.G.S.H.n.n.f.0.0.f.n.                ",
"                  J.j.i y > ; < ; $ * * = : 7 7 9 9 { } &.*.:.,.6.6.s.A.C.D.L.I.U.R.R.T.I.P.F.S.H.n.n.f.0.0.0.n.                ",
"                  J.j.i y > , & * * * * * 2 6 7 9 0 { } | *.>.,.6.6.c.A.C.W.L.I.R.R.R.T.I.F.G.G.H.n.f.0.0.0.0.n.                ",
"                  J.j.i > , ; , & & * = = : 6 7 9 0 { } | *.,.,.<.6.c.A.C.D.Y.Y.R.R.R.T.T.P.F.G.H.n.n.n.0.0.f.n.                ",
"                  k.-.t y , & # # # % % % $ * = 2 2 6 7 7 q r { { -.=.>.6.6.l.l.l.z.l.l.6.6.6.1.1.5.5.:.<.5.5.                  ",
"                        j.p & . . o o o o o . . . . # # $ $ * ; : 6 8 t t i i i %.%.%.i i q 8 w 8 6 7 { %.                      ",
"                        x.h., X X . . . . . % % % $ $ * * : 6 7 w u i %.-.1.k.k.x.l.l.c.l.4.1.2.5.:.:.5.                        ",
"                        z.-.y , & # # # % % % $ * * = = 6 9 { %.=.2.k.v.C.D.P.U.T.I.I.F.S.B.n.f.0.0.0.0.                        ",
"                        z.h.y , ; & $ $ $ $ * = = 2 7 q { | *.,.5.3.c.m.Z.K.P.U.T.T.P.F.S.B.M.b.d.0.0.d.                        ",
"                        z.h.t > ; ; & & $ * * = 2 7 q { } &.*.,.2.3.c.m.C.K.P.I.T.I.P.F.S.C.n.b.d.0.0.d.                        ",
"                        z.h.t > : * < < * * = 2 7 9 0 { | | ;.,.2.6.c.V.Z.K.K.U.I.I.K.K.G.B.M.b.d.0.q.d.                        ",
"                        z.h.t > : * < * * * = 2 7 9 0 { } | >.,.2.3.v.V.Z.K.I.U.T.I.T.K.D.H.n.b.N.0.0.d.                        ",
"                        z.h.t > : * * * * - = 2 7 9 0 { } | ;.<.2.6.c.m.Z.K.K.I.T.T.P.K.G.H.B.N.N.0.0.d.                        ",
"                        J.h.t > : ; $ * * * = 2 7 9 0 { } | ;.<.2.6.c.m.Z.K.I.I.P.T.P.F.C.B.n.b.s.0.0.s.                        ",
"                        z.h.t 8 : * $ * * * = 2 7 9 0 { } | ;.,.2.6.c.m.C.K.L.U.I.P.P.F.S.H.n.N.d.0.q.d.                        ",
"                        z.h.t > : ; * & * = = 2 7 9 0 { } | ;.,.2.3.c.m.C.D.L.I.T.I.P.F.S.H.n.N.s.0.q.d.                        ",
"                        z.h.t > : * * & * * = 2 7 9 0 { } | ;.,.2.3.c.m.C.L.L.I.P.I.P.G.S.H.n.N.d.0.q.s.                        ",
"                        z.h.t > ; ; * * * * = 2 7 9 0 { | | *.,.2.3.c.m.C.Z.L.I.T.P.P.F.S.M.n.f.s.0.0.d.                        ",
"                        z.h.t 8 : < & & * - = 2 7 9 0 { } | ;.,.2.3.c.m.C.K.L.I.I.P.P.F.C.M.n.N.s.0.q.s.                        ",
"                        z.h.t > : * * * * = = 2 7 7 0 { } | ;.,.,.4.s.v.C.Z.L.I.I.I.K.F.S.C.b.N.s.0.0.s.                        ",
"                        J.h.t > : ; * * * * = 2 3 9 0 { } | *.,.2.6.c.A.C.D.L.L.P.P.K.F.S.M.b.N.s.0.q.s.                        ",
"                        z.h.t > : * * * * * = 2 7 9 0 { } | *.,.,.6.c.A.C.Z.L.I.I.P.K.G.C.M.b.N.s.q.q.s.                        "
};
