/* XPM */
static char *_8342215053e4f22d2ed81a2a93d9fb6pwy2VADf4F9cGA9U[] = {
/* columns rows colors chars-per-pixel */
"64 64 225 2 ",
"   c None",
".  c #190D2A",
"X  c #150929",
"o  c #1B112E",
"O  c #1D1533",
"+  c #1F1A36",
"@  c #1D1B3B",
"#  c #1B1739",
"$  c #180F31",
"%  c #211632",
"&  c #221A35",
"*  c #221D3A",
"=  c #25223D",
"-  c #29253D",
";  c #2B263C",
":  c #3A2F39",
">  c #1C1E41",
",  c #1E2244",
"<  c #1F2648",
"1  c #242543",
"2  c #292741",
"3  c #262A45",
"4  c #2A2B44",
"5  c #242C4B",
"6  c #292E4A",
"7  c #202748",
"8  c #25314F",
"9  c #2C324B",
"0  c #2E3449",
"q  c #31354B",
"w  c #33394E",
"e  c #333245",
"r  c #253353",
"t  c #2A3652",
"y  c #2C3A54",
"u  c #263B5B",
"i  c #2B3E5A",
"p  c #313651",
"a  c #313C53",
"s  c #323F59",
"d  c #222E50",
"f  c #2D425D",
"g  c #33445C",
"h  c #3C4759",
"j  c #36495E",
"k  c #3B4A5C",
"l  c #384355",
"z  c #2C4462",
"x  c #2E4964",
"c  c #2C4C6C",
"v  c #2F4768",
"b  c #324663",
"n  c #344B64",
"m  c #3A4D64",
"M  c #324E69",
"N  c #3B4E68",
"B  c #355066",
"V  c #3B5164",
"C  c #34526C",
"Z  c #3B546B",
"A  c #3C596D",
"S  c #234A74",
"D  c #345573",
"F  c #3A5671",
"G  c #365B74",
"H  c #3B5B73",
"J  c #355C7A",
"K  c #3B5E7A",
"L  c #345778",
"P  c #2D567B",
"I  c #3D6076",
"U  c #3C637C",
"Y  c #3F687D",
"T  c #46434B",
"R  c #474C59",
"E  c #4C5257",
"W  c #565652",
"Q  c #584F49",
"!  c #696959",
"~  c #425363",
"^  c #43556A",
"/  c #425A6B",
"(  c #4B5B6B",
")  c #4C5669",
"_  c #555A63",
"`  c #425D73",
"'  c #485D75",
"]  c #414F62",
"[  c #436275",
"{  c #4A6274",
"}  c #44657B",
"|  c #4A657A",
" . c #456A7E",
".. c #4B6B7D",
"X. c #4C6876",
"o. c #536C7C",
"O. c #50717E",
"+. c #656C68",
"@. c #68787B",
"#. c #757B71",
"$. c #878A76",
"%. c #81846F",
"&. c #3C6581",
"*. c #3D6983",
"=. c #386988",
"-. c #426681",
";. c #446B84",
":. c #4A6C83",
">. c #446E8A",
",. c #496A85",
"<. c #4B7285",
"1. c #45738B",
"2. c #4B738B",
"3. c #4F7B8D",
"4. c #457389",
"5. c #537384",
"6. c #53768B",
"7. c #537A8C",
"8. c #5C7C8B",
"9. c #587786",
"0. c #447693",
"q. c #4D7B94",
"w. c #4A7A95",
"e. c #537C93",
"r. c #5B7E92",
"t. c #547F99",
"y. c #566F82",
"u. c #657984",
"i. c #5B818E",
"p. c #558294",
"a. c #5C8495",
"s. c #54849B",
"d. c #5A859C",
"f. c #5D899B",
"g. c #4C819E",
"h. c #61828D",
"j. c #69858F",
"k. c #7B8D88",
"l. c #628594",
"z. c #638B9C",
"x. c #6B8B9B",
"c. c #638696",
"v. c #748B98",
"b. c #6A929C",
"n. c #739198",
"m. c #5C8CA3",
"M. c #5889A3",
"N. c #5C90A4",
"B. c #5C93AE",
"V. c #4B85A5",
"C. c #648FA3",
"Z. c #6B8DA2",
"A. c #6291A4",
"S. c #6A93A3",
"D. c #6394AB",
"F. c #6B95AA",
"G. c #6D9AAB",
"H. c #6D99A7",
"J. c #7396A5",
"K. c #739CAB",
"L. c #7799A7",
"P. c #669AB4",
"I. c #6E9BB2",
"U. c #6799B3",
"Y. c #749DB1",
"T. c #7A9FB2",
"R. c #76A2AE",
"E. c #7AA4B5",
"W. c #74A4BA",
"Q. c #7AA6BA",
"!. c #7CAABD",
"~. c #75A1B4",
"^. c #7CAAC1",
"/. c #858E81",
"(. c #8B9386",
"). c #899893",
"_. c #979983",
"`. c #9AA399",
"'. c #8DA197",
"]. c #A5A99B",
"[. c #859DA9",
"{. c #84A2AB",
"}. c #8CA5AB",
"|. c #95ABA8",
" X c #8CAAB4",
".X c #82AABC",
"XX c #8AADBB",
"oX c #85A7B5",
"OX c #94ADB8",
"+X c #88B2BD",
"@X c #95B2BC",
"#X c #99B5BE",
"$X c #A1B6B7",
"%X c #AFB4A4",
"&X c #83ADC2",
"*X c #85B1C6",
"=X c #8AB3C4",
"-X c #8BB5CB",
";X c #8CB7CD",
":X c #9AB6C0",
">X c #9DB9C3",
",X c #93BACD",
"<X c #93B7C9",
"1X c #93BDD1",
"2X c #99BDD1",
"3X c #A1BBC5",
"4X c #A3BFC9",
"5X c #9BC3D5",
"6X c #97C0D3",
"7X c #A6C1CB",
"8X c #A9C3CD",
"9X c #ADC8CF",
"0X c #ACC6D1",
"qX c #AFC8D2",
"wX c #A6C8D9",
"eX c #B2CAD5",
"rX c #B2CBD5",
"tX c #B6CED8",
"yX c #B8CFD9",
"uX c #B7D0D9",
"iX c #BBD3DC",
"pX c #BFD7E1",
"aX c #C2D8E3",
"sX c #C4DAE5",
"dX c #C1D7E1",
/* pixels */
"                                                                                                                                ",
"                                                                                                                                ",
"                j.n.[.                                                                                                          ",
"                L.}.#X3X#X X                                                                                                    ",
"                }.3X8X0X4X#X X#X X                                                                                              ",
"                  0X8X8X3X@X XOX#X#X{.                                                                                          ",
"                  eX8X8X7X7X:X7X3X3X                            wXwX    5X6X1XwX                                                ",
"                  eX0X0X7X0X4X3X7X                            wXwX5X5X6X6X1X6X6X1X  2X                                          ",
"                  4X0XeXeX3X0X0X>X                          tX2X1X1X1X1X2X-X*X2X*X2X2X2X                                        ",
"                  :XtX8XeX4XeXtX8X                          wX,X;X2X;X-X*X^.-X<X^.;X&X;X                                        ",
"                  eXiXeXtXeXeX0X                            2X1X-X;X&X&X&X^.<XQ.&XW.&X2X                                        ",
"                  tX0X0XtXiXeX4X                            ;X*X*X*X&X^.W.Q.Z.U.*XU.^.^.                                        ",
"                  0XeXeXiXeXtX8X                            -X^.^.I.&X&XW.I.W.Q.C.N.W.P.                                        ",
"                  8XeXeXsXiXtX8X                          ^.P.D.Z.U.I.B.Z.F.t.>.d.V.D.P.U.m.                                    ",
"                  3X0XiXaXsXdX4X                          V.B.D u &.z -.&.v S S z >.M.0.L                                       ",
"                  8XsXaXaXsXsXeX                          t.U.M.&.c v I.F.L S L -.F.t.P >.                                      ",
"                  qXuXiXpXpXsX7X                            U.&XF.e.U.<X.XC.t.t.XXY.1.1.s.                                      ",
"                  8XqXsXpXpXsXtX                              t.6.M.U.<XT.C.C.C.t.;.=.                                          ",
"                  3XpXsXiXsXsXqX                              0.0.B.M.2.-.e.F.C.-.L &.                                          ",
"                    iXiXpXiXpXtX                                t.t.>.L F 2.7.d.2.L c                                           ",
"                    8XuXiXtXrXpX4X                              w.>.=.L F F K 1.;.D A  .                                        ",
"                    >XeXiXaXuXrX>X                            C =.0.w.>.2.4.2.;.C G I Y U F I / '                               ",
"                      rXpXpXiXiX:X                  Z C Z N D J S =.w.t.a.:.x y f M G I G I  .;.:.5.y.| ` '                     ",
"                      uXiXqXrXiXuX    y.K F ` ` ` G K &.;.U 1.0.z &.L D 8 5 u u B Y I G -.} -.} ;.7.,.K ` -.:.5.u.{ s           ",
"                      8XtXeXuXpXaXXXq.6.-.-.6.` -.>.K &.1.J K w.0.L x f x M G *.U ;.C D  .4.2.1.>.t.r.x.l.l.u.` a 7 @ 1         ",
"                        0XeXiX7XtX7Xz.;.1.,.-.K w.2.K L U >.*.A.M.>.F H U w.B.p.4.<.-.*.2.a.C.d.>.2.r.S.J.' d < 7 7 , 3         ",
"                        7XeXiXiXiX0Xf.Y >.K K 4.q.C.t.*.=.w.3.s.K ` 7.;.A 7.A.f.q.3.4.w.e.f.f.1.;.e.F.G.] > , , 5 7 ,           ",
"                        >X0XtXtXrXiX{.;.U } ,.;.' -.-.-.;.1.0.*.-.5.R.7.| H.A.c.a.q.1.p.p.s.1.q.s.d.Y.( , d r d d 7 1           ",
"                          8XqXeXrXiXOXn r 5 7 1 i ` q.m.Q.N.M.*.3.K.b.[ 7.~.=XE.R.p.<.Y Y } 4.d.q.m.r.6 u z z f u d             ",
"                          OXqXtX8XiX8Xy.r u r f ` C.A.K.K.f.3. .9.l.Z 6.z.J.oXXXQ.H.H.z.e.Z r z M ^ q i C C n v v f             ",
"                           X7XtXeXtXiXn.g b t c H 4.7.c.S.S.L.H.a.m ;.S.L.T.G.x.x.S.H.b.5. .u z u , 7 b D F C n f u             ",
"                            @XqX0XtXuX7X' g y M -.<.p.J.XX=X!.N.0.I s.-X>X Xc.x.n.x.8.i.3.[ g u t , u M M U I B i i u           ",
"                            oX8XtXeXtXiXOXp @ g I X.H.+XR.N.s.4.*.0.m.!.=X+XH.A.b.c.h.i.O.[ m 9 7 > r z D I I D f n f           ",
"                               XqX7XtXyXtXv.# f A I f.z.4.A.E.N.N.N.H.f.f.a.i.a.f.a.l.l.5.O./ a 7 @ f z M H 4.F x B f u         ",
"                                :X7XqXeXyXeX) r j C A I f.R.Z.:.7.K.+XK.a.3.O.9.7. .5.7.O.O./ g 8 > u 8 u J -.C x x x u         ",
"                                {.:X:X0XtXiX#Xy B p. .I  .:.7.4.4.2.6.a.z.N.i.i.b.i.I [ O.h./ y 9 # < r x C D H C n z y         ",
"                                ( OX8X0XqXiXiXn.I I j x ;.2.s.s.0.D.N.4. .5.J.H.R.a.9./ A ( l 0 6 # > f z c &.6.9...Z V g       ",
"                              g k y.#XrXuXuXiXrX..r x I Y ;.*.-.<.A.C.s.e.;.H ' o.8.x.i.i...l 4 t @ # l V B [ n.x.X.Z b t       ",
"                              A / V u.eXiXqX9X9X#XX. . .}  .I 3.S.+XE.x.3.2.2.-.F Z O.i.h.O.f + = @ @ h ( ) ~ O.5.[ h a q       ",
"                            / k p # 5 [.uXrXrX9XrXn.i.<.A j B 4.H.Q.R.H.f.}  .4.;.H U  .( A t + = @ @ q R V k o.8.o.k s q       ",
"                            a o # 1 1 m }.$X$X4X9X).{ H g g I 4.;.I I  .} F I } [ ;.H ..B t = + 9 - X & q V V | 5.X.^ k y 9     ",
"                          m . @ t r 5 6 R k.'.|.OXk.V g g V p.p.Y B C f t 9 n V V 5.X.X.X.k l 3 = * X o 2 V / | 8.y.o.m w 6     ",
"                            X 3 t g f y d T #.'.|.|.u.2.7.<.a.f.f.i.A f f g f y g N X.u.i.V 0 3 = O . % * p } } ..| [ A j 4     ",
"                              3 y p n n b y g u.[.OXL.T.G.r.5.F ..i.3.<.p.a.<.m g V { ~ j 0 0 - 3 = = O % # A 3.} } } H B 9     ",
"                              = p 6 s b i Z Z.F.t.r.Z.I.F.,.D i c C I 3.a.f.O.f k [ X./ ; o o + 3 = % % o # r V  . .A n B g     ",
"                              = 6 q p p s K D.M.t.r.F.T.Q.F.6.| I G Y C B B j / i.n.h.k ; 0 3 3 3 = % . + a f 4 l / I V V w     ",
"                                = - 4 6 5 b Z.Z.r.t.C.K..XK.[ C c G U Y U F y g { o.( l w / k - f = o o 9 n B j 3 + f [ A w     ",
"                                    = 1 2 5 F 2.2.2.e.c.d.x.u.V C I G G I I G B j a ; ; 0 V l o = + o = r f x m y + X = 9 9     ",
"                                          5 t M ` F -.:.{ @.]._ 5 9 g y y j n j g w q 6 - 4 5 8 8 @ = 3 f C C m 9 6 + X X =     ",
"                                            i t b F g 6 e #.%X]._ g Z ` B V :.8.5.I  .A B B G J x g y g I <.A a 4 3 =           ",
"                                            t g C F g j C E %.].(.R F <.5.<.a.c.c.a.e. .I Y n M C B G <.7.( h q - +             ",
"                                            g i n F F N C B W %.`./.X.e.z.7.7.i.<.<. .G x x t n Y ;.p.7.k q h ; - +             ",
"                                            y 9 u z M H M b a W $.%X/. .;.;.I :.} C x z u 9 4 n ;.d.5.R e ; ; * % %             ",
"                                              y u z c M g y 8 9 W _.].#.B C x x f i r < 6 4 Z 6.7.{ ~ w ; 4 * & =               ",
"                                              t j n C M g b t 1 e ! _.`.+.C ` H M n f f v C 3.6./ k R 0 = + o                   ",
"                                            s g n m m t 7 1 6 r z l ! '.}.T.W.D.D.A.K D U ;.{ / / l 9 * o o                     ",
"                                            y b N g p O $ $ $ 7 8 V j.K.D.I.E.Y.I.Y.Y.,.F n k ] 0 = O O                         ",
"                                            q k N n p 6 > * * & 1 6.6.C 2.T.R.F.Y.T.F.S.| 6 9 4 & O % *                         ",
"                                          = ; s m j p t 8 8 d 8 1 2 s ,.:.^ a.G.S.S.C.Z.L.) & % * 4 1 *                         ",
"                                          4 0 4 q m t 3 t s f f 5 3 Z ` [ 2.a.Z.f.Z.a.6.' 4 O * 6 4 2 2 =                       ",
"                                          4 p p q q * * 3 7 5 u 5 8 d y | m m ` u.o.h p * & * * = 4 2 1 2                       ",
"                                          4 9 y s p = * 3 3 3 1 3 5 8 = > n :.h T +.E & & & - - * 4 t p 4 2                     ",
"                                        4 ; 9 g y t 9 2 0 3 1 1 = 1 1 * * # & * Q $.(.E & & & ; 4 6 4 4 4 2                     ",
"                                        = ; 4 0 e 9 = 3 q 4 1 1 7 1 1 * = % % & : ! (./.T * * 2 4 0 6 e 2 4 2                   "
};
