/* XPM */
static char *c22ffc12b433436985095ab176134d4eOg7BBh6JiRuBELcN[] = {
/* columns rows colors chars-per-pixel */
"64 64 146 2 ",
"   c #161EE7",
".  c #1624E7",
"X  c #1822E7",
"o  c #172AE7",
"O  c #182AE7",
"+  c #1A23E8",
"@  c #1C2CE9",
"#  c #1730E7",
"$  c #1832E7",
"%  c #1839E7",
"&  c #1C32EA",
"*  c #153FEF",
"=  c #183BEE",
"-  c #2233EC",
";  c #233BEC",
":  c #2A3DEE",
">  c #1640EF",
",  c #1843EF",
"<  c #1749EF",
"1  c #184AEF",
"2  c #1751EF",
"3  c #1852EF",
"4  c #1758EF",
"5  c #185AEF",
"6  c #1A45F0",
"7  c #1D4DF0",
"8  c #1D57F1",
"9  c #165BF7",
"0  c #185AF6",
"q  c #1D5EF8",
"w  c #2741EA",
"e  c #2843EB",
"r  c #3E5AEE",
"t  c #224DF1",
"y  c #2E4CF1",
"u  c #2153F0",
"i  c #2A55F2",
"p  c #225CF0",
"a  c #2C5DF2",
"s  c #3351F1",
"d  c #345DF2",
"f  c #3A5AF4",
"g  c #1561F7",
"h  c #1863F7",
"j  c #186BF7",
"k  c #1F64F8",
"l  c #1873F7",
"z  c #2964F3",
"x  c #2161F8",
"c  c #246AF9",
"v  c #2C6BF8",
"b  c #3461F3",
"n  c #3865F3",
"m  c #3669F2",
"M  c #3C6BF5",
"N  c #2D70FA",
"B  c #3673F9",
"V  c #3C76FA",
"C  c #4663EF",
"Z  c #4265F4",
"A  c #4B6DF5",
"S  c #416DF8",
"D  c #4870F4",
"F  c #4678F4",
"G  c #4270F9",
"H  c #467DFA",
"J  c #4E7EFC",
"K  c #5477F4",
"L  c #5B76F3",
"P  c #567EF6",
"I  c #547DFA",
"U  c #4182FA",
"Y  c #4D82FA",
"T  c #4C89FA",
"R  c #5E82F4",
"E  c #5E8EF7",
"W  c #5483FB",
"Q  c #5B87FC",
"!  c #5A8BFC",
"~  c #5D92FB",
"^  c #6284F5",
"/  c #6C84F3",
"(  c #688CF5",
")  c #728BF4",
"_  c #798AF3",
"`  c #6990F7",
"'  c #6394FB",
"]  c #6997F9",
"[  c #699AFD",
"{  c #7494FA",
"}  c #729DFA",
"|  c #7D9DF9",
" . c #73A2FE",
".. c #78A7FC",
"X. c #7AA9FC",
"o. c #8B97F4",
"O. c #969DF4",
"+. c #83ABFB",
"@. c #86B1FC",
"#. c #8AB3FD",
"$. c #85B8FF",
"%. c #8ABAFF",
"&. c #92B3FB",
"*. c #97BAFC",
"=. c #99BEFB",
"-. c #A1AFF9",
";. c #A6B5FA",
":. c #A0BBFB",
">. c #AABDFA",
",. c #8EC0FF",
"<. c #95C3FE",
"1. c #9AC3FE",
"2. c #97CAFF",
"3. c #9AC9FF",
"4. c #A4C4FD",
"5. c #ACC7FF",
"6. c #A7CEFF",
"7. c #ACCAFD",
"8. c #B5C7FC",
"9. c #B4CDFD",
"0. c #B9CBFC",
"q. c #A4D3FF",
"w. c #ACD3FF",
"e. c #AFD9FF",
"r. c #B1D2FE",
"t. c #BBD3FE",
"y. c #B3D9FF",
"u. c #BBDBFF",
"i. c #C3D5FC",
"p. c #C4DAFD",
"a. c #CAD9FD",
"s. c #C3E3FF",
"d. c #CCE4FF",
"f. c #D3E6FF",
"g. c #DBE7FE",
"h. c #D3EAFF",
"j. c #DBECFF",
"k. c #DDF0FF",
"l. c #E4EDFE",
"z. c #E8EDFE",
"x. c #E6F4FF",
"c. c #EBF5FF",
"v. c #EFF8FF",
"b. c #F2F7FF",
"n. c #F4FAFF",
"m. c #FFFFFF",
/* pixels */
"X   - I 2.d.m.m.m.m.m.m.m.m.m.m.j.w.' e + + X X X + X X   X X   + X + +   + X   X   X X   + X X X X X X X X X X X X X X X   X X ",
"X X y  .y.b.m.m.m.m.m.m.m.m.m.m.m.h.<.Q :     + X   +   X X X X   X   X +   X + X X X X X X + + X X X X X X X X X X   X X X X X ",
"  - ! 3.x.m.m.m.m.m.m.m.m.m.m.m.m.m.j.3.! -                 X X + X X X   X X   X X X X     +   X X   X X X X X X   X X   X   X ",
"X - [ q.c.m.m.m.m.m.m.m.m.m.m.m.m.m.n.h.t.{ L L L L L L f - + X   X   + X X X X   X X X + X X X X X X X X X X X X X X X X X X X ",
"  @ I <.j.m.m.m.m.m.m.m.m.m.m.m.m.m.m.m.m.n.c.x.c.c.x.h.3.&.| A : @ X X X X X X X X X X X X X X X X X X X X X X X X X X X X X X ",
"O O ; A @.s.c.m.m.m.m.m.m.m.n.t.u.c.m.m.m.m.m.m.m.m.m.m.n.m.n.f.a.+.R f @ + + + + . . O . O + . + X O + + + X X + O + + + X + + ",
"O O + & Z R :.h.h.n.m.m.v.f.5.%.y.c.m.m.m.m.m.m.m.m.m.m.m.m.m.m.m.j.e. .r & O O O O O O O O O . + O O O O O O O O O O O O O O O ",
"O O O O o . e f C / _ _ / A J ,.h.m.m.m.m.m.m.m.m.m.m.m.m.m.m.m.m.m.h.2.Q ; O O O O + O O O O O O O + O O O O O O O O O + O O O ",
". O O O . O O . . . o . . o y  .y.v.m.m.m.m.m.m.m.m.m.m.m.m.m.m.m.m.s.$.Z @ O O O O O O O O O O O O O O O O O O O O O O O O O O ",
"O O O O O O O O o o O O o o o s R | t.j.c.m.m.m.m.m.m.m.m.m.n.k.f.&.( n ; O O O O O O O O O O O O O O O O O O O O O O O O O O O ",
"O O O O O O O O O O O O O O o o o # C R ) O.;.i.i.p.p.p.0.-.o.^ K e O O O O O O O O O O O O O O O O O O O O O O O O O O O O O O ",
"O O O $ O O $ O O # O O O # O O o $ o o o o $ e w w e e ; # o o o O O O # O # O O O O O O O O O O O O O O O $ O O O O O O O O O ",
"$ $ $ $ $ $ $ $ # $ # $ $ # $ $ $ $ $ $ O $ $ $ $ O $ $ O $ $ $ % & $ # $ # # & # # $ $ $ $ $ $ $ O $ $ $ $ $ $ O $ $ $ $ $ $ $ ",
"$ $ $ $ $ $ $ O & # $ # # $ $ # $ $ O $ $ $ $ $ $ $ $ $ $ $ $ $ # # # $ # $ $ $ $ # & # $ $ $ $ $ $ $ $ $ $ O $ $ $ $ $ $ $ O $ ",
"$ $ $ $ $ $ $ $ $ $ # & # & # $ $ $ $ $ $ $ $ O $ $ $ $ $ $ # # # # # # $ & # # # $ # $ $ O $ $ $ $ $ $ $ $ $ $ $ $ $ $ $ $ $ $ ",
"$ $ O $ O $ $ $ $ $ $ # $ # $ # $ O $ $ $ $ $ $ $ $ $ O $ & # # & # # # $ # # $ & # $ # $ $ $ $ $ O $ $ $ O $ $ $ $ O $ $ $ $ $ ",
"$ $ $ $ $ $ $ $ # # $ $ # $ # # # # $ $ # $ $ # # # # $ # $ # & $ $ # $ $ # # O # $ # # # O # @ $ O $ $ # # # O # # $ $ $ $ # $ ",
"$ $ % % $ $ $ % % $ % $ $ % % % & % $ % % $ $ % $ & % $ $ % % % % $ % $ % $ % & % $ % % $ % % % % % % % & & % % $ % $ % % $ $ % ",
"% % % % % % % % % % % % % % % % % % % % % % % % % % % % % % % % % % % % % % % % % % % % % % % % % % % % % % % % % % % % % % % % ",
"% % % % % % % % % % % $ % % % % % % % % % % % % % % % % % % % % % % % % % % % % % % % % % % % % % % % % % % % % % % % % % % % % ",
"% % % % % % % % % % % & % $ % % % % % & % % % % & % % % % $ % % % % % % & % % % % % % % $ % % % % % % % % % % % % % % % % % % % ",
"= = = = % % = = = = = = % = = = = = = = % = % = = = = = % = = % % = = = = = = = = % = = = = = % $ % = = = % = = = = = = % = = = ",
"= = = = = = = = = = = = = = = = = = = = = = = = = = = = = = = = = = = = = = = = = = = = = = = = % = = = = = = = = = = = = = = = ",
"= = = = = 6 = = * = = * 6 = = = = = * * = = 6 = * = * = 6 = = = = = = = * * = 6 = = = = * 6 = = % , = = = = = 6 = = = = = 6 = = ",
"6 , , , , , , > , , , , > , , , 6 6 * 6 = 6 > , , , , , , , , , 6 6 * 6 = , , * > > > * > > > , > 6 , , 6 = , , 6 * , , , 6 > > ",
"= 6 , , , * = 6 , , , , > 6 , , = 6 6 * 6 * > , , , , , , , , , , , 6 * , * i n n n n b , > > > , = , , > , , , * 6 , , , = , , ",
", , , * * 6 , , , , = 6 , = , , , , = , , , , , , , , = , , * * * * 6 i D ` *.d.d.d.d.r.} P i 7 , , , , > , , , , 6 > , , , , , ",
", 6 = 6 , , , , , , , > , , , , , , , , , , * , , , * , , t d d i M X.p.x.n.m.m.m.m.m.m.n.n.p.@.S 6 , , , , , , , = , , , , , , ",
", , , , , , , , , , , , , , , , , , , , , , 6 , 6 a n A { 5.l.f.4.@.y.x.n.m.m.m.m.m.m.m.m.m.j.#.G 6 > , , , , , , , , , = , , , ",
", , , 1 1 , 1 , , , , 1 1 , 1 , , , , 1 1 , 6 7 J 1.f.b.n.m.m.m.m.n.n.j.n.m.m.m.n.n.z.a.i.#.! a 6 1 , 1 , 1 , 1 , 1 , , 6 < 1 , ",
"1 1 1 1 1 1 1 1 1 1 1 1 1 1 1 1 1 1 1 1 1 1 1 u W <.g.b.n.m.m.m.m.m.m.m.m.m.b.g.7.} M a p 1 < < 1 1 1 1 1 1 1 1 1 1 1 1 1 1 1 1 ",
"1 1 1 1 1 1 1 1 1 1 1 1 1 1 1 1 1 1 1 1 1 1 1 1 7 u n ' +.>.8.i.i.i.i.0.>.+.] M i 1 1 1 1 1 1 1 1 1 1 1 1 1 1 1 1 1 1 1 1 1 1 1 ",
"1 1 1 1 1 1 1 1 1 1 1 1 1 1 1 1 1 1 1 1 1 1 1 1 1 1 1 1 1 1 1 u 8 t u 1 1 1 1 1 1 1 1 1 1 1 1 1 1 1 1 1 1 1 1 1 1 1 1 1 1 1 1 1 ",
"1 1 1 1 1 1 1 1 1 1 1 1 1 1 1 1 1 1 1 1 1 1 1 1 1 1 1 1 1 1 1 1 < < 1 1 1 1 1 1 1 1 1 1 1 1 1 1 1 1 1 1 1 1 1 1 1 1 1 1 1 1 1 1 ",
"1 1 1 1 1 1 1 1 1 1 1 1 1 1 1 1 1 1 1 1 1 1 1 1 1 1 1 1 1 1 1 1 1 1 1 1 1 1 1 1 1 1 1 1 1 1 1 1 1 1 1 1 1 1 1 1 1 1 1 1 1 1 1 1 ",
"1 3 3 3 3 3 3 3 3 2 3 3 3 3 3 3 3 3 3 1 3 3 3 3 3 2 3 3 3 3 3 3 2 2 2 2 3 3 3 2 3 3 3 3 1 2 3 3 3 3 3 3 3 3 3 3 3 3 3 3 3 3 3 1 ",
"3 3 3 3 3 3 3 3 3 3 3 3 3 3 3 3 3 3 3 3 3 3 3 3 3 3 3 3 3 3 3 3 3 3 3 3 3 3 3 3 3 3 3 3 3 3 3 2 3 3 3 3 3 3 3 3 3 3 3 3 3 3 3 3 ",
"3 3 3 3 3 3 3 3 3 3 3 3 3 3 3 3 3 3 3 3 3 3 3 3 3 3 3 3 3 3 3 3 3 3 3 3 3 3 3 3 3 3 3 3 3 3 3 4 3 3 3 3 3 3 3 3 3 3 3 3 3 3 3 3 ",
"3 3 3 3 3 3 3 3 3 3 3 3 3 3 2 2 3 3 3 3 3 3 3 3 3 3 3 3 3 3 3 3 3 3 3 3 3 3 3 3 3 3 3 3 3 3 2 2 3 3 3 2 3 2 2 2 2 2 3 3 3 3 3 3 ",
"3 3 3 3 3 3 3 3 3 3 3 3 3 3 2 2 3 3 3 3 3 3 3 3 3 3 3 3 3 3 3 3 3 3 3 3 3 3 3 3 3 3 3 3 3 3 2 2 2 2 2 2 3 p p p p p 3 2 2 2 3 3 ",
"3 3 3 3 3 3 3 3 3 3 3 3 3 3 4 4 3 3 3 3 3 3 3 3 4 2 2 2 4 2 2 3 3 3 3 3 2 2 4 2 3 2 3 3 4 2 2 8 p m F } #.7.a.a.i.1.@.E M z 5 3 ",
"5 5 5 5 5 5 5 5 3 5 5 5 5 5 5 5 5 5 5 5 5 5 5 5 4 4 5 5 5 5 5 5 5 5 5 5 5 4 4 5 5 5 5 5 p 5 z ' 9.l.c.m.m.m.m.m.m.m.m.b.x.7.' z ",
"5 5 5 5 5 5 5 5 5 5 5 0 5 5 5 5 5 5 5 5 5 5 5 5 4 4 4 8 5 5 5 5 5 5 5 5 5 5 4 0 0 z ' =.t.a.a.a.h.n.m.m.m.m.m.m.m.m.m.m.c.j.f.a.",
"0 0 0 0 0 0 0 5 0 0 0 0 0 0 0 5 0 0 0 0 0 5 0 0 0 0 0 0 0 0 0 0 0 0 0 q 0 0 0 0 0 Y 1.j.b.m.m.m.m.m.m.m.m.n.n.n.n.m.m.m.m.m.m.m.",
"9 9 0 0 0 9 9 9 9 9 9 9 0 0 9 0 0 0 0 0 9 0 0 0 0 0 0 0 0 0 0 0 0 0 0 0 0 0 0 0 0 q v B H ' X.4.9.9.7.7.7.#. .u.n.m.m.m.m.m.m.m.",
"0 0 0 0 0 0 k x x p x x x q q 0 0 9 9 0 9 q 0 0 0 0 0 0 0 0 0 0 0 0 0 0 0 0 0 0 0 0 0 0 9 0 0 9 9 9 q 9 q 9 z ' 4.f.c.n.b.n.n.b.",
"0 0 x T ..4.0.t.a.a.a.a.a.t.9.9.&.[ V x 0 0 0 9 q 0 0 0 0 0 0 0 0 0 0 0 0 0 0 q 0 0 0 9 0 0 0 q 0 0 0 0 9 0 0 0 k B H Y Y Y P Y ",
"g 0 Y 6.b.m.m.m.m.m.m.m.m.m.m.m.m.b.w.! x h h h g g g h g g h h h h g h 9 g g g g h h 9 9 h g g h 9 h h 9 h g h g 9 g 9 g 9 g 9 ",
"g h c U ~ ..@.*.4.7.7.7.7.7.4.&.X. .T N h h h h h h h h h h h h h h h h h h h h h h h h h h h h h h h h h h h h h h h h h h h h ",
"h h h g g g g h h h h j k h h g g g g g h h h h h h h h h h h h h h h h h h h h h h h h h h h h h h h h h h h h h h h h g h h h ",
"h h h h h h h h h h h h h h h h h h h h h h h h h h h h h h h h h h h h h h h h h h h h h h h h h h h h h h h h h h h h h h h h ",
"h h h h h h h h h h h h h h h h h h h h h h h h h h h h h h h h h h h h h h h h h h h h g h h h h h h h h h h h h h h h h h h h ",
"h h g k h h h h h h h g h h h h h h h h h h h g h h h h h h h h h h h h h h h h h h h h h h h h h h h h h h h h h h h h h h h h ",
"j j j j j j h j j j j j j j j j j h j j j j j j j j j j j j h j j j j j j h j j j j j j j j j j j j h j j j j j j h j j j j j j ",
"j j j j j j j j j j j j j j j j j j j j j j j j j j j j j j j j j j j j j j j j j j j j j j j j j j j j j j j j j j j j j j j j ",
"j j j j j j j j j j j j j j j j j j j j j j j j j j j j j j j j j j j j j j j j j j j j j j j j j j j j j j j j j j j j j j j j ",
"j j j j j j j j j j j j j j j j j j j j j j j j j j j j j j j j j j j j j j j j j j j j j j j j j j j j j j j j j j j j j j j j ",
"j j j j j j j j j j j j j j j j j j j j j j j j j j j j j j j j j j j j j j j j j j j j j j j j j j j j j j j j j j j j j j j j ",
"j l j j j l j j j j j l l j j j l j j j j j l j j l j j j l j j j j j l l j j j j l l j j j j j j j j l j j j l j j l j j l j j ",
"l l l l l l l l l l l l l l l l l l l l l l l l l l l l l l l l l l l l l l l l l l l l l l l l l l l l l l l l l l l l l l l l ",
"l l l l l l l l l l l l l l l l l l l l l l l l l l l l l l l l l l l l l l l l l l l l l l l l l l l l l l l l l l l l l l l l ",
"l l l l l l l l l l l l l l l l l l l l l l l l l l l l l l l l l l l l l l l l l l l l l l l l l l l l l l l l l l l l l l l l ",
"l l l l l l l l l l l l l l l l l l l l l l l l l l l l l l l l l l l l l l l l l l l l l l l l l l l l l l l l l l l l l l l l ",
"l l l l l l l l l l l l l l l l l l l l l l l l l l l l l l l l l l l l l l l l l l l l l l l l l l l l l l l l l l l l l l l l "
};
