/* XPM */
static char *_fac5ae81e254970e1654ef197c0e864sAfbHABpEXqj2hSj[] = {
/* columns rows colors chars-per-pixel */
"64 64 256 2 ",
"   c None",
".  c #2C0501",
"X  c #2C0904",
"o  c #260705",
"O  c #340601",
"+  c #350A02",
"@  c #3A0A02",
"#  c #360D09",
"$  c #3D1103",
"%  c #3C120B",
"&  c #37130B",
"*  c #35140F",
"=  c #0D271B",
"-  c #2D2919",
";  c #043C25",
":  c #2E3935",
">  c #323B36",
",  c #343E3A",
"<  c #383F3B",
"1  c #2B3129",
"2  c #1F0000",
"3  c #421502",
"4  c #4B1C02",
"5  c #43130B",
"6  c #4B1C0D",
"7  c #481904",
"8  c #531C05",
"9  c #471A13",
"0  c #4C120A",
"q  c #4D220B",
"w  c #4E2004",
"e  c #542302",
"r  c #5C2A01",
"t  c #592609",
"y  c #4B2316",
"u  c #572515",
"i  c #642C00",
"p  c #632A07",
"a  c #6B3202",
"s  c #673308",
"d  c #773904",
"f  c #682A18",
"g  c #683416",
"h  c #773B19",
"j  c #72281C",
"k  c #533530",
"l  c #743A23",
"z  c #683528",
"x  c #06472B",
"c  c #115236",
"v  c #2C453B",
"b  c #39423E",
"n  c #37413D",
"m  c #334726",
"M  c #1D693F",
"N  c #50411C",
"B  c #63451E",
"V  c #7C4016",
"C  c #454338",
"Z  c #504F31",
"A  c #6B4A21",
"S  c #674620",
"D  c #755627",
"F  c #734E26",
"G  c #776931",
"H  c #4C683B",
"J  c #3D4542",
"K  c #394A44",
"L  c #285143",
"P  c #325147",
"I  c #096B49",
"U  c #16694D",
"Y  c #047B55",
"T  c #0B7C59",
"R  c #097854",
"E  c #157958",
"W  c #146F4E",
"Q  c #2D7153",
"!  c #2F7C65",
"~  c #434B48",
"^  c #4A5653",
"/  c #4B5350",
"(  c #6C5047",
")  c #4D6C4D",
"_  c #7F675D",
"`  c #694C74",
"'  c #636F69",
"]  c #AC1910",
"[  c #8B310F",
"{  c #B1331A",
"}  c #8C3529",
"|  c #992321",
" . c #D73022",
".. c #E93426",
"X. c #DE2A1D",
"o. c #8D4A03",
"O. c #8C4B0B",
"+. c #874506",
"@. c #934E04",
"#. c #9C5301",
"$. c #985308",
"%. c #8D4C13",
"&. c #854718",
"*. c #914D15",
"=. c #95531A",
"-. c #975318",
";. c #8F511E",
":. c #A75906",
">. c #A55B17",
",. c #AC5516",
"<. c #B06317",
"1. c #884926",
"2. c #9D5A24",
"3. c #995728",
"4. c #91512E",
"5. c #A25E2A",
"6. c #A45C23",
"7. c #B2502D",
"8. c #83662C",
"9. c #8D7333",
"0. c #A5622C",
"q. c #AB652C",
"w. c #AB6324",
"e. c #B66A2A",
"r. c #AA6533",
"t. c #A96636",
"y. c #B36C35",
"u. c #B66D39",
"i. c #BA733A",
"p. c #B07130",
"a. c #D34930",
"s. c #EA4E35",
"d. c #C77839",
"f. c #C97435",
"g. c #E86C3B",
"h. c #B7454A",
"j. c #B6464C",
"k. c #947545",
"l. c #BA7541",
"z. c #AB6645",
"x. c #897673",
"c. c #855244",
"v. c #CA4C57",
"b. c #CB5350",
"n. c #CB7D43",
"m. c #C37A44",
"M. c #D46E4B",
"N. c #F27347",
"B. c #D55C66",
"V. c #CE5963",
"C. c #D8626B",
"Z. c #DD6672",
"A. c #AB3D42",
"S. c #0B835D",
"D. c #04835B",
"F. c #14825F",
"G. c #2F8656",
"H. c #0B8661",
"J. c #068C64",
"K. c #0B8B64",
"L. c #068862",
"P. c #138561",
"I. c #198966",
"U. c #06936A",
"Y. c #079A6E",
"T. c #0B996D",
"R. c #099268",
"E. c #15986E",
"W. c #099D71",
"Q. c #079C71",
"!. c #169570",
"~. c #248767",
"^. c #2D8F71",
"/. c #72954F",
"(. c #528A5E",
"). c #9A813A",
"_. c #AD8F39",
"`. c #95904E",
"'. c #AC9645",
"]. c #B09844",
"[. c #BAA750",
"{. c #ACB76E",
"}. c #979A66",
"|. c #D38345",
" X c #DC8B4B",
".X c #D98747",
"XX c #CA9248",
"oX c #E38B4A",
"OX c #E8944D",
"+X c #EC9654",
"@X c #E89555",
"#X c #F29C5A",
"$X c #EC894F",
"%X c #C3AA48",
"&X c #CBB658",
"*X c #D4BC54",
"=X c #DABA57",
"-X c #D3AE4D",
";X c #ECB759",
":X c #CBB363",
">X c #E4A56E",
",X c #DCC358",
"<X c #E6C95B",
"1X c #ECD35E",
"2X c #F5CE5E",
"3X c #D8CF6B",
"4X c #E9C964",
"5X c #EBD667",
"6X c #F3D965",
"7X c #F0D571",
"8X c #F5E266",
"9X c #F9EC6A",
"0X c #F6E66A",
"qX c #F7E979",
"wX c #F8ED79",
"eX c #C3A554",
"rX c #3F41B9",
"tX c #4345BB",
"yX c #544BAB",
"uX c #645F95",
"iX c #4647C3",
"pX c #5153C6",
"aX c #7577CE",
"sX c #61A195",
"dX c #28A280",
"fX c #8B8E8F",
"gX c #A79596",
"hX c #9099A5",
"jX c #97AEB4",
"kX c #A8A6B4",
"lX c #D1AD95",
"zX c #99C3BA",
"xX c #FCF589",
"cX c #FEFA95",
"vX c #F8ED88",
"bX c #FDF8A4",
"nX c #D6C3A6",
"mX c #9192D7",
"MX c #A8B9C7",
"NX c #ACAED0",
"BX c #AEB0E3",
"VX c #B6C5D5",
"CX c #B0C9D2",
"ZX c #A5C8CF",
"AX c #DAD5D2",
"SX c #C6D7E8",
"DX c #CCD3ED",
"FX c #D9E9F6",
"GX c #D5E5F0",
"HX c #EAE8E8",
"JX c #E5F4F9",
"KX c #EBF5FA",
"LX c #E7F2F6",
"PX c #F5F7FA",
"IX c #E6E9F6",
"UX c #EFE7DC",
/* pixels */
"                                            q q w 6 q q u                                                                       ",
"                                      u w w 4 4 t 8 e e r r                                     g t w 4 7 7 4 q q               ",
"                                    t 4 t j A.j.h.h.A.} d [ &.                                &.a i t j j j f 8 7 7 q           ",
"                                  s p } j.V.V.C.C.B.v.b.,.#.+.3.                            e.$.+.} h.v.v.v.j.A.} 8 7 7 q       ",
"                                &.a [ h.V.C.Z.Z.Z.B.B.a.<.:.e.n.@X#X#X#X#X#X#X#X            d.:.:.7.V.B.C.C.B.B.v.h.f 4 w q     ",
"                                O.+.*.v.b.B.C.Z.C.M.M.n..XOX+X+X#X#X@X+X+X+X@X@X@X@X@X@X@XoX Xf.<.7.b.V.Z.Z.Z.B.B.v.A.r e q     ",
"                                >.#.$.a.b.b.b.M.$X@X+X+X+X+X$X@XoX XoX X.X.X.X.XoX.X X X X X X X X|.f.f.b.V.B.B.v.v.7.j i t     ",
"                                >.:.:.:.<.f.$X+X+XOX.Xn.f.t.3.1.1.V h h h h V 1.1.5.q.y.d.n.|..X.X.X.X|.n.i.f.7.a.b.,.V d s     ",
"                                    -.f.oX@XoXm.5.} f u 0 0 3 5 @ @ % @ 3 @ @ @ 5 5 0 0 u g 1.3.y.d.d.n.|.|.d.p.,.:.#.+.+.V     ",
"                                      #X.Xr.l u 5 5 5 5 @ @ @ @ @ @ @ @ @ @ @ @ O @ O O @ @ @ 5 6 g 3.y.i.m.|.|.u.>.O.&.        ",
"                                    $Xt.f 9 5 5 % 3 @ @ @ @ @ @ @ @ @ @ @ @ @ @ @ @ @ @ O @ @ @ @ % % q h q.i.i.m.m.u.          ",
"                                   X4.9 5 5 5 5 @ @ @ @ @ @ @ @ @ @ @ @ O @ @ @ @ O @ O @ + @ @ O + + + & 6 &.r.i.l.m.m.        ",
"                                 X1.9 5 5 p d [ d 8 @ @ @ O @ @ O @ @ @ O @ @ O O @ @ @ O O @ 3 3 @ O + # X & g 0.y.l.l.        ",
"                              @X4.9 5 6 &.<.:.:.:.:.i @ O @ @ @ @ @ @ @ @ @ @ @ O @ O O @ 8 d [ o.+.a 7 + + + + g r.y.i.m.      ",
"                            @Xt.6 5 0 *.<.:.:.:.:.:.6.u @ @ @ @ O @ O O O @ O @ @ @ O O r O.#.#.#.#.#.o.r X X + # V q.y.l.m.    ",
"                          #X|.f 5 0 g <.:.:.#.-.4.gXUX_ O @ @ @ @ @ @ @ @ @ @ O O @ O z :Xt.#.#.:.#.#.#.o.4 X X X & 3.r.u.l.    ",
"                          @Xt.5 % 5 [ ,.=.c.` yXiXBXPXc.# @ @ O O @ + + + @ @ O @ O @ x.PXNX` ( *.#.#.@.@.a + . X X g 0.0.y.l.  ",
"                        @X Xl 5 5 9 lXkXyXiXiXiXpXBXPX( O @ @ O @ O @ @ + + O @ O @ O fXPXmXtXrXyX( 1.*.@.d + . X X q 2.0.p.l.  ",
"                        @Xm.u 5 5 9 AXDXiXrXiXiXaXPXVX9 O @ O @ O @ + O O @ O O @ O O x.PXBXrXrXtXtXtXyXlXk.. . . . $ ;.5.t.i.  ",
"                        oXu.9 5 % @ x.PXDXmXmXmXIXUX( O @ O O O O O O O O O @ O O O O z HXKXaXrXtXtXtXmXPXgX. . . . # &.5.0.u.l.",
"                        oXy.9 5 @ @ 0 fXAXIXIXIXnX( # O O O @ 3 8 i i i 8 7 @ @ O @ O O x.HXIXBXmXmXBXPXAXk . . o X X V 2.0.r.i.",
"                        |.u.6 @ @ @ O @ y ( ( z 5 O X O 8 d @.:.:.<.<.:.:.:.+.a 0 @ O O O _ nXGXHXHXAXgXk X . . X X $ &.=.0.t.l.",
"                        n.d.h 5 @ @ @ O O O # O O 3 r o.,.f.f.f.f.n.d.f.f.e.e.<.$.d 4 O X O & k k k y O . . . . o o w =.2.2.r.i.",
"                        n.d.e.h 5 @ + O O O @ 0 a $.e.f.|.n.M.l.z.t.t.t.y.u.u.y.e.>.$.d 4 + X X . O . . O . . . o $ V =.;.2.t.i.",
"    5X,X,XqXwXwXxXcXcX  n.u.y.e.=.d t 8 8 i [ $.<.f.d.|.n.z.1.z u u u z l 1.4.0.w.w.2.>.@.V w X X O . . . . o . $ d %.-.2.5.p.l.",
"  5X%X[.[.[.wXwX7XxXcXcXvX:Xi.6.6.>.-.>.>.:.:.<.e.d.d.i.4.l 9 5 O O o # 9 u g } ;.-.-.-.$.@.$.V i 4 $ $ $ 7 r d O.%.=.=.2.q.y.  ",
"wX,X*X%X]._.[.).9.{.wXwXqXvX7XXX6.6.>.>.>.>.<.e.e.f.i.q.} y % # o o . o o & q g V V *.*.$.$.@.$.#.o.o.o.o.o.O.O.%.-.=.5.0.y.    ",
"vX1X*X%X'.).G G B G 5X5X4X4X4X2Xy.-.=.-.>.>.w.q.e.u.u.2.z 9 * X o o o o X # 6 t V V %.O.O.O.o.o.@.@.o.o.O.O.O.=.-.5.0.r.y.      ",
"cXqX5X&X'.9.G D N G 5X4X,X,X<X<X-X*.&.*.3.6.0.q.p.e.y.3.l y % # X o o X X % q s V V %.O.O.O.O.O.o.o.O.O.*.=.2.2.0.t.t.u.        ",
"  9X1X&X[.'.k.8.G [.6X5X4X4X-X|.7.      } *.3.2.5.q.r.5.1.g q % * X * & % y u h V &.=.*.;.%.O.%.%.=.=.2.2.5.0.r.t.              ",
"  wX0X5X3X,X3X3X3X0X,Xm.i.7.{ ] { -X;X4X<XXXu.4.4.3.5.5.5.4.} g u u u u g l &.1.3.2.2.2.=.2.2.2.2.0.5.0.t.y.                    ",
"    ,XvXxXvXqX7X*Xy.} | | -.p._.%X-X=X4X4X4X4X:X`.( Z N S 1.;.1.4.4.3.4.3.5.0.0.t.0.0.t.t.k.t.t.t.                              ",
"  5 9 F k.}.:X7.] [ [ ] #._.%X%X-X=X<X1X2X1X2X1X4X[.G - 0 0 4 w - m m m N m C Z k._ }.x.gXhXhX                                  ",
"  % # y z...] ] ,.,.{ { a.-X-X,X,X<X6X2X2X1X<X<X4X4X&X`.g m m x x x = = ; x P ' uXfXsXmXkXMXjX                                  ",
"  % j v.s.X.s.OXs.a.-X..g.<X8X8X).9.,X6X6X1X1X<X*X=X,X=X`.M D.Y I x - ; x ) hXhXhXjXjXMXMXMXCX!                                 ",
"  }  .s...s.;XN. .-X8X..g.8X8X8X8.V 8.-X1X1X<X,X,X*X*X*X*X(.D.J.F.c U U sXMXVXCXVXVXBXCXVXVXMXE                                 ",
"  lX..X.s.6X$X..-X9X2X..oX9X8X,XD A B D 9.G G 9.&X*X*X*X*X`.D.J.J.D.^.sXAXGXGXGXDXSXSXSXSXDXsXR                                 ",
"  bX$X..2X2Xs...g.$Xg.s.XX].9.D D B F B B B A _.,X,X-X&X&X}.S.^.sXzXSXGXIXIXLXFXFXGXSXSXDXjXR T                                 ",
"  vXs.$X9Xg.a.oXOXOX#X=X).8.F A A F A B B A %X<X,X,X&X[.&X{.zXGXJXKXKXJXJXJXJXJXFXFXDXDXZX~.T T         u y 9 9                 ",
"  vX..2X8X..g.8X9X9X9X9X9X1X*X).A A F B B B ).,X,X%X[.nXAXKXPXKXKXPXPXKXJXJXJXJXFXGXGXVXdXY T T H f u y 6 5 9 % % 9 9 9         ",
"  >X .5X;X..oX9X9X9X9X9X9X9X9X%XA B D 8.D B A [.%X).G ( ( gXLXPXKXKXKXKXJXJXJXFXFXFXZX!.T T T T H g t q 4 $ $ $ # # $ % 9       ",
"  >XN.wX#XX.-X8X9X9X9X0X0X0X9X].B 8.[.1X,X_.)._.9.q @ O . o x.KXJXJXJXKXFXFXFXGXCXsXT Y T T T !.Z s r e w 4 $ $ + # X & * 9     ",
"    bXcX;Xs.-X9X9X0X0X8X8X8X8X[.).<X1X1X,X,X,X].D 3 + @ O . # kXJXFXFXFXFXDXzXsXI.T T T K.T T !.) a r r e w 4 3 $ $ X X # *     ",
"      bXxXqX0X9X0X0X8X8X6X8X6X1X1X1X1X<X,X,X,X*X`.% @ + O . 2 fXJXSXSXZXsX^.T Y T T L.J.T K.T T Q s i r e e w 4 3 $ + X # *     ",
"          cXcXxXwXwXqX0X0X0X8X1X8X5X1X<X5X<X{./.H x - $ # * k jXzXsX! R Y Y D.L.J.J.T J.K.T T K.G.B i i r r e 4 4 $ $ + # *     ",
"                cXxXvXwXwXwX3X3X{.{.}./.G.M M I I F.G.H 8.G (.^.Y I Y Y L.Y L.J.J.J.K.J.T U.I.T ~.B i s i r r e 4 7 $ $ & *     ",
"                            G.G.R I I I I I R ~.E.E.Y.G./.G.D.~.H.D.L.L.L.L.J.L.J.J.J.J.U.!.T !.F.H a a a i r e w 4 3 % 9       ",
"                            F.G.S.R R I Y D.J.T.T.Y.Y.T.I.T.Y.T.dXU.U.U.U.U.U.U.U.J.J.K.K.T K.T S.Q B a a i p e e 4 5 9         ",
"                              E F.I.K.R.R.R.T.T.W.W.W.W.W.Y.W.Q.W.W.Q.Q.Y.U.U.R.U.R.R.K.K.K.T W F.Q s a s s p u u q             ",
"                              ~.~.F.E.K.E.T.T.W.W.W.W.W.W.Y.Y.Q.W.Q.Q.Q.U.U.R.R.L.L.K.H.E P.P.E E H V h h g g                   ",
"                              ^.~.F.E.P.F.E.W.S.R.T.W.Y.J.Y.Y.Y.U.Y.U.U.K.L.R.R.T R K.P.U T P.U Q                               ",
"                                ^.~.!.I.F.E.T.S.S.T.Y.D.D.R.Y.R.Y T U.U.T R K.K.R W K.P.W T E P ^                               ",
"                                    ! E ! !.E.P.S.T.Y.D.D.R.U.J.Y Y U.K.R Y K.K.E I T E L L J /                                 ",
"                                      ' ^ Q Q U U F.I.S.R S.T.S.I R K.T U U U U L : v , , J ~                                   ",
"                                          ^ / ~ C K P v v P L v v , P v : , > : : : : n J /                                     ",
"                                              ^ / Z J b b b n n , , , , , > > > , b J J K /                                     ",
"                                                  / ~ ~ J K b n , n n , , n J J J J b n : K                                     ",
"                                                  / ~ b > : 1 1 1 1     J : : : : : > > : n                                     ",
"                                                    Z ~ b > 1 - - -       : : : > n n n > n                                     ",
"                                                    g t t e $ & o           < , n n n b n : ~                                   ",
"                                                    5 % % + o o o           ~ J b J J b n <                                     ",
"                                                                              k C C C C k y                                     ",
"                                                                                q q q w & +                                     ",
"                                                                                & & + X X                                       "
};
