/* XPM */
static char *_89a618c577a4a3ba9ebc32ffba6150fHzrYp9xYKKEvGAeX[] = {
/* columns rows colors chars-per-pixel */
"64 64 248 2 ",
"   c #2C0501",
".  c #280705",
"X  c #2D0903",
"o  c #111111",
"O  c #350902",
"+  c #111111",
"@  c #350B08",
"#  c #3D1203",
"$  c #3B110B",
"%  c #3C1711",
"&  c #07301E",
"*  c #2F2E1B",
"=  c #113827",
"-  c #342E27",
";  c #2E3834",
":  c #313B36",
">  c #353E39",
",  c #383F3B",
"<  c #421401",
"1  c #4B1C02",
"2  c #43140C",
"3  c #48190A",
"4  c #541C05",
"5  c #461C15",
"6  c #4C1A12",
"7  c #542301",
"8  c #592807",
"9  c #4A2317",
"0  c #572714",
"q  c #552B11",
"w  c #642D01",
"e  c #662D04",
"r  c #6A3305",
"t  c #773904",
"y  c #6E2B16",
"u  c #693217",
"i  c #783B18",
"p  c #513229",
"a  c #58352D",
"s  c #763B22",
"d  c #623E32",
"f  c #044B2D",
"g  c #354727",
"h  c #2B443B",
"j  c #36403C",
"k  c #3A423E",
"l  c #5A421A",
"z  c #7D420F",
"x  c #7C4418",
"c  c #4D5131",
"v  c #664724",
"b  c #6B4C22",
"n  c #76492A",
"m  c #755827",
"M  c #6B5236",
"N  c #616738",
"B  c #3D4643",
"V  c #2D5346",
"C  c #255846",
"Z  c #076B48",
"A  c #136A4B",
"S  c #077A56",
"D  c #127150",
"F  c #137B59",
"G  c #307252",
"H  c #1B7F60",
"J  c #485350",
"K  c #6C524C",
"L  c #526761",
"P  c #6B6F6E",
"I  c #9F1C12",
"U  c #8F3013",
"Y  c #873227",
"T  c #A33B35",
"R  c #D03426",
"E  c #E53829",
"W  c #8B4907",
"Q  c #944E05",
"!  c #9C5201",
"~  c #985208",
"^  c #8A4A15",
"/  c #914E13",
"(  c #94531B",
")  c #9A5518",
"_  c #A75A08",
"`  c #AE4B19",
"'  c #A55C16",
"]  c #AE6219",
"[  c #B36518",
"{  c #884825",
"}  c #904F2D",
"|  c #9B5826",
" . c #A35D27",
".. c #A45B36",
"X. c #8D6E33",
"o. c #A9642A",
"O. c #B76B2B",
"+. c #A86332",
"@. c #AD6A35",
"#. c #B76C36",
"$. c #B87239",
"%. c #DE542A",
"&. c #E75034",
"*. c #CE6E3B",
"=. c #C9783A",
"-. c #EA6739",
";. c #B34447",
":. c #8D6C57",
">. c #B2784D",
",. c #8B746C",
"<. c #C94F52",
"1. c #D56E4F",
"2. c #C57A43",
"3. c #EE6D43",
"4. c #CF5862",
"5. c #D55C66",
"6. c #D9616B",
"7. c #DC6672",
"8. c #04835C",
"9. c #0C815D",
"0. c #15835B",
"q. c #368A54",
"w. c #058660",
"e. c #0C8661",
"r. c #068C64",
"t. c #0A8B64",
"y. c #158864",
"u. c #06936A",
"i. c #09946A",
"p. c #0A9A6E",
"a. c #15956C",
"s. c #079C71",
"d. c #099E71",
"f. c #1B9F7A",
"g. c #2C8A6D",
"h. c #508B4F",
"j. c #739C5E",
"k. c #9C833A",
"l. c #AD8F3B",
"z. c #D6853E",
"x. c #9A9E53",
"c. c #A89243",
"v. c #B39A45",
"b. c #B8855B",
"n. c #97A558",
"m. c #BAA750",
"M. c #9A8476",
"N. c #AA8B6B",
"B. c #B88B68",
"V. c #D38346",
"C. c #DC8A4A",
"Z. c #CF8A50",
"A. c #E48D4A",
"S. c #EE8C4E",
"D. c #EA984B",
"F. c #EB9554",
"G. c #EC9959",
"H. c #C8AC49",
"J. c #CBB54F",
"K. c #CFA754",
"L. c #CBB756",
"P. c #D7BC56",
"I. c #F2B75A",
"U. c #C4936D",
"Y. c #E59D65",
"T. c #D3B565",
"R. c #EEB16B",
"E. c #AFC26C",
"W. c #DCC558",
"Q. c #E6C95C",
"!. c #EBD25E",
"~. c #D7C869",
"^. c #EACA63",
"/. c #F1CF6D",
"(. c #EAD467",
"). c #F2D764",
"_. c #F2DA64",
"`. c #F6E468",
"'. c #FAEC6B",
"]. c #F6E776",
"[. c #FCF27A",
"{. c #3E40B9",
"}. c #624F8A",
"|. c #68648F",
" X c #4343B8",
".X c #4749C3",
"XX c #6365CB",
"oX c #569A8C",
"OX c #798984",
"+X c #51A18C",
"@X c #7AB4A9",
"#X c #918E8F",
"$X c #AC9185",
"%X c #A99999",
"&X c #9A9CA1",
"*X c #95ACAD",
"=X c #B1AEAE",
"-X c #CEA48A",
";X c #D5B599",
":X c #F0B18A",
">X c #D1B5A7",
",X c #C6B9B6",
"<X c #9BC5B3",
"1X c #AEC6BE",
"2X c #ECD68E",
"3X c #FAF18D",
"4X c #D1C4B4",
"5X c #NONE",
"6X c #F1D0AD",
"7X c #E6CCB8",
"8X c #F3D5BE",
"9X c #F9F4AA",
"0X c #F8F2B3",
"qX c #8C8ED7",
"wX c #98B0CF",
"eX c #A8B3CC",
"rX c #A3A5E3",
"tX c #9EC4C9",
"yX c #B0CECA",
"uX c #B8CAD8",
"iX c #NONE",
"pX c #D3CBC9",
"aX c #DCD3CA",
"sX c #C6D3D6",
"dX c #DBD7D6",
"fX c #EAD9CD",
"gX c #F5DAC6",
"hX c #E6DDD7",
"jX c #DBE3DE",
"kX c #F1EAD3",
"lX c #F5E7DA",
"zX c #F7F6D6",
"xX c #CBD0EF",
"cX c #C7D9EA",
"vX c #D8E8F5",
"bX c #E7E5E5",
"nX c #NONE",
"mX c #NONE",
"MX c #NONE",
"NX c #E3E8F5",
"BX c #E3F2F7",
"VX c #E4F4F9",
"CX c #ECF5FA",
"ZX c #NONE",
"AX c #NONE",
"SX c #NONE",
"DX c #NONE",
"FX c #NONE",
/* pixels */
"FXDXmXFXZXmXFXDXmXFXZXmXFXDXZXFXZXmXFXZXZXFXZXMXFXZXZXFXZXMXFXZXZXFXZXZXFXmXZXFXZXZXFXmXZXFXZXZXFXmXSXFXmXDXFXmXSXFXmXDXFXmXSXFX",
"FXDXmXFXZXmXFXDXmXFXZXmXFXDXZXFXZXmXFXZXZXFXZXMXFXZXZXFXZXMXFXZXZXFXZXZXFXmXZXFXZXZXFXmXZXFXZXZXFXmXSXFXmXDXFXmXSXFXmXDXFXmXSXFX",
"ZXDXDXZXDXDXZXDXDXDXDXDXZXDXDXZXDXDXZXDXDXZXDXDXZXdX5X,XiXbXDXDXDXZXDXDXZXDXDXDXDXZXDXFXDXZXSXSXFXFXDXZXDXDXZXDXDXZXDXDXZXDXDXZX",
"FXZXZXFXZXZXFXZXZXFXZXZXFXDXZXFXZXZXFXZXZXFXZX,X:.u 3 1 8 M ,XZXZXFXZXZXFXZXZXFXZXDXFXaX$X:.:.,.=XhXDXFXZXZXFXZXDXFXZXDXFXZXDXFX",
"ZXZXFXZXZXFXZXDXFXmXAXAXmXDXFXZXDXFXmXDXFXbXM.0 7 y Y Y y e z >XFXZXFXDXZXFXFXmXFXFX5Xn 7 < 1 # 1 v %XbXFXAXZXFXZXZXFXDXZXFXDXmX",
"FXDXZXDXDXZXDXDXZXFXDXZXFXDXZXDXZXZXFXSXZXN.8 Y ;.4.4.4.;.` W b.ZXFXZXZXDXZXSXFXZXMX>.t Y ;.;.;.Y 4 1 ,.bXDXAXZXZXAXZXZXDXZXSXFX",
"AXZXZXDXZXDXDXZXDXDXZXDXDXDXDXDXDXZXZXSXaX^ t ;.5.7.7.5.<.` _ b.gXgXgX8XgXgXgXlXmXfX#.! <.4.6.4.4.;.y < M.ZXAXDXDXDXDXDXDXDXZXDX",
"ZXZXFXZXDXFXmXDXFXmXDXDXZXDXDXmXDXDXZXSX>XW T <.5.6.6.5.1.z.A.F.G.F.G.F.F.G.G.Y.G.Y.=.[ O.4.7.7.5.4.T 4 d hXZXAXDXmXAXZXZXDXDXZX",
"FXSXmXFXZXZXFXZXZXFXZXZXFXZXZXFXZXZXFXZX;XQ ! <.<.1.1.F.F.G.F.S.A.A.C.C.C.C.C.A.A.A.C.V.=.*.<.5.5.<.;.w q ,XFXZXDXFXmXDXFXmXDXFX",
"ZXFXFXZXZXFXZXDXFXZXDXDXZXZXDXZXFXFXZXSXhXO._ _ *.D.G.A.1.#...{ { i i i ^ Y | ..$.=.V.C.V.V.V.#.<.<.` t i 5XZXFXDXZXFXDXZXFXDXZX",
"SXZXZXAXZXZXAXZXSXSXZXDXDXZXZXDXZXZXAXZXAXfXU.z.F.V...s 0 4 2 + $ + + + < + < 2 6 u { +.=.=.V.V.O._ ~ W >.bXDXZXZXDXZXZXDXDXZXDX",
"FXZXZXFXAXZXFXZXZXDXZXZXFXZXZXFXZXZXFXZXZXFX6X1.| y 2 2 < + + < + + + + o + + + + + + 3 u | $.2.2.O.| -XjXDXDXZXZXFXZXDXDXZXDXDX",
"mXSXFXZXZXFXZXDXFXZXDXFXZXDXFXmXAXFXZXSXFX8XV.s 5 2 + 2 < + + + + + o + + + + + + + o O + $ u o.$.2.U.lXFXFXZXFXDXmXFXDXmXFXDXmX",
"FXSXZXFXZXZXFXZXZXFXZXZXFXZXZXFXZXZXFXZXfXZ.s 2 2 3 3 + + + + o + + + + + + o + + O o o O @ o 0 | $.2.;XZXZXFXZXZXFXZXDXFXZXDXFX",
"ZXZXSXZXZXFXZXFXZXZXDXDXZXZXDXDXAXAXZXmX:X{ 2 6 U ! ! r < + + + + + + + + + o + o + 4 w 4 O @ X 6 +.#.Z.lXFXZXDXDXZXDXDXZXDXDXZX",
"ZXDXDXZXZXFXZXZXAXZXDXAXZXDXDXZXAXAXZX8X>.6 3 ^ _ _ _ _ 8 o + + o + o + o + + o < t ! _ ! t # X O u o.>.;XDXZXDXDXZXDXDXZXDXDXZX",
"FXDXZXFXZXZXFXZXZXFXZXZXFXZXZXFXZXZXZXY.s 2 u ' _ _ ` b.M.< + o o + + o o + o @ n ' ! ! ! ! r @ X # | @.Z.nXFXCXZXFXZXZXDXZXZXFX",
"mXDXFXZXDXFXmXDXFXZXAXFXZXDXDXZXDXFXgX2.6 2 U _ ..K }.rX,X+ + o + + o + + o + 5 iX%X} ! ! ! W < X X u o.#.7XZXFXZXZXFXDXZXDXZXZX",
"FXZXZXDXDXZXFXSXZXDXZXZXAXDXZXDXAXZX:X| 2 5 >.|. X.X.XxX%X@ o + o + + + o + + 9 bXqX X}.} / Q 1 X . q  .@.-XDXZXZXDXZXZXDXZXZXFX",
"DXDXZXDXZXZXDXZXZXDXZXZXZXZXZXDXSXmXY.n $ % ,XrX.X{.XXNX:.o + o + o o o o + o 5 dXrX{..X{.}.N.0   X 3 ( o.b.mXZXZXAXZXAXDXZXAXDX",
"ZXAXFXZXDXFXZXZXFXZXZXDXZXAXAXZXDXkXC.u $ + #XbXqXqXxXiX9 o O O o o o o o o o + =XxX.X X XqXhXp     # ( +.>.fXFXDXZXFXDXZXDXDXZX",
"FXAXmXFXZXZXFXZXZXFXZXZXFXZXZXFXSX8XV.u $ + 6 %XbXnX,Xd o o # 1 w e w 4 < + o o M hXxXrXrXNX%X@     @ ^  .@.fXDXZXFXmXDXFXZXZXFX",
"ZXSXFXZXDXFXZXDXFXZXZXFXZXZXFXZXDX7X2.Y $ + + $ p a 2 o + 8 W ' [ ] [ _ ~ r < o o K ,XdXpX#X%     . # (  .@.5XFXDXZXAXDXZXAXDXZX",
"ZXSXAXZXDXDXZXZXDXZXAXFXZXZXDXDXDX8X2. .2 + o o o o + 4 Q O.=.z.=.=.=.*.O.' W 4 o   @ 5 % o X     . 7 ( | @.7XFXDXZXDXDXZXDXDXZX",
"FXSXZXDXZXZXFXDXZXFXZXkX9X9X0XzXMXfXZ.O.^ 3 + o + 1 z [ *.V.=.;.} } } ..#.@.o.) z # . X   X X     O W ( | $.fXSXZXFXZXZXFXZXZXFX",
"nXDXFXmXZXFXmXDXFXZX0XW.H.~.[.3X9X9XT.#. .) U z W ! [ =.2.#.s 0 $ % 9 u { |  .' ~ W 8 # X   X X < i ^ (  .b.bXFXZXZXFXDXZXFXDXmX",
"FXZXZXFXZXZXFXDXMXMX~.H.H.m.~.W.3X3X3XY.O. .' ' ' ] O.=.$.} 9 @   . . $ 8 i ^ / ) ~ Q W t w e z W / ( | +.;XFXZXZXFXZXZXFXZXDXFX",
"AXDXDXDXDXDXZXZXDXzX!.J.v.k.N m m.`./.`.K.) | ` ' ] O.O...s 6 @ . . . X 3 u ^ / W Q Q Q Q Q Q W / )  . .U.mXSXSXDXZXDXZXZXDXDXZX",
"ZXSXFXZXSXDXZXDXDXzX].P.v.X.m l x.^.P.^.^.B.| /  .o.@.#. .s 5 X . . . @ 3 u z W W / W W W W / / | o.@.U.lXSXZXFXZXZXFXDXZXDXZXZX",
"FXZXZXFXZXZXFXDXZXMX3XW.m.c.N b L.).^.L.C.-XaX>.| )  .@...{ 0 $ @ X @ % q i ^ ^ / / / / / ( ( o.@.b.5XAXZXZXFXmXZXFXZXZXFXZXDXFX",
"mXDXFXmXSXFXZXDXFXZX9X`.~.T.~.~.(.K.2.%.I 2.2X2X;XB...|  .| { u 9 9 0 u x { | | | ( | | o.@.>.-X5XZXDXZXFXDXZXFXDXmXFXDXZXFXDXmX",
"FXSXSXDXZXZXDXZXDXAX7X~.3X].].P.+.U U o.l.K.P.^./.~.N.N l n { { ( } } | | +.+.+.X.>.B.U.>XfXmXAXFXZXZXAXZXZXDXZXDXFXZXZXDXZXDXDX",
"DXSXSXDXZXZXFXZXSXnXK 0 X.B.>.I U I ] l.H.P.Q.!.^.^.~.v.c 3 4 1 g g g c g K ,.M.#X=XjXZXSXFXSXZXDXZXZXFXZXZXFXZXZXFXZXAXSXZXZXFX",
"mXAXFXmXZXFXZXFXFXdX6 2 ..E I O.` R =.W.Q.P.).).).Q.^.^.m.b g f f & & f V P OX*X*XeXyXZXFXmXDXDXZXDXZXZXFXAXZXSXZXZXFXSXZXFXZXZX",
"FXDXZXFXZXZXFXZXZXnXd T &.E D.&.z.%.D.`.Q.( H.).).Q.Q.W.P.x.9.8.Z = = L &X&X*XeXyXeX*XjXSXFXZXZXFXZXZXFXZXZXFXZXZXFXZXZXFXZXZXFX",
"ZXDXFXZXZXFXZXZXSXZX>XE E S.3.%._.-.D.'.W.b m m.P.H.L.P.P.L.q.r.F Z g.eXuXxXuXuXuXuX+XsXFXZXSXSXZXFXDXZXSXZXZXSXAXZXAXZXZXFXZXZX",
"ZXAXSXSXZXAXZXFXSXSX6XE 3.I.&.D.I.-.I.W.l.b b b b b v.W.J.P.h.8.a.+XyXvXvXvXcXcXcXwXy.yXFXDXFXSXZXDXSXZXSXAXZXAXAXZXSXSXZXZXZXZX",
"FXAXZXFXZXZXFXZXZXAX0X3.I.S.&.3.-.-.X.m b b b v b l.W.P.J.J.j.@XuXvXVXVXVXVXvXcXcX+XS yXFXnXpX4XdXhXAXFXZXZXFXZXZXFXZXZXFXZXAXFX",
"nXSXFXmXZXFXZXFXFXMX2X-.).&.D.)._._.P.l.m b b b b H.W.J.T.4XjXCXCXCXCXVXVXVXvXxX<XS 0.*X$XM p q 9 d ,.pXFXSXZXFXSXZXFXAXnXFXSXZX",
"FXSXZXFXZXZXFXZXZXAX:X-.^.%.Q.'.'.'.'.'.c.v b b l k.J.l.,.#XjXCXCXCXCXVXVXVXvXtXg.S 9.c 0 3 # # @ + % K pXFXFXZXZXFXZXAXFXZXZXFX",
"SXDXSXZXSXDXDXDXZXDX:XC.R.%.!.'.'.'.`.'.l.b l.J.k.X.l.q # X K bXCXVXVXVXvXvXtXa.S S e.J r q # # # O @ @ ,.ZXZXAXZXAXSXZXAXZXSXZX",
"ZXDXFXSXDXDXZXDXDXZXzX3X/.%.).'.`.`.`.`.c.v.(.!.W.m.k.# O X X &XVXBXvXvXuXoXS S S t.9.J w 8 7 1 # + X o p bXZXSXZXZXFXAXZXFXZXZX",
"FXSXZXFXZXZXFXZXZXFXZXzX3X/.].'.`.`._._.!.!.!.W.W.W.c.3 O O . P vXxXtX+XH S w.S e.9.t.G w 8 8 7 1 # @   9 dXFXZXZXFXZXZXFXZXZXFX",
"mXFXFXnXDXFXmXDXFXZXZXFXzX0X3X[.'.`.`.(._._.(.(.~.n.G g % X - #X@Xg.S S S w.r.t.e.e.9.q.r w w 7 7 < + @ d NXZXFXSXZXFXZXZXFXAXZX",
"AXZXZXDXDXZXDXDXZXFXZXZXDXMXzXzX9X9X9X2XE.n.j.h.A A Z 0.q.X.P H D S S w.r.r.r.r.r.e.e.H l e w 8 7 1 # # ,.ZXZXZXAXSXZXZXZXZXZXSX",
"FXZXZXDXZXZXAXZXZXFXDXZXFXZXZXDXZXMXMX<XF Z Z Z Z 0.f.a.y.h.0.a.y.w.r.r.r.r.r.r.t.e.y.y.c t r w 7 1 < p pXSXSXZXZXFXZXZXSXZXAXFX",
"mXDXFXZXDXFXZXZXFXnXDXFXMXDXFXMXAXDXMX1XF 0.S 8.8.i.p.p.p.i.s.s.f.s.u.u.u.u.r.r.t.e.0.0.c r w 8 8 8 a =XFXSXmXFXSXZXFXZXZXSXAXZX",
"FXDXZXFXZXZXFXZXZXFXZXZXFXZXZXFXZXZXFXsXg.0.t.i.p.p.d.d.d.d.s.s.s.s.s.u.u.u.r.r.e.e.F F c r r u n ,.aXFXZXAXFXZXZXFXZXZXFXZXZXFX",
"ZXDXFXZXDXDXZXDXAXZXDXDXZXDXAXZXDXDXZXbX+X0.a.y.a.p.i.d.d.s.s.s.d.s.p.i.u.t.9.t.F F F G N.,.$X,XdXAXFXZXDXDXZXFXZXZXFXZXZXFXZXZX",
"ZXDXDXZXDXDXZXDXDXZXDXDXZXZXDXZXZXDXZXDX1Xg.a.y.a.i.9.p.u.S s.u.8.r.u.S e.9.S t.S H D OXZXAXFXFXSXDXSXSXDXZXZXDXDXZXAXDXZXFXZXZX",
"FXDXZXFXDXZXFXDXmXFXDXZXFXZXZXFXZXZXFXDXZX1Xg.y.a.a.9.p.r.S u.u.S r.t.S t.9.S 9.A C J yXFXFXZXZXFXZXZXFXZXZXFXZXZXFXZXZXFXZXZXFX",
"mXDXFXmXDXFXmXDXFXZXDXFXZXFXFXmXDXFXZXDXFXnX<XL G 0.D y.e.S u.r.S w.9.D F D h C h B #XAXAXZXFXFXZXFXFXmXFXDXZXFXAXZXFXZXZXFXZXZX",
"FXSXZXDXZXZXDXDXZXFXZXZXFXZXZXFXZXZXDXZXZXDXZX,XP J B V V V C C h C h h : : ; : k P NXDXZXFXZXZXSXZXSXDXZXDXDXZXAXDXZXSXDXZXZXFX",
"DXSXZXSXZXDXDXSXZXDXZXZXDXZXZXDXZXSXDXDXZXSXSXDXjX=XP B B , > > > : : > : : j B B &XDXDXZXZXZXZXSXSXZXSXDXZXDXDXZXAXZXAXZXZXZXDX",
"mXDXFXZXDXFXZXZXFXZXZXFXZXZXFXZXDXFXZXDXDXZXZXFXZXDXbXP B B B > j k k j , B B k g |.mXFXAXZXFXAXmXFXSXZXDXZXZXFXAXZXAXZXZXAXFXZX",
"FXDXZXFXDXmXFXSXZXFXZXZXFXZXZXFXSXmXFXZXZXFXZXZXDXZXZXj.k > ; - - &X=XL ; : : > : L mXZXZXFXZXZXFXZXZXFXZXZXFXmXZXFXZXZXFXZXZXFX",
"ZXDXFXZXDXFXmXDXDXZXDXFXZXDXFXZXDXFXZXFXFXZXFXFXZXDXFX=Xa c - * - pXFX=XB > j j ; J dXFXFXZXFXSXZXFXZXZXFXAXZXFXAXZXSXSXZXFXAXZX",
"ZXSXZXDXDXZXDXDXZXZXZXZXZXZXZXZXZXDXZXZXZXZXZXZXZXDXFX,X0 1 # . K ZXDXnXL k k k ; J sXSXZXZXZXZXZXZXZXSXZXZXZXZXZXZXZXAXSXAXZXZX",
"FXZXZXFXZXZXDXZXZXFXDXZXFXZXZXFXDXZXFXZXZXDXZXZXFXZXZXnX,.p p K iXFXZXDX&Xk B B , c dXAXZXFXZXZXFXZXZXFXZXZXAXZXZXSXZXZXSXZXZXFX",
"mXDXFXmXDXFXZXDXFXmXDXFXZXDXFXZXDXFXmXAXFXZXDXAXZXAXFXZXSXbXhXZXDXnXFXFXdXN p p 9 a dXFXSXZXFXSXZXFXAXZXFXSXZXFXSXZXFXAXZXFXZXZX",
"FXZXZXFXSXmXFXSXZXFXZXZXFXZXZXFXZXZXFXZXZXFXZXZXFXZXZXFXZXZXFXZXZXFXZXZXDX$X% # 5 #XFXZXZXFXZXZXFXZXZXFXZXZXFXZXAXFXZXAXFXZXZXFX",
"SXDXDXZXSXDXSXDXDXZXZXFXZXZXAXZXZXDXZXDXDXZXDXZXZXDXZXZXDXDXZXDXDXZXZXAXZXmX,X%XpXZXZXAXSXZXSXZXZXAXAXZXSXSXZXSXSXZXZXSXZXAXAXZX",
"ZXDXDXZXSXFXZXDXFXZXZXDXZXZXFXZXDXDXZXDXDXZXDXDXZXDXDXZXDXDXZXDXDXZXDXDXZXDXFXFXFXAXZXAXAXZXZXAXZXAXSXZXAXZXZXZXAXZXZXZXZXZXSXZX",
"FXZXZXFXFXmXFXDXmXFXZXZXFXZXZXFXZXZXFXDXmXFXZXZXFXZXZXFXZXZXFXZXZXFXZXZXFXZXZXFXZXZXFXZXZXFXZXZXFXZXZXFXZXZXFXZXAXFXZXAXFXZXAXFX"
};
