/* XPM */
static char *_d5b7011612b4fc9db063ad136278807kXrZKaAL3WrYsCg4[] = {
/* columns rows colors chars-per-pixel */
"64 64 250 2 ",
"   c #2C0501",
".  c #290705",
"X  c #2D0903",
"o  c #340601",
"O  c #350A02",
"+  c #360A07",
"@  c #3A0A02",
"#  c #3D1203",
"$  c #3D120B",
"%  c #3D1613",
"&  c #0A281A",
"*  c #302D1C",
"=  c #0A3824",
"-  c #302E29",
";  c #2D3834",
":  c #323B36",
">  c #343E3A",
",  c #431303",
"<  c #4B1B03",
"1  c #43130D",
"2  c #48110B",
"3  c #491909",
"4  c #541C06",
"5  c #461B14",
"6  c #542303",
"7  c #592706",
"8  c #47231A",
"9  c #572515",
"0  c #552B10",
"q  c #642D01",
"w  c #6C3204",
"e  c #66370C",
"r  c #783B06",
"t  c #642C17",
"y  c #772D18",
"u  c #683216",
"i  c #773A19",
"p  c #4F3329",
"a  c #58332A",
"s  c #773C23",
"d  c #623C31",
"f  c #0F4F35",
"g  c #2F4931",
"h  c #39413D",
"j  c #5B461C",
"k  c #72441B",
"l  c #504A2F",
"z  c #674720",
"x  c #6A4B21",
"c  c #734F2A",
"v  c #775725",
"b  c #65433A",
"n  c #55713E",
"m  c #78652C",
"M  c #3C4542",
"N  c #3B4A46",
"B  c #255746",
"V  c #355248",
"C  c #096846",
"Z  c #19664B",
"A  c #0E764E",
"S  c #087855",
"D  c #0B7C59",
"F  c #1F7057",
"G  c #147A59",
"H  c #2E6E4C",
"J  c #494F4C",
"K  c #684946",
"L  c #77534B",
"P  c #4F6D51",
"I  c #7A6B5E",
"U  c #517169",
"Y  c #6B7469",
"T  c #757877",
"R  c #8D3110",
"E  c #A4271A",
"W  c #8D342F",
"Q  c #D13426",
"!  c #E13325",
"~  c #8A4808",
"^  c #954E05",
"/  c #975207",
"(  c #9D5301",
")  c #884916",
"_  c #914E15",
"`  c #8F511F",
"'  c #975418",
"]  c #A65806",
"[  c #A8481A",
"{  c #A55B16",
"}  c #AB6116",
"|  c #B46518",
" . c #894826",
".. c #8A5129",
"X. c #975627",
"o. c #9C5A24",
"O. c #95502D",
"+. c #9B5831",
"@. c #A25E29",
"#. c #B35133",
"$. c #886C32",
"%. c #947936",
"&. c #A8632A",
"*. c #B56928",
"=. c #AD7E2E",
"-. c #AA6432",
";. c #A86734",
":. c #B56C35",
">. c #BB7439",
",. c #CD4E2F",
"<. c #E54E32",
"1. c #C26E2F",
"2. c #C7773B",
"3. c #D47D3E",
"4. c #E6663A",
"5. c #A63E40",
"6. c #80594F",
"7. c #B44848",
"8. c #8C6B54",
"9. c #A77248",
"0. c #B97443",
"q. c #8D756D",
"w. c #CC5358",
"e. c #D56A4F",
"r. c #C87C44",
"t. c #E86B41",
"y. c #D45B65",
"u. c #D8616B",
"i. c #DD6571",
"p. c #05835D",
"a. c #0A825D",
"s. c #14825C",
"d. c #2A8854",
"f. c #068661",
"g. c #0C8661",
"h. c #068B64",
"j. c #0B8C64",
"k. c #178764",
"l. c #06936A",
"z. c #0A956B",
"x. c #08976C",
"c. c #16956B",
"v. c #079D70",
"b. c #099D72",
"n. c #1B9671",
"m. c #2A8B6C",
"M. c #6C9059",
"N. c #519171",
"B. c #98823B",
"V. c #AD8E3E",
"C. c #BDA23D",
"Z. c #988947",
"A. c #B28F4B",
"S. c #BBA74E",
"D. c #B38A6A",
"F. c #CB8749",
"G. c #D88747",
"H. c #C78455",
"J. c #D59653",
"K. c #E68849",
"L. c #EB904F",
"P. c #E59457",
"I. c #EB9655",
"U. c #C7AB4A",
"Y. c #CDAA4C",
"T. c #CCB24D",
"R. c #CBB554",
"E. c #D6BB56",
"W. c #EBA45A",
"Q. c #D2916D",
"!. c #C59975",
"~. c #ECB46D",
"^. c #B4C46C",
"/. c #DCC259",
"(. c #E5C85B",
"). c #EDCF5E",
"_. c #D7C766",
"`. c #D7D579",
"'. c #E9C963",
"]. c #F2CD6D",
"[. c #EBD667",
"{. c #F3D865",
"}. c #F6E368",
"|. c #FAEB6B",
" X c #F5E576",
".X c #FBF17D",
"XX c #3F41B8",
"oX c #62539C",
"OX c #4344BB",
"+X c #5450B2",
"@X c #4446C1",
"#X c #7476CF",
"$X c #8D738F",
"%X c #3F9480",
"&X c #509A8A",
"*X c #79878A",
"=X c #6FA992",
"-X c #76B2A9",
";X c #998788",
":X c #88929A",
">X c #A9968D",
",X c #B6A39A",
"<X c #9B9AA7",
"1X c #91B1AF",
"2X c #AFACAC",
"3X c #D1A98E",
"4X c #D7B398",
"5X c #EEB78E",
"6X c #CBB6A9",
"7X c #C6BBB8",
"8X c #93C2B5",
"9X c #A6C7BC",
"0X c #EBCC99",
"qX c #FCF388",
"wX c #F8ED96",
"eX c #D7C9B4",
"rX c #F2CEB2",
"tX c #F0D1B3",
"yX c #F9F4AF",
"uX c #8F91D6",
"iX c #A5ADD1",
"pX c #ABADE2",
"aX c #B9CAD9",
"sX c #CDCECF",
"dX c #D4CBCA",
"fX c #DBD7D6",
"gX c #E8D6C9",
"hX c #F3DAC8",
"jX c #E5DDD8",
"kX c #DFE1DF",
"lX c #F8F6C8",
"zX c #F1E3D5",
"xX c #F9F8D9",
"cX c #C7DAE9",
"vX c #D5D8F1",
"bX c #D6E5EC",
"nX c #D9EAF6",
"mX c #EAE8E7",
"MX c #F2EDEB",
"NX c #ECF1EF",
"BX c #F9FAE6",
"VX c #F5F3ED",
"CX c #EAEDF5",
"ZX c #E5F4F9",
"AX c #EBF4F9",
"SX c #NONE",
"DX c #F8F7F3",
"FX c #F6F7F8",
"GX c #F7F8F8",
"HX c #F9F9F9",
/* pixels */
"SXSXSXSXSXSXSXSXSXSXSXSXSXSXSXSXSXSXSXSXSXSXSXSXSXGXGXDXSXSXSXSXSXSXSXSXSXSXSXSXSXSXSXSXSXSXSXSXSXSXSXSXSXSXSXSXSXSXSXSXSXSXSXSX",
"SXSXSXSXSXSXSXSXSXSXSXSXSXSXSXSXSXSXSXSXSXSXSXSXGXFXHXFXSXDXSXSXSXSXSXSXSXSXSXSXSXSXSXSXSXSXSXGXSXSXSXSXSXSXSXSXSXSXSXSXSXSXSXSX",
"SXSXSXSXSXSXSXSXSXSXSXSXSXSXSXSXSXSXSXSXSXSXFXSXjX2X,X,X7XmXHXGXSXSXSXSXSXSXSXSXSXSXSXHXFXAXFXMXVXDXGXGXSXSXSXGXSXSXSXSXSXSXSXSX",
"SXSXSXSXSXSXSXSXSXSXSXSXSXSXSXSXSXSXSXSXGXVX6XL t 6 < < 0 c 6XGXSXSXSXSXSXSXSXSXSXSXSXHXjXD.L L L q.,XfXSXGXSXDXSXSXSXSXSXSXSXSX",
"SXSXSXSXSXSXSXSXSXSXSXSXSXSXSXSXSXSXSXGXjXq.9 4 y W W W y w ) 6XHXSXSXSXSXSXSXSXFXFXFXdXc 6 4 4 6 < , a >XmXHXDXSXSXSXSXSXSXSXSX",
"SXSXSXSXSXSXSXSXSXSXSXSXSXSXSXSXSXSXGXmX8.7 R 7.w.y.y.w.w./ R D.SXHXSXHXFXFXFXFXFXHXDX0.R R #.7.7.5.W 4 < L fXGXSXSXSXSXSXSXSXSX",
"SXSXSXSXSXSXSXSXSXSXSXSXSXSXSXSXSXSXDXeXr R 7.y.i.i.i.y.,.| ] r.rXrXrXrXrXrXtXhXzXzXhX>.( #.y.u.y.y.w.7.t < 6.MXGXSXSXSXSXSXSXSX",
"SXSXSXSXSXSXSXSXSXSXSXSXSXSXSXSXDXDXDXD.R O.w.y.u.u.u.r.2.r.L.I.I.I.I.I.P.I.P.P.P.P.P.3.*.*.w.y.i.i.y.y.5.6 0 7XGXSXSXSXSXSXSXSX",
"SXSXSXSXSXSXSXSXSXSXSXSXSXSXSXSXSXSXSX!.( [ ,.w.e.e.K.I.I.I.L.K.L.G.G.G.G.G.K.G.K.G.K.J.G.r.2.e.e.y.y.w.#.w 7 >XHXSXSXSXSXSXSXSX",
"SXSXSXSXSXSXSXSXSXSXSXSXSXSXSXSXSXSXFXgX&.( ] 2.L.I.P.G.r.-.O.s i u y i i y  . .&.:.2.G.G.G.G.r.2.,.w.#.[ k w ,XFXSXSXSXSXSXSXSX",
"SXSXSXSXSXSXSXSXSXSXSXSXSXSXSXSXSXSXFXHXgX!.G.I.G.-.W 0 2 2 @ 2 @ @ + @ , o o , 1 3 9 i X.:.2.F.r.r.&.] ^ R 9.kXFXSXSXSXSXSXSXSX",
"SXSXSXSXSXSXSXSXSXSXSXSXSXSXSXSXSXSXSXHXDX0XG.+.t 5 1 1 @ @ , , @ @ @ @ o o , o @ @ @ @ $ 9 ) ;.>.r.r.*.;.3XmXSXGXSXSXSXSXSXSXSX",
"SXSXSXSXSXSXSXSXSXSXSXSXSXSXSXSXSXSXSXDXrXF.s 3 1 $ @ @ , o o o @ @ o o , o o , @ @ @ @ O + + 3 ) :.>.0.Q.zXFXSXSXSXSXSXSXSXSXSX",
"SXSXSXSXSXSXSXSXSXSXSXSXSXSXSXSXSXFXSXrXr.t 1 1 4 4 2 @ o , , o @ @ , o o o o , @ @ o O O O O @ + t ;.>.>.4XSXSXSXSXSXSXSXSXSXSX",
"SXSXSXSXSXSXSXSXSXSXSXSXSXSXSXFXDXHXzXQ.s 1 2 R / ] ^ 7 o o o , @ o @ @ , , o o o @ @ 6 q 7 , O O O t ;.:.H.gXSXSXSXSXSXSXSXSXSX",
"SXSXSXSXSXSXSXSXSXSXSXSXSXSXSXSXHXDX5X+.5 2 ) } ] ] ] ^ 2 , o o @ @ @ o o o o o o , R ( ( ( ~ 7 X O o k :.:.3XDXSXSXSXSXSXSXSXSX",
"SXSXSXSXSXSXSXSXSXSXSXSXSXSXSXSXFXhXH.t 1 t } ] ] ] @.3XK o , o o @ o @ @ o @ o % +.{ ] ] ( ( ~ < X X 3 X.:.0.gXFXGXSXSXSXSXSXSX",
"SXSXSXSXSXSXSXSXSXSXSXSXSXSXSXSXVX5X+.1 1 R { X.6.oX#XCXq.o o o @ @ @ @ o @ o o p jX>X6./ ( ( ( w O X X i &.:.4XGXSXSXSXSXSXSXSX",
"SXSXSXSXSXSXSXSXSXSXSXSXSXSXSXSXzXP.s $ 1 D.$X+X@X@X#XCXL o o o o @ @ o @ o o o d CXuXOXoXK ) / k O X X 0 @.&.D.mXDXGXSXSXSXSXSX",
"SXSXSXSXSXSXSXSXSXSXSXSXSXSXSXGXrXr.9 $ 1 7XiXOX@X@XpXjX8 o , o @ o o o o @ o o a mXuXXXOXXXOX;X9.O   X 3 o.&.>.gXDXDXSXSXSXSXSX",
"SXSXSXSXSXSXSXSXSXSXSXSXSXSXDXDX5X>.3 1 + q.CXpX#XpXSXq.o o @ @ O o o o o o o o % 7XvX@XOXXX@XvX,XX     # ` @.;.4XGXSXSXSXSXSXSX",
"SXSXSXSXSXSXSXSXSXSXSXSXSXSXSXVX~.:.5 @ @ 5 ;XfXmXfXq.1 o o , 4 q w w 7 < o o o o K mXnXuXpXCXjXb   . . @ ` &.&.3XSXSXSXSXSXSXSX",
"SXSXSXSXSXSXSXSXSXSXSXSXSXSXGXMXQ.2.9 @ @ @ o 8 a 8 o o , w / { | | | } ] ~ 7 @ o o K 6XfXdX,Xb .     . # ` @.-.3XSXSXSXSXSXSXSX",
"SXSXSXSXFXSXSXSXSXSXHXSXSXSXHXDXQ.2. ., + o o o o @ , y { 1.2.r.r.2.2.2.>.*.} R 3 o   o % % X         . 0 ' ' -.3XSXSXSXSXSXSXSX",
"SXSXSXSXSXSXSXSXVXlXwXyXyXxXxXHX4X2.*.k 3 @ @ + , w ' 1.r.r.r.#.O. .O.+.;.:.-.} / e , O X X X       X , ) ' o.;.4XGXSXSXSXSXSXSX",
"SXSXSXSXSXSXFXDXwXR.S._.qXqXqXyXtXF.*.*.' R r ~ / | *.3.r.-.s 5 $ $ 5 9 s O.X.&.o./ ~ q , O       # 6 k ` ' @.:.gXGXSXSXSXSXSXSX",
"SXSXSXSXSXSXFXlX/.T.S.A._.S.`.qXqXqXJ.&.@.{ ] { | *.1.2.0.s 5 + o . . X 3 u ) _ ' / / / ~ k w q r k ~ _ ' o.@.Q.VXSXSXSXSXSXSXSX",
"SXSXSXSXFXFXFXyX/.T.A.B.$.v %. X'.[.].Y.' ' { @.} *.*.:.+.t 5 X . . . . # 0 i ) _ ~ / / / ^ ^ ^ ^ ^ _ X.o.&.D.gXSXSXSXSXSXSXSXSX",
"SXSXSXSXSXSXSXyX}./.S.%.m l m [._.E.(.~.A.O._ { &.&.*.:.+.u 1 + . . X X $ 0 i ) ) ~ ~ ~ ~ ~ ~ ~ ~ ' o.@.:.!.jXSXSXSXSXSXSXSXSXSX",
"SXSXSXSXSXSXFXlX X/.S.B.m x Z.{.'.'.E.G.4XeXD.+.{ @.&.;.+.k 5 $ + . + % 3 u k ) _ _ _ _ ^ _ ' X.o.&.;.!.eXMXSXSXSXSXSXSXSXSXSXSX",
"SXSXSXSXSXSXFXVXqX)./._._._.`.'.F.1.E E e.0X0X0X!.9.X.@.&.O.R u 0 8 0 9 i ) ' o.X.` o.X.o.o.;.9.D.4XgXDXSXSXSXSXSXSXSXSXSXSXSXSX",
"SXSXSXSXSXSXSXSXeX`.qX X X'.V.R E _ >.V.T./.).].`.!.8.l j c ..O.......+.+.+.;.&.;.;.9.9.3X4XtXjXVXFXFXFXSXSXSXSXSXSXSXSXSXSXSXSX",
"SXSXSXSXFXHXHXdXa 0 %.D.2.E R E E =.C.T./.).).).).'./.8.* 4 < 3 * g g g j l I I q.:X2XfXSXGXGXGXSXSXSXSXSXSXSXSXSXSXSXSXSXSXSXSX",
"SXSXSXSXFXHXHX,X# 5 7.Q E [ Q [ Q Y.(.(.E.{.{.).'.(.(._.Z.j g f f = & = f U *X:X<X1XiX9XNXDXSXSXSXSXSXSXSXSXSXSXSXSXSXSXSXSXSXSX",
"SXSXSXSXSXSXSX7Xa #.<.! K.4.4.L.! (.}.E.` U.).{.).(.(.E.E.M.S a.C & = B *X<X<XiXiXiXaX1XsXHXGXSXSXSXSXSXSXSXSXSXSXSXSXSXSXSXSXSX",
"SXSXSXSXSXSXSXDXi.! ! K.L.<.).W.<.).|.U.z v S.E.R.T./.E./.S.s.h.s.C d.1XcXaXsXaXaXaXaX&X9XHXGXSXSXSXSXSXSXSXSXSXSXSXSXSXSXSXSXSX",
"SXSXSXSXSXSXSXDX0X! t.].<.3.).t.4.)./.B.x x x v x %./.T.R.R.d.h.c.%X8XnXnXnXbXcXcXcXiXG 1XHXSXSXGXHXSXSXSXSXSXSXSXSXSXSXSXSXSXSX",
"SXSXSXSXSXSXFXBXwX<.).L.<.4.4.t.=.o.x j x x z j $.E./.E.R.S.M.-XaXbXZXZXZXZXnXbXcXvX&Xp.8XHXMXjXdXdXfXmXSXHXSXSXSXSXSXSXSXSXSXSX",
"SXSXSXSXSXSXHXxX~.4.{.<.K.).).}.).C.B.v x x z z V.(./.U.^.eXkXZXAXAXAXZXZXZXnXnXcX-XD S =X,XI d 8 8 p K ;XfXSXSXSXSXSXSXSXSXSXSX",
"SXSXSXSXSXSXHXBXI.4.].<./.|.|.|.|.|.}.%.x x x j m T.S.Z.D.<XCXAXAXGXAXZXZXZXnXvX8Xk.D p.P u 6 < , # @ + $ b dXSXSXSXSXSXSXSXSXSX",
"SXSXSXSXSXSXFXDXP.I.~.! (.|.|.|.|.|.}.$.x B./.B.m V.m 3 O + q.CXAXZXZXZXnXnXcX-Xg.D f.D P e 7 6 < # # O X + L CXSXSXSXSXSXSXSXSX",
"SXSXSXSXSXSXSXSXzXqX].<.(.|.|.}.|.}.}.B.C.).).(.T.C.e X @ X + 2XZXZXnXnXcX8X%XD D D D h.H w 7 7 < < # O + . 8 dXHXSXSXSXSXSXSXSX",
"SXSXSXSXSXSXSXSXDXlXwX{.}.|.}.}.}.{.{.(.[.[.(.(./.C.x O O X . T ZXvXaX-Xm.D D D h.D h.D F j q 7 6 < , , O X % 7XHXSXSXSXSXSXSXSX",
"SXSXSXSXSXSXSXSXGXHXxXyXqX.X.X}.}.{.{.{.[.[.[._.^.M.B * # X - :X1Xm.k.S D D h.h.j.j.g.j.d.j q q q 6 < # # O 8 dXHXSXSXSXSXSXSXSX",
"SXSXSXSXSXSXSXSXSXSXSXVXxXlXyXyXwXwX`.^.^.M.M.H Z C s.d.n m Y m.S S S D h.h.h.h.h.D g.g.m.l q q q 7 < < , O K mXHXSXSXSXSXSXSXSX",
"SXSXSXSXSXSXSXSXSXSXSXSXSXGXVXDXHXBXN.A C C C C s.n.c.j.d.M.s.c.j.f.h.l.h.l.l.h.j.l.j.g.k.H w w q 7 6 < , p 7XFXSXSXSXSXSXSXSXSX",
"SXSXSXSXSXSXSXSXSXSXSXSXSXSXGXDXHXHX=Xa.A A A p.h.z.v.v.v.l.v.z.%Xv.l.l.l.l.h.h.j.l.g.D G H w w q 7 6 < a ,XSXSXSXSXSXSXSXSXSXSX",
"SXSXSXSXSXSXSXSXSXSXSXSXSXSXDXGXDXHX8Xd.j.j.x.x.x.v.v.v.v.v.v.v.v.v.v.l.l.l.l.h.j.D k.G G H e w e 0 b D.dXSXSXSXSXSXSXSXSXSXSXSX",
"SXSXSXSXSXSXSXSXSXSXSXSXSXSXSXSXSXHXsXn.k.n.j.c.b.x.b.b.b.b.v.v.b.b.v.l.l.l.h.D j.G g.G G Y q.D.>X7XjXHXHXSXSXSXSXSXSXSXSXSXSXSX",
"SXSXSXSXSXSXSXSXSXSXSXSXSXSXSXSXSXSXNX-Xd.n.s.c.c.p.j.v.j.f.x.l.f.h.l.D D h.D D j.G D F U jXVXSXHXHXHXDXSXSXSXSXSXSXSXSXSXSXSXSX",
"SXSXSXSXSXSXSXSXSXSXSXSXSXSXSXSXSXSXHXNX8Xm.s.c.c.a.j.b.a.p.l.l.S h.l.D D l.D D k.Z B V 2XDXSXSXSXSXSXSXSXSXSXSXSXSXSXSXSXSXSXSX",
"SXSXSXSXSXSXSXSXSXSXSXSXSXSXSXSXSXSXDXHXVX2XU F s.G s.c.a.D l.j.S f.g.S G G Z B B > M M.NXHXSXSXSXSXSXSXSXSXSXSXSXSXSXSXSXSXSXSX",
"SXSXSXSXSXSXSXSXSXSXSXSXSXSXSXSXSXSXSXSXDXDXiXY J V B B B B Z Z f B B h > ; ; ; ; M U fXHXSXSXSXSXSXSXSXSXSXSXSXSXSXSXSXSXSXSXSX",
"SXSXSXSXSXSXSXSXSXSXSXSXSXSXSXSXSXSXSXSXDXDXHXmX2XT J N M h > > > > : ; > ; > > N N <XFXSXSXSXSXSXSXSXSXSXSXSXSXSXSXSXSXSXSXSXSX",
"SXSXSXSXSXSXSXSXSXSXSXSXSXSXSXSXSXSXSXSXHXHXSXFXHXVX<Xl J M h h M N > > > M M M h ; $XDXSXSXSXSXSXSXSXSXSXSXSXSXSXSXSXSXSXSXSXSX",
"SXSXSXSXSXSXSXSXSXSXSXSXSXSXSXSXSXSXSXSXSXSXSXSXHXHXsXJ h ; ; - - T 2XT ; > > ; ; ; P mXFXSXSXSXSXSXSXSXSXSXSXSXSXSXSXSXSXSXSXSX",
"SXSXSXSXSXSXSXSXSXSXSXSXSXSXSXSXSXSXSXSXSXSXSXSXFXFXmXI l > - * * 2XHXjXJ ; : > > : N sXFXFXSXSXSXSXSXSXSXSXSXSXSXSXSXSXSXSXSXSX",
"SXSXSXSXSXSXSXSXSXSXSXSXSXSXSXSXSXSXSXSXSXSXSXSXSXFXCX8.4 6 , o J mXFXHX<XM h h M > N sXHXFXSXSXSXSXSXSXSXSXSXSXSXSXSXSXSXSXSXSX",
"SXSXSXSXSXSXSXSXSXSXSXSXSXSXSXSXSXSXSXSXSXSXSXSXSXSXSX7Xd 5 5 J 2XHXDXHXsXP h M N h l dXHXSXSXSXSXSXSXSXSXSXSXSXSXSXSXSXSXSXSXSX",
"SXSXSXSXSXSXSXSXSXSXSXSXSXSXSXSXSXSXSXSXSXSXSXSXSXSXSXSXmXfXfXmXHXDXSXSXFX>Xp p p 8 p dXHXSXSXSXSXSXSXSXSXSXSXSXSXSXSXSXSXSXSXSX",
"SXSXSXSXSXSXSXSXSXSXSXSXSXSXSXSXSXSXSXSXSXSXSXSXSXSXSXSXFXHXHXSXSXSXSXSXHXfXd # # 5 D.AXSXSXSXSXSXSXSXSXSXSXSXSXSXSXSXSXSXSXSXSX",
"SXSXSXSXSXSXSXSXSXSXSXSXSXSXSXSXSXSXSXSXSXSXSXSXSXSXSXSXSXSXSXSXSXSXSXSXFXFXsX>X;X7XZXAXSXSXSXSXSXSXSXSXSXSXSXSXSXSXSXSXSXSXSXSX",
"SXSXSXSXSXSXSXSXSXSXSXSXSXSXSXSXSXSXSXSXSXSXSXSXSXSXSXSXSXSXSXSXSXSXSXSXSXSXHXHXHXHXSXSXSXSXSXSXSXSXSXSXSXSXSXSXSXSXSXSXSXSXSXSX",
"SXSXSXSXSXSXSXSXSXSXSXSXSXSXSXSXSXSXSXSXSXFXSXSXSXSXSXSXSXSXSXSXSXSXSXSXSXSXFXFXSXSXSXSXSXSXSXSXSXSXSXSXSXSXSXSXSXSXSXSXSXSXSXSX"
};
