/* XPM */
static char *a4ea447f04bc4fb0b9acc735ce73431aztim58qN7SYN2RPU[] = {
/* columns rows colors chars-per-pixel */
"64 64 208 2 ",
"   c None",
".  c #010100",
"X  c #090502",
"o  c #030A06",
"O  c #0C0B09",
"+  c #140A04",
"@  c #1C0D03",
"#  c #100701",
"$  c #1C1C1C",
"%  c #121212",
"&  c #0F170E",
"*  c #210F04",
"=  c #241105",
"-  c #2E1606",
";  c #29170C",
":  c #341907",
">  c #3A1B06",
",  c #3C1D08",
"<  c #311707",
"1  c #2B1D11",
"2  c #052013",
"3  c #382616",
"4  c #33162A",
"5  c #262626",
"6  c #3E3E3E",
"7  c #353535",
"8  c #322D29",
"9  c #411E09",
"0  c #452109",
"q  c #4B240A",
"w  c #472207",
"e  c #51270B",
"r  c #55290C",
"t  c #5B2C0C",
"y  c #472B18",
"u  c #48321D",
"i  c #57361C",
"p  c #632E0B",
"a  c #66310E",
"s  c #6B330E",
"d  c #72360F",
"f  c #78390E",
"g  c #693413",
"h  c #6E3B1B",
"j  c #683412",
"k  c #723710",
"l  c #743810",
"z  c #7B3B11",
"x  c #703E1D",
"c  c #632F14",
"v  c #5B3C22",
"b  c #0F4C2E",
"n  c #355533",
"m  c #265F39",
"M  c #11673F",
"N  c #34603A",
"B  c #7A451F",
"V  c #43492B",
"C  c #6D4A2B",
"Z  c #664427",
"A  c #72492A",
"S  c #7B4B30",
"D  c #7C5232",
"F  c #775532",
"G  c #68502F",
"H  c #566033",
"J  c #622A45",
"K  c #2F7547",
"L  c #444545",
"P  c gray36",
"I  c #797846",
"U  c #646363",
"Y  c #6B6B6B",
"T  c #7D7D7D",
"R  c gray46",
"E  c #823F0E",
"W  c #823F12",
"Q  c #823D1A",
"!  c #8C4313",
"~  c #864112",
"^  c #934614",
"/  c #9C4B16",
"(  c #954817",
")  c #A34E16",
"_  c #A04C18",
"`  c #A65017",
"'  c #A95117",
"]  c #AD5318",
"[  c #B45619",
"{  c #B65819",
"}  c #B9591A",
"|  c #B65817",
" . c #985729",
".. c #8A5D36",
"X. c #875B35",
"o. c #934D2E",
"O. c #AB5725",
"+. c #BB5827",
"@. c #B0523A",
"#. c #936334",
"$. c #A86637",
"%. c #C16322",
"&. c #D47A38",
"*. c #964948",
"=. c #8D464A",
"-. c #91704E",
";. c #AE7644",
":. c #A67E46",
">. c #B27845",
",. c #B2674C",
"<. c #9D7966",
"1. c #9C7662",
"2. c #B9554A",
"3. c #C35A41",
"4. c #C27949",
"5. c #C15670",
"6. c #158E57",
"7. c #1D995E",
"8. c #1A9F61",
"9. c #1CB46E",
"0. c #17B46E",
"q. c #1AAF6B",
"w. c #25B46D",
"e. c #3AB26C",
"r. c #4A9056",
"t. c #6A9152",
"y. c #45AA5F",
"u. c #48B26C",
"i. c #5DB26B",
"p. c #4FAC68",
"a. c #64B16A",
"s. c #6AB16A",
"d. c #78B26A",
"f. c #69A864",
"g. c #FF8629",
"h. c #E89139",
"j. c #919757",
"k. c #A3854B",
"l. c #B2934D",
"z. c #A2A151",
"x. c #A88A76",
"c. c #84AD68",
"v. c #89B26A",
"b. c #9CB169",
"n. c #92AC66",
"m. c #A8AE66",
"M. c #B4AE66",
"N. c #BCAC66",
"B. c #BCB068",
"V. c #C88648",
"C. c #D38E53",
"Z. c #CE9B5B",
"A. c #E79653",
"S. c #F39D56",
"D. c #F49946",
"F. c #E9A25E",
"G. c #FAA45A",
"H. c #C3AC65",
"J. c #CCAD66",
"K. c #DBAE66",
"L. c #D3AE66",
"P. c #C2B168",
"I. c #D9B168",
"U. c #E2AD65",
"Y. c #EBAC64",
"T. c #E8A660",
"R. c #F4AC64",
"E. c #FCAB64",
"W. c #FCA761",
"Q. c #E5B067",
"!. c #5F3A96",
"~. c #482BA3",
"^. c #1F19D1",
"/. c #211CD1",
"(. c #2F2AD5",
"). c #3B36D5",
"_. c #2E21C3",
"`. c #4338CA",
"'. c #9F7AA1",
"]. c #D05B8B",
"[. c #DB6089",
"{. c #DB5EAA",
"}. c #E361B0",
"|. c #E561C6",
" X c #EE64D4",
".X c #F465E9",
"XX c #F965FD",
"oX c #8E8E8E",
"OX c gray51",
"+X c #989898",
"@X c #A28686",
"#X c #A897B1",
"$X c #B4B4B4",
"%X c #A5A5A5",
"&X c #C8A18A",
"*X c #CDB1AE",
"=X c #D3C1B7",
"-X c #8F8DEC",
";X c #A09CE8",
":X c #A5A3EB",
">X c #ACABF2",
",X c #DCCEC6",
"<X c #DED0C6",
"1X c #E9DFD6",
"2X c #EAE0D7",
"3X c #DFDEF8",
"4X c #D2D2F8",
"5X c #DDD9EF",
/* pixels */
"                                                                                                                                ",
"                                                                                                                                ",
"                                                                                                                                ",
"                                                                                                                                ",
"                                                                                                                                ",
"                                                                                                                                ",
"                                                . . . .                             . . . .                                     ",
"                                                , q > X .                           . = q 0 @                                   ",
"                                              # Q +.( @ X                         . X p +.+.;                                   ",
"                                            + W ]. X{.Q =                         X a 5. X|.@.> .                               ",
"                                            + _ }.XX X+.- .                       X W [.XX.X3.0 .                               ",
"                                            + / }.XX|.O.- X X # X X X X X X X X X X E ].XX.X@.9 .                               ",
"                                              - o.*.4 < E W ^ W ! ! ^ ! ! ! ! ! ! ! 0 4 J 2.q @                                 ",
"                                              X a p , 9 Q _ _ _ _ / _ _ / ) ) / / / r > w f =                                   ",
"                                                X e +.] f a a s a a a a a a a s a a / [ ! +                                     ",
"                                              X p Q z f s a a a a a a a a a a a a a f z E E @                                   ",
"                                              > W W k z z k a a a a a a a a a a a z l d k / q *                                 ",
"                                            + / W p f ] } W a a a a a a a a a a k ] } ^ a s ) 0 .                               ",
"                                            + / W z _ [ } ] Q s a a a a a a a f _ | [ ' ^ s ' 0 .                               ",
"                                            > ^ z W | [ o.,.$.s a a a a a a p o.4.*.O.} ) s / t =                               ",
"                                        . < ) l p W [ O.~.:X*Xg a a a a a a p 1.5X`.=.| ) a a / d .                             ",
"                                        . : ' k p 1.*X!._.:X=Xg a a a a a a p 1.3X).~.'.&Xg a / k .                             ",
"                                        . : ' k p x.4X(./.:X=Xh a a a a a a p <.3X).^.-X,Xh a ( k .                             ",
"                                        . : ' k p x.4X(.^.:X*Xg a a a a a a p 1.3X).^.-X,Xh a / k .                             ",
"                                        . : ` k a D @X:X>X#X-.a a a a a a a a S @X:X>X#X-.g p / k .                             ",
"                                        . : ' k a p S <X2X<.p d l l l l l l l s A ,X2Xx.p s f _ k .                             ",
"                                        . : ` d a a g x x g z ] [ [ ] ] [ ] ] ^ a x x g a s _ | f .                             ",
"                                        . : ] / ^ E a a a z _ [ { ( ! ~ ! ] | ' ! g a p d ^ [ | f .                             ",
"                                          < _ | { / k k k / } [ ' z p a s / ] | ] l k k W { [ ' a X                             ",
"                                            = _ [ [ ] ] ] ] [ ] l a a a a s / { [ [ ] [ [ [ [ e X                               ",
"                                            + _ { [ { { [ [ [ ' s a a a a a ^ | [ { [ [ [ [ { 0 .                               ",
"                                            + ! ] [ [ [ [ { } ] z s d s d d ( { [ { [ [ [ [ ) , .                               ",
"                                              + W } [ [ [ } } [ ] ] ] ' ] ] ] [ [ [ [ | } ' : X .                               ",
"                                                e p k [ [ [ [ } { { { { { { { { } [ } ^ p t + .                                 ",
"                                                . . = / ) ) ) ) ` ` ` ` ` ` ` ` ` ` ' t . . .                                   ",
"                                                      * * = = = @ @ @ @ @ @ @ @ @ * @ # . .                                     ",
"                                                      . . . 2 b G i r r r C n b b o . . . .                                     ",
"                                                        O + b u.U.&.| } +.G.d.9.8.2 O O     X X X                               ",
"                                                      + ;.C.Z.K.E.G.&.+.G.E.d.0.0.7.j.D . X w r > .                             ",
"                                                    1 C z.K.E.R.M.Q.D.V.m.Y.M.d.f.K Z.V.v q a s , .                             ",
"      oXoXoXoXoXoXoXoXoXoXoXoX6 O 5 T oXoXOX        3 T.p.n.E.K.u.B.G.J.y.P.E.E.A.3 >.R.A.[ l s 9 .                             ",
"      $X$X$X$X$X$X$X$X$X$X$X$X%X+XoX7 +XU $     . b r.K.n K u.i.B.R.&...H.a.u.v.R.C.C N f.{ ` ' s .                             ",
"      T T T OXT T T T T '.t.'.T T Y % U 6 .     > H v.F.y M 0.e.Q.J.k.$.Y.u.y.z.G.R.u n t.%.{ ^ r .                             ",
"      . . o . . o . . . . . . . . . O . . .   O B &.E.F.y M w.e.U.s.d.R.R.u.k.g.g.G.u F A.{ ] 0 .                               ",
"                      . .     . . % U $ .   + W ` %.O.i ;.Z.J.L.R.K.:. .R.L.D.g.g.E.r.N 3 : - *                                 ",
"                        .     . % 6 R L 5 X - ! [ _ a + j.Q.E.R.H.B.k.#.N.R.D.h.l.M.d.N . . .                                   ",
"                          . . . 7 OXP OXL @ p g / s . o 6.m.E.Q.e.9.c.J.e.L.E.M.w.w.P.X..                                       ",
"                                $ 6 R Y 8 @ a a q -   o 6.b.E.U.e.0.r. .H.R.E.M.w.9.P.#.. . . .                                 ",
"                                  $ U U L 8 0 q *     o r.b.L.Q.s.i.t.$.G.J.Q.J.i.a.L.X.X * * * @                               ",
"                                    O Y oXU X X       + V.v.a.E.E.W.G.E.Y.u.m.E.E.E.E.X.+ t a a , X                             ",
"                                      5 8 5 .         O ..-.I >.;.;.;.;.:.I -.;.;.;.;.Z @ a a a t , X                           ",
"                                      . . . .         X C ......X.X.X.X.......X.X.....u + a a a a t X                           ",
"                                                      X C ..............#.............u @ a a a a t X                           ",
"                                                      X C ..........Z 3 3 D ........#.u @ p a a e =                             ",
"                                                      O v D ........i . X C ........D 3 + e r r > .                             ",
"                                                        O i ......#.u . O C ........1 . . . X X X                               ",
"                                                          1 i O.O.v 1     3 B O. .y @                                           ",
"                                                          . > ` ) : .     . a ` ^ +                                             ",
"                                                          . = a g = .     . , d t X                                             ",
"                                                            @ - < @         = - - X                                             ",
"                                                              . .           . . .                                               ",
"                                                                                                                                ",
"                                                                                                                                ",
"                                                                                                                                "
};
