/* XPM */
static char *result[] = {
/* columns rows colors chars-per-pixel */
"128 128 66 1 ",
"  c #358BFF",
". c #3F8FFF",
"X c #3595FF",
"o c #3C94FF",
"O c #379BFF",
"+ c #3A9DFF",
"@ c #37A2FF",
"# c #3CA4FF",
"$ c #36A8FF",
"% c #3DABFF",
"& c #3EB2FF",
"* c #3FB9FF",
"= c #428CFF",
"- c #4394FF",
"; c #4A93FF",
": c #439CFF",
"> c #4B9EFF",
", c #42A5FF",
"< c #4AA5FF",
"1 c #43ACFF",
"2 c #4AADFF",
"3 c #52ADFF",
"4 c #59AFFF",
"5 c #44B3FF",
"6 c #4BB4FF",
"7 c #45BAFF",
"8 c #4CBBFF",
"9 c #53B4FF",
"0 c #5AB5FF",
"q c #53BBFF",
"w c #5BBCFF",
"e c #64B7FF",
"r c #63BDFF",
"t c #6BBEFF",
"y c #70BFFF",
"u c #46C1FF",
"i c #4DC2FF",
"p c #4EC9FF",
"a c #53C3FF",
"s c #5BC2FF",
"d c #54CBFF",
"f c #5BCAFF",
"g c #57D3FF",
"h c #5FDAFF",
"j c #64C3FF",
"k c #6CC4FF",
"l c #65CAFF",
"z c #6DCAFF",
"x c #71C5FF",
"c c #7AC6FF",
"v c #71CCFF",
"b c #7ACDFF",
"n c #66D1FF",
"m c #6ED3FF",
"M c #6ED9FF",
"N c #72D2FF",
"B c #7AD3FF",
"V c #74DAFF",
"C c #7ADBFF",
"Z c #75E2FF",
"A c #7CE1FF",
"S c #80CFFF",
"D c #80D6FF",
"F c #82DBFF",
"G c #88E2FF",
"H c #80E9FF",
/* pixels */
"111111,1%1#1569ssjfjllkzzmzzzzvvvzNvxvvvzvvvvvvvvNBNNNBCCN62566756qq669q99r00sss99<3<22211111515577&7u568577758i8i7761a96q711511",
"1#511%%%#1111qqsjslljzzzmzvzzvvvvzvzvvvvvvvvxvvvNNNvvvvBB2,7656869qqq9qq9qwsw0ssq2299221<1165%5&&5&55u867577i6i8786556i8965511#5",
"%#11%11%,%1516wsjrrllzzNzxzvzvvvvvxzzvvvNvvvNNNNVNvNvvBC7:155577q966q8990w0w2sda2q99322<5#15%55&%7&u575557i1756565576iq889611##5",
"@1@#1##1###123w0slejlkzzvzzzzvvkvvvvvvvNvvvNCVNvNBNvNbD6:1561568826q8q99qq00adia5943<<12155%5&&757*77555u51516qqs99578q85q5,##%@",
"#@#%@##1@,11890jrjllzzzzmzvzvxvzvzvvvvNvvNCCVNCNvNVvBF6-575,555156668qaaaq8,8ia752222<1%155&&75&&&u5%17652,9q9w0qq68q786881%%@#1",
"#+######%#1269wslljzlzkmvvzvNNvNvNvvvNNNNVNCVVvBvcvBFq<5551551%#,#,111111,++&8a6@,1<<,1*7&&*&&&&7u%#1551,<226669968aia86551###@+",
"+@##@+#@1%,699wjjlkzkzzzvNvvvNvNvzNNNvNNVCVNNBvvbvBDs<511651%%%##,@#@+#,+,+#5875+##,,177&*&55***&++,55,,1522<515<6a86i77661%###@",
"++#+#+##,1,66wrtkzzkkzzNzvvvzvzvvzvvNNVBVVNvvvbNNBCN<1565551%5%##@#+#@+++,#%5762+#,,+77&&7&&&775@+#,,+,111,2511558688818551###+#",
"@##++@+#,1166wjrkkkzzvvzNzvvxvvxvvNNNNvvvvbvvBNNbCB5,167711&%%#%#@+@+#@,+#+,5661@#+,15&&*5&571#++,+,+,11,15111,166865158251+#@#+",
"#+@+#@###1,<qwwlkvzvvvvvvNvvvkvvvNNvvvNvvbvvvvNBBBq,,571551%511##,###+##+#+17565+,,+5&&55&77%++:,+:,,,,1111,,116651+,#%5511@@#+@",
"####+@@#1,,690jllkzvvNNvvvxkvNvvvvvNvvNNNNbNvvvCCa51,155155%1%%###@######+##5616@#,%&&5&&75#++#+#:o##1,111,##12111#15511711%+###",
"@#####1#,163900jjzzkNvvzzxvvzvvvvNNvNvvNNvvvvvBCa57155555%15%1%1#11#+#+#,#%#2717##%%&*&&&%#++,+#++,,111111,,161%,#%,,1,615###@1#",
",###1%,11126900rjkzzNNNvkvvkvzvvvvvzNvvvvNvvvbAi588755155%55%11%1%#%#@+@,###56161##5&%&1#@+,#+:,:,111,11+#166111%11#1#11111,11##",
"1,,,1,,5,2990wrrkvNNzmmzNvvvxvvvvvvNvvNvvvbvbDp%8q65555517555115%1####,#1###65251#%&*%%##11#,,,+,2#1111111651121,#1##111111111,,",
",1<1,6223699wjlkkkzNNNVMVkvxvvxzkvzvvvvvvvvbB85%iii55&555%#%%%%##151+%##%@@157656%%&%#11##+#,,,,1#5887522q512<11,,,#,,1121,21121",
"62<66<26999wsjjlvvvNVNNNVNzxvxxvvxvvzvvvvvbC6+7%5u85&5%15%5%%%5#1%%%#%5%###5665655%%%%#@1#@,,:o11ii62<58622686<,12,1112122,262<2",
"2299993999sssjjlzNvNNVNVmZzvkkvvvzvvvvvvxNB6:#5&77i7&51%5%5%%1111%%#5@11%%+1815765#%%%#%%%#+:+58a68888q67966<252<<62<52266622992",
"00q909qswwsjjljzznNvvNNZNMNmvxvxxxvkvkzxbB6:,%*%&5i8%5&%%%##%%%%111#%%%&%%#56%17651%#%%%%#%##6i6i869q888q6q96<9662266<2223399999",
"w00wwws0wj0wsrjkklvvxzzvNMNmvxkvzvkvxzvbv9:,#&&&&&87&%%1%1%5111%%%1%%51%5%166%%16651%%%%$%5+1q6a6qdaaqq8qq8669<29996929299999900",
"0wrwjwwrfjlllzlkzkvcvNvNVVZMNkvxvxvvvxbB6:###&&&&%777$%1#%11%51%5%51%%1%&%58%%%,587,%&$&71,677889aqqsqqq88q9<2366399999999w00www",
"jrrwzzjljjlrljkkkkvxkvxzmNNMmmvvxxvxvbB1:@%1#%&%%&%7i@5%1&#1%%%1%%155&&&&5581%1%%67855%%5#655686qqwswqsadqqq299909999099q00000sj",
"jlnzkklzkzzzzkzkkkvkxkxzVZMNmVvzzxkvvB%-#,,%%%&%&&#58%%%%1%511%515%%55%5%576#1%%%58iu&&&168551qqqq0qqdsaqq9qq999990990ww0wssjwwj",
"zNxxvzvkvzzzkvzzzvvkkkxcNVZmmNNkxvxbB:-@#,,,%&#75&$%76%&%&5%%5%111#575&55781%55115788u5&17256699q99sssssq9aqq90909090wwwwjwjrljl",
"zkvNNvkvkvvvxvzvvzzvvttyNMmmNmNvxvbv#:##,##%%%$7%%#@75%&5151%1155%155&5%8885#15555&578512666999999sfaww000fsqw999w0w00rwrsslllnn",
"kmNvvvvNNvcvvvvxvxvzvkxkmZmVmmmvvbv,o+#1,###%%57$%##%51u7&551151555577%7878755555%%&6518656qqqq9w3ssaww0w09swq9www0ww0rrrjlnlnlx",
"mzvvvNvvvvkvvvkvvkxxxxtkkZMVmNNvBz#+#,#,,#%#%%75%$%#@55%*7555515#,15557iii88&&5&%&&&18762666q9q0w3ssw000w03ww0w00w0wwwjjlMnnzzzv",
"vzvzvvvcvvvvvxxvxvxkkkxxzzZNNmNCv#o#%##,152%#781$%###55,%u51555577555&5a7881&%&%%%%%#766562qqwww03ssw000000sswwwwwwjljlnlzlMmzzz",
"vmvxvvvvvvxxvvxvxvxzxxxxkxNMVVBm,#%1#1#175515775@%$@#5511*u557711551767u877%%&%%&%&%1151629q9www00fww00w0rw0swwswjrrllllznmzzzvv",
"zvvxvvvkvvxxvxvxkzxkvzkkkxtZVZM5#$%##%11266s581i7%%$165161%p757i6587717q787#%&%%%%%11%1526qqw0r0e0swww00r000wjjssrjllllknVNzzvNv",
"vvvvvxxvxkkvxvkxvvkkzkkkkkxxAp,%&&&%##%%%15i57551###@55511,%i77pd857519888%%&&&&%55111152q69s0wrr0lwwr0r00erj0jsllllnlnmNzzzNzvz",
"vxvkxzvxxvxxvkkxzzvzkktkxycvq7&&&&&%%%&%116a58&@@%%#%#11525,%****558568qq5&5%5%%%5511112529wwwjrreljj0rr0rr0r0rjjjllzzzmzzNNvvvz",
"vkvxvxxvvvvvxvvvvvkkkvkkkcx5 O**&&&5%%%#@,757%#%%%@%%#@@#1555%*87785<98611%55&1551151165269wsrrrrrrjjjwrrrrerrrjllzlllzmzNNNNvkv",
"vxxvxxxvvxvbvvvvvvkzkkzxcr@@+X+7&&&&%&$#$5555@&%$%@%%%##+#755#77uu82,qq21555555%51611665296wrwrreeelrrrrrjrejrjjjlzlzzzmzzvvvvxx",
"xzvkvvvvvvvvbvvvvvvkvxxb6O$#@oOX%7&&%%&%575%@#%%+%%#%#%++%155+1&uu866q8115571%5155517622699wwrjkrrrrkrrrrrrrkrrjterkkkzzzzvvxvvv",
"xvvkvvvNvvvNbvvvxvvxvbz$+#,,,O+Oo+&&&%@#565#$%%%%%%%%%%@+#122+,55i75qq515<5157155155665686qwwjjrrekeljjjtretrrrkxvvBvxkkvvzvzcvx",
"vvvvxvvvvBNvvvvbcvvNbw%$#11,,XO+@@+@&&#871@%$%%#%$#%%$O#%@,55%1,55iia811155115555566866999w00jkrekrttktrrerrezkvvbbbBbbbvkvkzzvv",
"vNvvNNNzNNNvvvvvNvBN6@OOXO#11+X+++++#@561%#@#@@%$%&%#@#%##%1111151#5875778111,22669q96699awwsjrrtrrretjtrjtjlkxvvBvbbbbBBBvNNvNz",
"zNvvNvNNNmNNNNvvBBk%+XO++O+,1#XOO++++,551@#%%#@%%#%%1+##@%@56#1611577#55751,1111259q69qqqwwwrjeetktkttjkktrkzkxxcvcvcbcbcvvNmNmV",
"NNNVNNNvzNvzzNvvCw:++@++@OX#11O++++++161+@##@#+%&%%1%###,#@111111566711111<512,2299qq9qwwwjsjrtrkrkttttjkjkzkxvvxxxxvcyxxxvNNmNm",
"mzzNNmvmmzmNvvBA&-@@+@#@++O+,<+O+OXX,15#@+#@#@+%%%%%@%1#1###15@,6q96,1152,<<293999w0w00ssssjjrejkttrtkttkklzkkkyxkxxxxxyxxzNmNmN",
"MNNmVMNmVzzvvBv+o%%##@#++++X,1,X+++@,1+X+@+@##+%$%&$#%#@11##15o5568q,,1112263923999wwjwssjjj0rerjrtkttklkkkzkkttxxyxyyyyyxkvvvvV",
"NNmNmNmvvzNvNvo+%%#,,,#@+@+++11X+X+,11O++@#@@@@%&%%%1%%###,1,1152662116652699699wwwwrsjrlljwrrekttttktkkkkkzkkkxyxtyxxkxykvNNNmN",
"vzvNvzmzzzvNB##%%%,11<,1#,++X15,OO,12@O@+@####@%%&$%%#%1#11,,1122522,1296932999000wrrjllljrrrerrkrjtjkktzkzkkktxtxyxyxkvvvNNNNvv",
"vNzNNmNmNNBB1+#%1#1,,2<<,,,++#11#,115%$&%%###@#%%%%%%%#%111,,1225<662526qw9390900w0jljklletertteerkkzkjklzzkkxttyykxkvzmNmmNNvNv",
"zNvNzmmNNBk,#1%55112<622<<1,@o11117u&$&&&&#$#@#&%$&%#%##,,,1<266922662290wwwq00000rjtlkllkjreerrlkkkjkzzkkxtkktyttxNzzNmNmmvzNvv",
"NzzmNzNNC0 +#%51#111129651,,,o165887$&$%%$&5##$&#5%%111,112<222666339269serw0qwww0jrrjkkllrjllkljlljkkkjzkkxkkxttvvNmNmNmmNmvvvv",
"NmvvzNBB0o#%&&%%155229666<1<11,q7787&$%$$%$%%@#&&%#%%11,1122229399992299qrre0r0rwrrrltkrjkkkkzlkkklkkkkkttkkxktkvNzmmmmNNNNNvvvv",
"vvzNNCN&:@%#%1#551226qq996222516q855$$&&$%%%1@%&&%%%111,22229299999993999wrjswwwrrrrjjzkzzzkllkllkkkjkkkkktxktyvmzmmmmNNNNNmNNmv",
"mvvBCl1###%11%1151625wq666966655ia65%$%$$%$%1#&%%%%1111122699999903999999wjjrrrwrrjrtkzkzzzlklkjrkkttttktxkxktmmkmmvVVVNNNNmNzvv",
"vCCn5#%&#1#@11,167693swq9q6669528886%%%%%%%51%%%&&511%5122929999090000000wrtkjjljrrklzzkzzkkkkkkkrkjkkttttktkmVzzmzNVVVNNNmNmNzN",
"Cl%:5%75++@%#,1569999wwa9a7qs6625q88%%%%##%&51%&%#&%%<12662999900q0000000w0lkjkjjlklkzzzzkzkkjkrkrtktttktkxxvNmMNzmNNVNVVNNmNmvB",
"*:#1%&&&1##,#151<5<99swwq69fq6622q88%%%$#%@11%5&#%1115562699q0w0wj00wr00wwwjkkkklklzkzzkzzlkkkkkkktkktxtxxtkMmZMzzzNNNNNVvzvvBBN",
"#1&5&7&%11##%%11252<<986qisa6992268q%#%%#%##5115111,51551q69qssjlzllwrrwwrwjllkkzkznzmzzzkkkkzjkkktktxttkykNmMMNkNvvNvNVNNzBBmd1",
"%%&&5&5%151@%%1151552236qsa6q926666851#%#%%%11555#515222699dsswjlllklrrrjrjjklkkjzzzvNvzklkllkkkkrtkkxxxttzmVMVzvzzmNmNVCCBN&%%@",
"&5%157&##6,+%%%111<<<23qsd889996229871%%%##111%7&%5155656qd9qwrjlklkzljrrjjkzjlklzzzzvvzkzzkkkttkktkktkttzVnMMVvzkvNzNNBHBq%%7&@",
"%&55&5&%#55,@11125522<9qaq9wwqq8958qq1#,###,5557711116226699qqswrjljll0jtjjlllzkkkkmzNvzzkkktkkkkxtxxtktkVmVmVzvvvzvvbHCd6#155%%",
"5%15555%+181@115551<<6ww92asawqq755q82,####,15557151261qa86q9wsrjlmklljjrlzzzzlkzznzvvkkkkkkkxtkkyxkktttVnVMmNvkvzvvCNa,,5#57##%",
"&5&%&&%#+#65%5&1525<9qq9225q9q989968q9#,,++12585515155596q999wswjzkzetlkjznzlkzzzkzNNvNkkxkktkkkkkxttxkvMmVMCzzkvvBB9,:571%61#%%",
"%5%5&5#@+#56%1151656qsq62335aaq89825681#,,,+8575811116566q69q0wwjlxCertjzMzzzzzzkkzmNNCvkkkkxkxxxkkxktvNmmVVzzvcvBz#:,557,16@+%%",
"%%%&5%1#+#165&57512aaw92565<178i6551561+#++#i62775156266889999wwjjrrjtrkznnzzklkzkkVNBBzkkkkktkkxtyktkVzNmMNkvbBk5%,#&576+61#@%%",
"%%5%5&1%##16i5&5758aa768865655127852566@#+##56a778125669969990wwwjjleerlzMmzkzkvzvkNNNvxxkkkkkxkktxtzmvNVmmvbBl%1%5#%%55111,@@@#",
"@%%1&5%111178p7%5uii81575676121:,,1,,561+##%65u56722666689q99qwwjrrjrttklzmzzzvkkvkvNNzzkkkxtkkttkkzNvNNzNNbj+.o+65%11%8+65@++#+",
"@#@@##1,151<q9pd77apu87677666111,,#@#115#155567878162866q69900wwsjrreerklzzNzzzkkxkzvNxztkkkkkkkkzNNvvNvbBk+-##%##57#%5#211+++#+",
"@+#@@##11199wwqaddpp5uiu86775111%1,##%25555156qaqi56699999q0qwwwsjrretrjzmzzzzzxkxkkvNxvkkxkkkkkvzvbvbbBbw:o###,,%66555,12#+@+@#",
"+##@###1,29<9q096ffau75557512111,11,1,565155,97888<669q999qwwsw0wljjeekkkmzmzzkzkzzzzvvxkktkkkkzmNvvbBBj<>:1%,##,1#6i651,<#++++@",
"+#@+@%##@1612q999257ipiui51111,1,,111156iu%,1566q826q69qwqqww0wwjljjeetjzMzzkzzkvkkzkztkkxykzzmNNNvBBb2>,2,,,,111#1786<1,5#o+##+",
"#++%,@@,21212q9swq6+@155515211,:11,11,,565#,1568i86q9qw99ws0srjwjjjjeetrnznmzvkzzkzzzzkxkkkkmvNNNvbB0><<1111,1,1111%76,112++#++,",
",##+#,1,#1<,,9q99w21,#:+##+:,1,1,1111,%5585,5566899q9qqqwwwwswwwwsjjeettMzzzzkkzkvkkzkkkxkmvvNNVABz<<<11<12<,,<111156i6<22,##,#,",
"#11,,1#1,12<<6w9q921<,,#+,,,,+,1,,1115%%77511166q8qq99w0wwsrwjrrljrjkettmmzzzzzkzzkzvtxtxNNNNNNCC2><<,<1<5<12,,1,155588622,,+1,#",
"222<11,1,2,223w0w9<<,,,,,,,,,,,:11%555%15575,1686q9qqqsw9swssrrjrjjjleteMNzmzzzzvkzzzkxtNmvvBCAV<-,,1,5211521<,,,5q118aq92,,<1,,",
"3333<122,<222<qr0921,,,1,++#,,,,1%55151178826258q89qwwwwswjjrrrjljljtkeemmmzzzkzkzkkkkxtmVvBCCs6:,,12,521252221269q515qaq3<<<<<6",
"33335<2226<2<>qww9,<,:,,,,,11,11%15%5557285556666q9wsws0rrrrjjrjjkjkkkttkVNzzkzkkvzkxkkyNNBCZ22q1,12<22<222<322<9q5<16d9sw332333",
"e33326<229293<q9922,,,,,,,,,,,,1%77575156q71566qq9wqswwrwrjrjjjkkjkjkktkkxmzzmkzkzkxkkytNNNz<276<2122122652262<9a962518q9s93344e",
"e499936623363<9q9,<,,,,,,,:,#,1%7557557578816868qqa0wswjjjlrlklzzkjkkktkkkMzzzkzzkkkkxkyBNl<15861<5<12566229626qq225625d8q9340e0",
"e34w00339q099<9991,,,1,<,111,,1&857515555qq555668qwwwjjjrrlkkjkztjjkklkxxtNNkzzkvkkkkxkkvj2155912222625551668,as8666<55qq81290er",
",,3r0w966qq0936921:,1,,111151%#555555751766681a8qqsqw0srrjrjjkkzkkkzkkxxtkkvzzvzkkkxxkyt3555565,,1115525688u5afqiiiia868q8521123",
"1<<qw0599qqw932sq<,<6877757iui77&&5567656<855686qqq0wsrllrzlkltrklkkkzkkkktvNzzkzxkvxtr0:55515<,<15516668775ugd766888iiiq851,%,,",
",112226qsw9w99qq65ii77877uu7777iu5575555568158iqaqwssjjrjjkktkkktkkkzxvkkxtkzzzkkkzxkt0o@15755111511155778u8fd87uiaq8q78gf6,<2,,",
"11,<262wws00038a8iui86777677757u75557511561298q8qwww0rjlltjjklkzkkkkvkxkxkkkvzkzxkkxr0,++115511111657556565ada8q8q7ia888dda11211",
"<1111129wsww99sfdaqafflssqi888u7777571555622688iqwj0llrljkkkkkkkzzzkkvkxkkkkzzzzkkze0:@++#5511%51175677676ifq58dfsaq68u78ai861<1",
"1<151116w0qq0fhfaqs0sse0jjfds87558875555561128qqswwljjrlklklklkzxzkvzxzzkzxkkvzkzkkr3,X@#@1211157u5576766qfq6qw99aswqq8i8d8771<2",
"15<,115189afsdfsjjllklljjsrjfa9655257656662226qddssjjlllkkkkkzkzvzkkxzzkxkvkxzmkzkr01#+#+#,15515117616888da6qqqqq9sajjq26ad56u51",
"1,55115568ssdfflllkjjjrrjjsrwwqw96632556666266qaqssjlljkzjlkzzkvxkzvkvvkvzxzkxmzzrw315,+@,#1111568858696wa696qqq8q9llrsq5qa55571",
"11125,5756qsalllljtjjjkjjrjjw99999696526662668qassrjjjkjkzkzzkvzzkvxkkzxzkvzvzvNkr9,155@@@%155577762765aa869899966qkkkkw6qp57585",
"5551656776qqalllljjjjjjj0jwww0099996q6665q69qqsqsfjljllzjzzzkzvvkxvxvkvvzvzzzvzNzr2+@561#%##5555566575qaq599q66666skkkkw5aa55555",
"#55515675555sflljssjjjswsssqqa9q9999969999q9qqwfwjjlkkkkzkvkkvvkvvvvvxvvvvvvvvvNzj#+@165###15%5577565aa8<166269521wljll95ia7%571",
"1111,q865772jlfffl0j0srssq9q8qw9999q9q99999swsjfsljzvzkvzzzkvvvzvNNNNvvzvzzvvNvvmso%#@671%#5555551159q6156616662122jjrr96qq8%555",
"15%%50576558ffssfsqqq0qsad89qqqq39099q99q9qqwjjjjzjkzzvvzvvvvvvNvBNBBbvvvvxvNvvvm51#1%167&55&755567aa61255<556<2522296626i881&5%",
",1118856557qfjssassq6qqsqaq6qq9qqw90w990wwwwwrllzzzzNzvvvvvvvvNBvNCCCCvvvvvNvNNvz:111%#8q8&&155516qi625121252551<522598i658q1%5%",
"11126855777qq096qsf8986sdaqa8989qw00wwwww000rrkznkmvvNvNNNBNBNBNBBCCCCNvvvvNvvBNs,1%5555i855551&iq825551551,2<1<611111,11,685&51",
"757711175aq5511q86qd8786qa7ia26daqsw0wssww0retkvNNvvvvNNNBBvCBBvvVVCBCvvxvvvvvbv,15u8ai8adi5578aa75526685<221,1512,1,,,15#885%15",
"%1#,%%5adq%1%1,2q56qa667iia88a99awqss00w0rrrkxxkbNCNBNBBVCVbCZkvvNBBNVNxvNvvxvbB.11575568ddfdd88512265515761,11511<11152116871%%",
"#%1%1q66a865%1%11558qa8888ii8aaawsdwjssjjeetxxckvBBNNBBvCCVCCVvxvxFGBBvxvzvxkvB5:55668q9qdfddswq2551265982,552,11<1<<111115iq,1%",
"11%#586511,,###%,5516q87ui6i8a8asasswfljjrkkcccyxvCCBCCCCBBAVvxvvxvBBNvxzxvxcvB-11566qaqssssfqwq2966526515785,,2,11111,1,17871#1",
"1,#1q665##,11#%%+##1178q7iiaiiqqdswsfslnljtkcckkccBCCACBVCNABxvvvyxxvBvvxvkvvbv-11167q8qqwsfsqqs969662516i81265111,<111,117666#1",
"%%%5665#1,,26#%#@#%%1168qii8qiaadfsslllllzltktxxvcvBCBCBCVAAxyvxkkvvvvvkzxvkvB,-,115566669ssaqaq9666955ai558u87651121111%55667%#",
"##5886,#%#,15####,###,1<6aidiaaassfnflllnnkkkvvcxbcBVCVVVCBtykkxkvzzmNvkkkkxxF=#111125555qsss6qda6568i7557866768u8u1,,151#56886#",
"78i6,1#1,111,++###,,#,1161qiiaadassjlnnnzmnNcbvccccbBVVCCcyxxxkxkvvvvNxxvxvvBw-11155566299sw996qaa8658d5686886886788611151876867",
"6q5%,##11,,#:+#@@#,,1,,11126qasdffjflslzzlmzvvccvcSSBBBvyxxxkkxkkxxzvzzNvvvvC+#%155555656ww96669ada66888576qqq76i658875%%%787678",
"q7%%1%1,##,,1,+++#,#,<,,121<8dfsfssfljlljlkzkvccbcbbccxxxtxktyxkkxvkvxNzzvvvB,&&5%555555qaq98q68qda7876u55i668956q5iq665%57q6586",
"1#%1%%,#1#+#1,,+##+,,11,5<2633qlwsswwwjejjertreteytkkyyxxxkxkxxkxzzxzvNNvNzBa1&*&5%&5557ad869q886affqqda8d7i888958856q921588768u",
"%7511%11:#11,1,@1,##<,,,21222909sjsjljrjrkklkkkjtyexxxtxyxkxxxkvvkzzzzzkzvNC&%5&&7777158aaq68aiidufllfadqi58768892q688898578au75",
"757i8%#1%1,%,,#o#%1,11,11<<2399000jllklrlkjkkkklvttkkxctyytykxkkvzvmzvvzzkvN+1*555555558q67q8iad8fwdfnwqa8i58656q<q862966<8dii17",
"5&&8i8551,1,,#,+@,,,#,,<21263300rrr0jrjjrktkkkkkkkkxxkxcyyxtkkvxkvzkzvzxvvB6+&&55%51519a857qi8ppasq8jzl8i8767688a929966969a8i775",
"7555q85551,,,1#+1%1,@,<61<29990errrrrrrkjkjkkkvkkkzvvvvvxyxktyykzzkkzvkxvxb1o%%%&%&151qi178ii7pddq6swslf775588886829662966qqi577",
"7775uii%&75111##557%%86632390000rrrkrkjkkrkjxkkkkzvzvvvvxyyxxxtxvkkzvkzkxvj#+%%%%%%&&6q1<56aa8iip896saqfaq67766q6q29969936ws5u77",
"ui7u7fpi&7555%#17u875763399000rejetjtkkjtkkkkzkvkkxkxvvvvxtyxtxzkkkkkxzvvb0+#@1##%%#5i616588idpaa6999wsfdq588669q5639662669q1ip7",
"7u75&aiiu%*u*upa7555788699000wrertjrkrtktkkkkzkvzxxvvzvvvNcekzzzkkvkkkkkxv#+$@@%+#@%785155u7ipu690q632ws2ag76882q656929629s965au",
"i857*7iip7u77i787666q66asww0errerkrkkkkkkkkzkzzxvvzvvxvxvvvkxxzzNvzkxxkxvro+##@%+@#588%15677u86qq823336268aa656q6662639259wq21a7",
"7uuuu&7udi7u869686q8q669qsjrr0rjkkkklkkzzkkkkzzkvkvvzxkvvxvcxxvvzzzzkkkcz%+@@###++#585155558i8q866396993687ds9566266222969s629iu",
"77u777*778d62366668q999w0jlrjjttjkkkkkkkvkzkkkkzzNvNNNvxxxvvxkxNmzzzzkkv0o++####++,85%5555578a61336622922687qd86592266<629w9235d",
"u77uu77515696696qaqqqawjljrlzkkjzzkkkzzkxkvkzkzmzNNzmNVVxxvxzxvtmNvzvvbvo++###,@@#27%%711578652<5932399992786dsq2<6962626ww2961u",
"765511112118w628qqqq90wjjzzzzlzkkzNmzzzzNNmVZVVVZZNVVNmmVvkxvxxkvvmmvvC% @#,###++152#155755152269632q339935869qq9226266229w6,a76",
"6666551561<29qq696q99qw0jkzvzzkzzkzNNmNmmNMVNVMVCVCVVCVVNZNxcvxxkvNzNCs##+#####+#55,@%5555512669<22966866926866qsq6292639qq1dau6",
"8665665111511q9698q999wrjlkvvzzzzzvvmNmmmmmNVNVCCCCAZVCCNNCvkvvvxkNNVZ:$&%+%1@#+#56##15515515526562226q6q8268662qaw6<5122q5qp8q8",
"76665526516661q68qq9q90wjkkNvzzzvzvzNvmNNNMVVNNNNNCCCACvNNVZvvxvxxvBC%#7%5&%#%@#161##151512512655262266qq626166229w992229qa7u867",
"655256555525555q9qqqw90rjkkvNvzvzNvzzNNzmVNNNBBBNCVVBACBBNNVNvvvvvxB51&&&&&%1@+@651,11515115525<22625666588212522<9qqw6<q8d77a56",
"96866662<5566666qqqqq0wrjzzzxvvvzvzvvzvNmNNvNNVNNBvNBCCACBBVCvvxzcBwo,757757+++1661%2865512525252562665996622<<11,,9q9966di87818",
"56562165552671668qsqswwrrkzkzNzvvzvNzvzNvvvNNBNvNNNvNCBBBvNVVBvvvbj::#%575771%+878178966551152125<166587888<211<,1,,6q98aiau8166",
"66126552615665666qwswjjrjkkzNNvzzvzzvvvvzNvNNvNvBNNBvCCBBBNBVNvvbv1:1,11*5755119q71666622151515526556286688,2<<1,<<<<66aaia71565",
"5661566551555696qqwsssjrjjzzzzvNvzvvvzvzvzvNNvBNvNvNvNBNBvBBCNcbB5:,,,11&151&%1ii55669996551111551666658886,21,,,,,1#5ai8aa71562",
"65165,66q61162566qssjjjllzkjvvzzvzzvvvvzvvNvvvvvvNNbBvvbvNNNVvBCs-,155267787i5ada612299sw2<1521266175566586652<<<<,,55qqii855151",
"1111567571556689qqsjjjljjlzzzzvvvzvvvvvvNvxvvvNNvBvvvvvNvCCNCvDs,16669q6q7865<aaa999269ww,115<1511667655ii<6822,<,+6618i8i815551",
"115111666681166qqwwflljkkkkzmvNNvvzvvvNvzvvNvvvvvNvvvNNNNvCVBDv;11526589368885sdq<266<2221121115155165668u6559q2:,67556iaa726251",
"11111#15525q666qqssjjllllklzzNzvvzvzNvzvvvkvvvvvvvvvbvNBBNNBFk;15<62999999saqawdq26352<23211152115557278679665q81585512iii655515",
"511%11,1651776qqqsfllzzlkjzzzvNvNvvvzxvvvvvvvvvNNvcNvvNNNNBCN:,15566q9www0rs0wsa33632222<111111155555558i68666788655115qaq755525",
"11%1%11#1765q79qwslllllkzzkzmzzvzvzvNvkvzxvvvvNvvvvvvBNvvBvz6<222,29q90wwwrw0rss56q2<22<21111111555555u5586667p7di51511a88i11152",
"55,#1%11#1%56qqasssjllzkljzzkzzvvvNvxvvxvvvkvvvNvvNNBvNBvvl678516569999wr0jwsjfq996,<33221121151515755786a8778788868516988655515"
};
