/* XPM */
static char *_af4a9aeeed94546c2becab35e19f093lezZ6ahg25XpmsVv[] = {
/* columns rows colors chars-per-pixel */
"64 64 164 2 ",
"   c None",
".  c #050B16",
"X  c #060F19",
"o  c #07131D",
"O  c #071722",
"+  c #081620",
"@  c #071B25",
"#  c #091A26",
"$  c #071D2A",
"%  c #091E2A",
"&  c #0A1F30",
"*  c #09212E",
"=  c #10212F",
"-  c #072232",
";  c #0B2533",
":  c #0C2836",
">  c #06253D",
",  c #0B2639",
"<  c #0D2B3B",
"1  c #112433",
"2  c #112837",
"3  c #102639",
"4  c #122C3C",
"5  c #192E3C",
"6  c #12313F",
"7  c #072941",
"8  c #0C2E41",
"9  c #072B48",
"0  c #082C48",
"q  c #122F40",
"w  c #182E40",
"e  c #0E3243",
"r  c #0F3549",
"t  c #0D394D",
"y  c #123344",
"u  c #193444",
"i  c #143649",
"p  c #193649",
"a  c #15394C",
"s  c #1A3B4D",
"d  c #083052",
"f  c #093759",
"g  c #0D395B",
"h  c #163E52",
"j  c #1A3E52",
"k  c #213B4D",
"l  c #154255",
"z  c #1C4255",
"x  c #15455A",
"c  c #1C455A",
"v  c #1C495D",
"b  c #224255",
"n  c #284456",
"m  c #21465A",
"M  c #22495D",
"N  c #2A485C",
"B  c #1E4C63",
"V  c #1E5169",
"C  c #0E4472",
"Z  c #234D63",
"A  c #294F64",
"S  c #245166",
"D  c #2A5167",
"F  c #25536B",
"G  c #2A556C",
"H  c #2B586F",
"J  c #315366",
"K  c #345569",
"L  c #275770",
"P  c #2B5770",
"I  c #255B73",
"U  c #2D5B73",
"Y  c #2D5E7A",
"T  c #315D76",
"R  c #315F79",
"E  c #2F6075",
"W  c #2E617A",
"Q  c #326077",
"!  c #34637C",
"~  c #39647E",
"^  c #2C6280",
"/  c #2F6A84",
"(  c #366781",
")  c #396782",
"_  c #366A85",
"`  c #3A6B85",
"'  c #3D6E89",
"]  c #37718C",
"[  c #3F718B",
"{  c #376E90",
"}  c #3C7291",
"|  c #406F89",
" . c #406E8A",
".. c #41708A",
"X. c #40718E",
"o. c #43728D",
"O. c #45738C",
"+. c #46748E",
"@. c #42728E",
"#. c #407690",
"$. c #427790",
"%. c #417593",
"&. c #437694",
"*. c #497795",
"=. c #437896",
"-. c #477A95",
";. c #457996",
":. c #4A7993",
">. c #487B97",
",. c #487C97",
"<. c #4B7A96",
"1. c #447A9D",
"2. c #477F9D",
"3. c #467999",
"4. c #487B99",
"5. c #4A7E9B",
"6. c #4F7F9A",
"7. c #4D7F9C",
"8. c #4B7E9B",
"9. c #507E9E",
"0. c #4A7EA1",
"q. c #4A839F",
"w. c #4D829E",
"e. c #4F819F",
"r. c #50819D",
"t. c #4B82A1",
"y. c #4E82A0",
"u. c #4E82A2",
"i. c #4D85A3",
"p. c #4E82A3",
"a. c #5185A3",
"s. c #5286A3",
"d. c #5486A1",
"f. c #5686A1",
"g. c #5386A4",
"h. c #5288A6",
"j. c #548AA7",
"k. c #5388A7",
"l. c #5889A5",
"z. c #5689A8",
"x. c #568BA9",
"c. c #5489A9",
"v. c #588DAB",
"b. c #598FAC",
"n. c #5C8EAD",
"m. c #5C92B3",
"M. c #6192AE",
"N. c #6296B5",
"B. c #6495B4",
"V. c #6395B6",
"C. c #6D9BB7",
"Z. c #659AB8",
"A. c #679EBD",
"S. c #689CBA",
"D. c #6C9DB9",
"F. c #689CBC",
"G. c #6C9DBD",
"H. c #699ABB",
"J. c #6FA1BF",
"K. c #669DC1",
"L. c #7DABC7",
"P. c #74A7CA",
"I. c #72A9C9",
"U. c #78ACCE",
/* pixels */
"                                                                                                                                ",
"                                                                                                                                ",
"                                                            { ^ Y I Y { @.                                                      ",
"                                                        { I I L V B V x x V Y F                                                 ",
"                                            L.C.    F.t.' B B V F V I F v v F V B       w.Z.                                    ",
"                                            J.j.%.0.1.=.O.B B v B B F E V v V I l S [ } ' b.                                    ",
"                                            S.a._ V B 4.+.G E F G H U F v l I I l S ! [ W -.                                    ",
"                                          D.Z.v.) c V 4.' U ;.~ F L I F x B / Y S x S E E ~                                     ",
"                                          f.j.h.W V U _ ' ! 5.` Z S B B L _ [ W ! F G B F G                                     ",
"                                          o.5.a.T W V F ! ! ..! S S v v H _ ` L I E W V B S E                                   ",
"                                          [ q.e.Y f.Q S U H G I G G G G S ! ' U E F / F B V F                                   ",
"                                          ;.i.%.T M.-.U L G Z F H H H G ! ' ( ! ( _ ] L F G V                                   ",
"                                          u.c.( W j.9.H G Z S G U H F Q @.U G W _ q.! F F F v                                   ",
"                                          N.e.! ! [ ..G Z Z S G G F Q ) ! Z v U -.,.L B V F F                                   ",
"                                          F.u.` ' [ ~ U D G U D M P ! U F B B / [ Q ! L S B v                                   ",
"                                          K.q.! ( @.~ Q U P T G F T ! T S v G ! F G ! W F V v                                   ",
"                                          K.3.! Y ( ' T ! T G T T T A Z Z G Q M v S U I L S v                                   ",
"                                          N.%.@.' ) ) ` T ! D T T G D G U ! M s j h S G U S v                                   ",
"                                          m.%.8.' ) T ~ ) R D Z G G P P P m p i j j B S F L B                                   ",
"                                          c.%.d.' ) ! ! ` R G Z A G P T v s h a j h a B F F x                                   ",
"                                          c.p.n.&.) R T T T K Z Z Z A m i a a y i h h B Z Z h                                   ",
"                                          p.c.7. .~ A M Z G P Z M Z z i i y 8 y q a B B v Z h v                                 ",
"                                          1.c.d.R M q , 4 h h Z z s 8 < , & & ; , i h h z B z z G                               ",
"                                          k.g.d.D 0 7 9 > $ , Z j < # $ 9 d 7 % & 7 y q s v v z m D                             ",
"                                      5.' F.k.d.h > g C f & q A Z 4 @ % , , - @ * 2 6 6 a M m a y b                             ",
"                                      =.%.P.m. .h 8 e < - - z P b q * % * - $ @ * 6 6 s l v c e 6 M                             ",
"                                      ~ %.U.F.' B l t 7 < 8 P T m p , % * - : - 2 p p h l b y 4 y M                             ",
"                                      ~  .P.V.) S V x t q b | ~ m a < : * ; 6 < y h z z z z 4 < y m                             ",
"                                      ~ ' B.V.! F B g a h T  .~ Z p < 6 ; : < < y z z s h h 4 2 p M                             ",
"                                        ) <.V.! F B B i m ) +.~ A z i y 6 - : e z c p y h i ; < a                               ",
"                                        +.) n. .G m j j T ` *.~ A b s y 6 < < i h a y a h e 4 y h                               ",
"                                        *.T 4.' T Z j Z T ' *.T D z i 4 y 6 2 l i y 8 e t y u y z                               ",
"                                          ) ' ! D A j A R ! *.! G N i i y < 8 y y < 4 y e s j a                                 ",
"                                          %. .) Z v m G T ) *.~ G m a s y y 8 8 < : : y y h p h                                 ",
"                                           . .R z j v T ~ ~ ) ! D j q p y p q , < ; < < i s                                     ",
"                                            ! ' v p m ! T T P P D a 8 p e e < , : : : y e                                       ",
"                                            T ( D z S Y T U U Z v i y e y e y e < : < < e                                       ",
"                                                L D R U P Y ! S z s y a i i y y < : : y e                                       ",
"                                                U ! ( U P T U D Z j i s a s y y < , < e e                                       ",
"                                                F !  .R P G Z p y 3 ; : < 6 y 4 < < < < a                                       ",
"                                                  Y @.! M y 7 q 4 4 < - ; ; 6 < < < : e e                                       ",
"                                                  ! @.! j h c z h l i y , ; < < < < < : ,                                       ",
"                                                  ! ' T z Z S B h a y y < < 2 y < : , - ,                                       ",
"                                                    Y G Z P S y e y 4 : y e 4 3 : < : - < y                                     ",
"                                                    U ! Q Q z s z a a i q y y < < < * ; : -                                     ",
"                                                    ! ! ~ F c D Z s p a h y q < < 2 ; * * -                                     ",
"                                                    P G S Z D H Z j z h a y q < ; * * # * ; 2                                   ",
"                                                  i G P S G Q T b s b z i 8 , ; * * * @ # * ;                                   ",
"                                                  e D Q F G ~ ! A m M z l 6 * * @ * * # % # % ;                                 ",
"                                                  ; z ! S v Q ! D M c M l : * * * * # * ; % % # 5                               ",
"                                                  $ p T S z c S M z l z 6 * * * @ * $ @ # % % ; 3 ; < : * 2                     ",
"                                                  * : G G B z l a i e : @ o o * * * @ # # % ; < < < < : y y y s p               ",
"                                                  < : B G v a i e p : @ * o * * * * o @ $ @ $ ; ; y ; 6 s 2 6 l y s s 6 y       ",
"                                              M h y < a F M a e l y * @ o * * : * * @ * O # @ % , 2 2 s z s z u p y 6 6 4 4 p 3 ",
"                                        s y ; z z 4 , e z z l c H y * @ * * * ; * * * @ 1 2 1 % ; 2 p z z z z z z l y 6 < < 4 4 ",
"                                    u % s q < s h 4 , , < l z c z < : ; : ; * @ @ @ @ @ % # % % % 4 h h z b b M m m z l s s y < ",
"                                1 i p ; p < - y - - < < e l e a i 6 : 6 y < @ @ O @ @ @ % & * < * 6 y s M c M M z z z M M c l 6 ",
"                            = n 3 i p 3 s q ; y < < < < r z l a 6 - : ; < 6 @ o o @ # # ; : : : ; i 6 y a 6 u s z M m z z z M N ",
"                      5 s 3 ; m u i y 3 z y < a < 6 e e i c l t 6 ; ; ; * : @ X O % @ @ # * < y i p 6 6 < 6 z y 6 y z Z D S v v ",
"                N b T 5 p w w A y a a < i e , < * : 6 a i c x B t 6 < 2 y < o X O @ * * < * $ % : i s l z y 5 6 s i y a s z M M ",
"          K k k J b D 1 p s 5 Z 3 4 i 2 e i * , : ; : 6 a l x h t a y * 6 6 o o # * * * $ * - < < 6 : 2 6 z M M s 6 i 6 l z z l ",
"      n y n k 5 b 6 N 5 j b p j ; < i : ; < * : : ; - < a x c a e a e - - % . o # % * < < - ; - - : < i l s y l 6 y l z 2 6 r y ",
"    y j u D m b b 6 z 5 s z u c y , 8 % % < : , * # - < e v Z h e < ; ; # . . # - : ; - * * - < y i 4 6 a z v c 5 : : 6 l 6 : : ",
"2 p k D p M N m z 5 G b y z p h p ; 4 $ ; < * ; 6 2 * @ y v B a i e ; ; X . o * : - e e < ; - * < < 6 l 6 1 l a a i 2 * : l 6 * "
};
